<svg xmlns="http://www.w3.org/2000/svg" xmlns:xlink="http://www.w3.org/1999/xlink" version="1.1" x="0px" y="0px" viewBox="0 0 100 125" enable-background="new 0 0 100 100" xml:space="preserve"><g><path d="M94.025,32.125c0,0-9.106-4.296-18.658-0.416c-9.548,3.88-21.544,14.261-20.673,16.402   c0.868,2.136,16.704,1.206,26.25-2.674C90.499,41.556,94.025,32.125,94.025,32.125z M58.82,46.432   c-0.816-2.008,6.499-6.36,11.714-8.482c5.221-2.123,6.467-0.963,7.183,0.803c0.717,1.764,0.637,3.463-4.584,5.584   C67.914,46.455,59.637,48.438,58.82,46.432z"/><path d="M53.919,48.396c-1.115-2.742,10.378-13.674,21.173-18.062c5.969-2.425,13.113-1.186,17.739-0.768   c3.55,0.319,5.299-0.626,5.818,0.648c0.516,1.276-1.395,1.812-3.708,4.515c-3.02,3.527-7.279,9.407-13.257,11.836   C70.891,50.948,55.032,51.137,53.919,48.396z M97.699,30.603c-0.283-0.697-1.457,0.439-4.409,0.091   c-4.241-0.498-11.338-2.045-17.816,0.588c-10.447,4.249-21.428,14.705-20.606,16.727c0.82,2.018,15.986,1.853,26.434-2.396   c6.471-2.629,10.476-8.68,13.166-11.995C96.347,31.305,97.982,31.299,97.699,30.603z"/><path d="M93.77,68.489c0,0-3.401-9.478-12.9-13.487c-9.495-4.006-25.315-5.148-26.212-3.021   c-0.9,2.129,10.957,12.667,20.453,16.673C84.607,72.662,93.77,68.489,93.77,68.489z M58.759,53.713   c0.845-1.995,9.096,0.097,14.284,2.288c5.188,2.188,5.248,3.888,4.509,5.646c-0.74,1.752-2.001,2.896-7.192,0.704   C65.171,60.163,57.915,55.709,58.759,53.713z"/><path d="M53.906,51.636c1.15-2.728,17.008-2.332,27.74,2.2c5.937,2.504,10.114,8.435,13.089,11.999   c2.284,2.737,4.188,3.306,3.652,4.574c-0.533,1.265-2.262,0.297-5.809,0.569c-4.632,0.36-11.803,1.503-17.742-1.002   C64.101,65.446,52.753,54.361,53.906,51.636z M97.445,70.01c0.293-0.693-1.342-0.718-3.181-3.05   c-2.649-3.354-6.574-9.459-13.018-12.181c-10.39-4.384-25.55-4.754-26.396-2.747c-0.849,2.01,9.991,12.613,20.38,16.996   c6.438,2.719,13.55,1.271,17.797,0.829C95.988,69.552,97.15,70.704,97.445,70.01z"/><path d="M67.876,94.022c0,0,4.295-9.104,0.414-18.657c-3.881-9.548-14.259-21.542-16.4-20.673   c-2.137,0.87-1.208,16.705,2.674,26.253C58.443,90.497,67.876,94.022,67.876,94.022z M53.567,58.821   c2.008-0.816,6.362,6.494,8.484,11.712c2.121,5.221,0.961,6.468-0.805,7.184c-1.762,0.717-3.463,0.634-5.588-4.585   C53.541,67.914,51.562,59.637,53.567,58.821z"/><path d="M51.605,53.918c2.743-1.114,13.673,10.38,18.059,21.173c2.427,5.968,1.188,13.111,0.771,17.74   c-0.319,3.549,0.625,5.297-0.649,5.816c-1.277,0.517-1.812-1.393-4.514-3.707c-3.529-3.02-9.405-7.279-11.837-13.257   C49.047,70.891,48.862,55.031,51.605,53.918z M69.398,97.698c0.695-0.283-0.439-1.454-0.091-4.408   c0.498-4.241,2.038-11.338-0.591-17.817c-4.246-10.444-14.706-21.425-16.728-20.607c-2.018,0.822-1.851,15.987,2.396,26.436   c2.632,6.47,8.68,10.474,11.994,13.165C68.694,96.344,68.701,97.98,69.398,97.698z"/><path d="M31.51,93.771c0,0,9.477-3.403,13.483-12.903c4.01-9.493,5.152-25.314,3.022-26.211   c-2.124-0.901-12.663,10.955-16.672,20.452C27.336,84.604,31.51,93.771,31.51,93.771z M46.287,58.759   c1.995,0.844-0.097,9.093-2.287,14.281c-2.188,5.19-3.89,5.252-5.649,4.513c-1.751-0.741-2.895-2.004-0.705-7.192   C39.837,65.17,44.289,57.916,46.287,58.759z"/><path d="M48.364,53.901c2.728,1.154,2.332,17.013-2.201,27.744c-2.503,5.938-8.434,10.113-12,13.09   c-2.735,2.283-3.303,4.188-4.575,3.653c-1.263-0.535-0.292-2.265-0.567-5.808c-0.358-4.636-1.503-11.806,1.002-17.746   C34.554,64.103,45.636,52.754,48.364,53.901z M29.99,97.444c0.692,0.29,0.718-1.342,3.052-3.183   c3.351-2.646,9.46-6.572,12.181-13.015c4.381-10.391,4.752-25.548,2.744-26.398c-2.009-0.846-12.612,9.994-16.997,20.383   c-2.717,6.437-1.271,13.549-0.832,17.795C30.449,95.989,29.294,97.151,29.99,97.444z"/><path d="M5.976,67.875c0,0,9.106,4.295,18.657,0.415c9.551-3.882,21.543-14.262,20.672-16.401   c-0.868-2.136-16.702-1.206-26.253,2.674C9.504,58.444,5.976,67.875,5.976,67.875z M41.179,53.567   c0.818,2.005-6.497,6.359-11.716,8.481c-5.218,2.122-6.462,0.962-7.181-0.801c-0.718-1.767-0.632-3.467,4.585-5.587   C32.085,53.545,40.364,51.56,41.179,53.567z"/><path d="M46.083,51.605c1.112,2.743-10.38,13.672-21.17,18.058c-5.974,2.427-13.117,1.188-17.744,0.771   c-3.55-0.32-5.297,0.625-5.817-0.649c-0.516-1.277,1.391-1.814,3.705-4.512c3.023-3.531,7.283-9.409,13.257-11.837   C29.107,49.052,44.967,48.862,46.083,51.605z M2.301,69.398c0.285,0.694,1.455-0.441,4.409-0.093   c4.242,0.501,11.339,2.039,17.813-0.589c10.448-4.247,21.428-14.705,20.609-16.728c-0.82-2.018-15.983-1.852-26.433,2.395   c-6.472,2.632-10.479,8.683-13.168,11.997C3.652,68.693,2.019,68.7,2.301,69.398z"/><path d="M6.228,31.511c0,0,3.406,9.474,12.902,13.483c9.496,4.008,25.316,5.152,26.215,3.022   c0.896-2.126-10.957-12.665-20.454-16.673C15.393,27.335,6.228,31.511,6.228,31.511z M41.242,46.287   c-0.844,1.995-9.094-0.098-14.283-2.289c-5.189-2.188-5.254-3.887-4.51-5.644c0.74-1.754,2-2.897,7.19-0.708   C34.829,39.836,42.083,44.292,41.242,46.287z"/><path d="M46.095,48.361c-1.15,2.727-17.008,2.334-27.741-2.197c-5.939-2.506-10.112-8.436-13.09-12.001   c-2.284-2.737-4.188-3.301-3.653-4.573c0.535-1.266,2.264-0.297,5.81-0.571c4.635-0.358,11.8-1.501,17.746,1.001   C35.898,34.554,47.246,45.637,46.095,48.361z M2.554,29.991c-0.292,0.693,1.339,0.718,3.185,3.05   c2.646,3.351,6.569,9.461,13.013,12.179c10.392,4.385,25.55,4.756,26.397,2.746c0.85-2.007-9.992-12.612-20.384-16.995   c-6.435-2.719-13.546-1.271-17.792-0.832C4.007,30.447,2.847,29.296,2.554,29.991z"/><path d="M32.126,5.976c0,0-4.297,9.105-0.417,18.656c3.882,9.55,14.26,21.544,16.399,20.674c2.139-0.869,1.208-16.702-2.67-26.251   C41.554,9.503,32.126,5.976,32.126,5.976z M46.433,41.178c-2.008,0.815-6.362-6.497-8.483-11.714   c-2.122-5.219-0.962-6.466,0.803-7.181c1.765-0.718,3.464-0.634,5.585,4.583C46.459,32.085,48.44,40.362,46.433,41.178z"/><path d="M48.395,46.083c-2.746,1.114-13.673-10.379-18.062-21.174c-2.426-5.969-1.186-13.113-0.769-17.739   c0.319-3.552-0.624-5.3,0.651-5.817c1.273-0.517,1.813,1.39,4.51,3.704c3.531,3.022,9.409,7.283,11.838,13.258   C50.951,29.106,51.137,44.968,48.395,46.083z M30.601,2.302c-0.697,0.282,0.44,1.455,0.093,4.407   c-0.498,4.244-2.042,11.336,0.591,17.814c4.247,10.447,14.703,21.429,16.723,20.609c2.022-0.819,1.853-15.985-2.394-26.435   c-2.629-6.471-8.681-10.474-11.995-13.167C31.304,3.653,31.298,2.017,30.601,2.302z"/><path d="M68.491,6.229c0,0-9.478,3.403-13.488,12.899c-4.007,9.499-5.148,25.319-3.021,26.216   c2.129,0.898,12.665-10.958,16.674-20.452C72.664,15.394,68.491,6.229,68.491,6.229z M53.715,41.239   c-1.997-0.843,0.094-9.092,2.284-14.281s3.891-5.249,5.646-4.51c1.755,0.741,2.898,2.001,0.706,7.19   C60.163,34.827,55.713,42.082,53.715,41.239z"/><path d="M51.636,46.095c-2.728-1.151-2.329-17.009,2.202-27.742c2.501-5.937,8.433-10.111,11.998-13.09   c2.736-2.282,3.306-4.186,4.574-3.651c1.265,0.532,0.297,2.264,0.57,5.808c0.357,4.634,1.501,11.801-1.006,17.747   C65.446,35.899,54.361,47.246,51.636,46.095z M70.013,2.555c-0.694-0.291-0.719,1.34-3.054,3.184   C63.607,8.383,57.5,12.31,54.78,18.751c-4.386,10.392-4.755,25.551-2.747,26.398c2.009,0.847,12.612-9.994,16.998-20.384   c2.718-6.437,1.27-13.548,0.829-17.794C69.552,4.008,70.705,2.85,70.013,2.555z"/><path d="M55.288,47.851c-1.188-2.922-4.519-4.324-7.437-3.138c-2.921,1.186-4.326,4.514-3.137,7.434   c1.185,2.924,4.516,4.324,7.435,3.143C55.068,54.102,56.474,50.771,55.288,47.851z M51.039,52.556   c-1.412,0.572-3.02-0.107-3.594-1.516c-0.575-1.414,0.104-3.024,1.515-3.597c1.412-0.574,3.021,0.104,3.596,1.516   C53.131,50.373,52.452,51.981,51.039,52.556z"/></g><text x="0" y="115" fill="#000000" font-size="5px" font-weight="bold" font-family="'Helvetica Neue', Helvetica, Arial-Unicode, Arial, Sans-serif">Created by Garth James Purkett</text><text x="0" y="120" fill="#000000" font-size="5px" font-weight="bold" font-family="'Helvetica Neue', Helvetica, Arial-Unicode, Arial, Sans-serif">from the Noun Project</text></svg>