<?xml version="1.0" encoding="utf-8"?><!DOCTYPE svg PUBLIC "-//W3C//DTD SVG 1.1//EN" "http://www.w3.org/Graphics/SVG/1.1/DTD/svg11.dtd"><svg version="1.1" xmlns="http://www.w3.org/2000/svg" xmlns:xlink="http://www.w3.org/1999/xlink" x="0px" y="0px" viewBox="-0.001 22.031 100 69.9225" enable-background="new -0.001 22.031 100 55.938" xml:space="preserve"><path d="M97.069,27.588l-18.027-5.381c-0.381-0.117-0.781-0.176-1.172-0.176c-0.4,0-0.801,0.059-1.182,0.176l-36.06,10.854
	c-1.733,0.522-2.92,2.119-2.92,3.931v2.363l-9.492-2.954c-0.4-0.122-0.811-0.186-1.216-0.186c-1.074,0-2.119,0.425-2.905,1.206
	l-3.423,3.423c-1.348,1.348-1.592,3.438-0.596,5.059l5.63,9.126L23.3,54.312c-0.381-0.112-0.776-0.171-1.177-0.171
	c-0.396,0-0.791,0.059-1.172,0.171L2.929,59.697c-1.738,0.518-2.93,2.119-2.93,3.936v4.844c0,1.816,1.191,3.418,2.93,3.936
	l18.022,5.381c0.386,0.117,0.781,0.176,1.177,0.176s0.791-0.059,1.172-0.176l18.027-5.381c1.738-0.518,2.93-2.119,2.93-3.936v-0.312
	l3.501,1.172c0.43,0.146,0.869,0.215,1.309,0.215c1.069,0,2.119-0.42,2.9-1.201l2.656-2.646l4.038,1.201
	c0.391,0.117,0.781,0.176,1.182,0.176c0.391,0,0.791-0.059,1.182-0.176l36.055-10.859c1.729-0.518,2.92-2.114,2.92-3.931V31.523
	C99.999,29.707,98.808,28.11,97.069,27.588z M77.87,26.138l14.453,4.316l-32.48,9.78l-14.458-4.316L77.87,26.138z M52.494,62.021
	l-1.909,1.914l-2.388-4.443l-5.508-10.254l1.885-1.885l7.119,13.184L52.494,62.021z M27.001,40.322l10.708,3.33l3.633,1.128
	l-1.763,1.763l-1.87-0.576l-12.49-3.857L27.001,40.322z M22.128,58.242l6.816,2.041l7.637,2.285l-4.644,1.396l-9.81,2.949
	L7.675,62.568L22.128,58.242z M4.101,65.771l15.977,4.814v2.666L4.101,68.477V65.771z M40.155,68.477l-15.977,4.775v-2.676
	l14.399-4.326l1.577-0.479v1.006V68.477z M44.257,63.828v-0.195c0-0.371-0.059-0.732-0.151-1.074
	c-0.366-1.348-1.392-2.441-2.778-2.861l-3.462-1.035l-6.25-1.865l-6.406-10.396l12.5,3.857l1.04,0.322l3.066,5.708l0.835,1.553
	l2.739,5.098l0.835,1.553L44.257,63.828z M56.103,60.078l-8.936-16.558c-0.508-0.947-1.367-1.655-2.393-1.973l-2.959-0.918v-1.494
	l15.977,4.771v18.457l-1.191-0.361C56.591,61.348,56.435,60.684,56.103,60.078z M95.897,52.114L61.894,62.354V43.906l34.004-10.239
	V52.114z"/><text x="-0.001" y="92.969" fill="#000000" font-size="5px" font-weight="bold" font-family="'Helvetica Neue', Helvetica, Arial-Unicode, Arial, Sans-serif">Created by Tom Glass, Jr.</text><text x="-0.001" y="97.969" fill="#000000" font-size="5px" font-weight="bold" font-family="'Helvetica Neue', Helvetica, Arial-Unicode, Arial, Sans-serif">from the Noun Project</text></svg>