<svg xmlns="http://www.w3.org/2000/svg" xmlns:xlink="http://www.w3.org/1999/xlink" version="1.1" x="0px" y="0px" viewBox="0 0 100 125" enable-background="new 0 0 100 100" xml:space="preserve"><path d="M92.5,11.2h-85c0,0,0,0,0,0c-0.6,0-1.2,0.2-1.6,0.6c-0.1,0.1-0.2,0.2-0.3,0.3c-0.4,0.4-0.6,1-0.6,1.6v0c0,0,0,0,0,0v0  c0,0,0,0,0,0v42.5c0,0.1,0,0.1,0,0.1c0,0.1,0,0.2,0,0.3c0,0.1,0,0.2,0.1,0.2c0,0.1,0,0.2,0.1,0.2c0,0.1,0.1,0.2,0.1,0.2  c0,0.1,0.1,0.1,0.1,0.2c0,0.1,0.1,0.1,0.1,0.2c0,0.1,0.1,0.1,0.2,0.2C5.7,58,5.8,58,5.8,58.1C5.9,58.1,6,58.2,6,58.2  c0.1,0.1,0.1,0.1,0.2,0.1c0,0,0.1,0.1,0.1,0.1l22.5,11.3c0.8,0.4,1.7,0.3,2.4-0.1c0.7-0.4,1.2-1.2,1.2-2.1c0-1.1,0.3-2.5,1.4-3.2  c1.1-0.7,3-0.5,5,0.4c4.6,2.3,8.6,8,8.6,12.6c0,0.1,0,0.1,0,0.2c0,0.9,0.5,1.8,1.4,2.2l17.6,8.8c0,0,0,0,0.1,0  c0.1,0.1,0.2,0.1,0.4,0.1c0,0,0.1,0,0.1,0c0.2,0,0.4,0.1,0.5,0.1s0.4,0,0.5-0.1c0,0,0.1,0,0.1,0c0.1,0,0.3-0.1,0.4-0.1  c0,0,0,0,0.1,0C85.7,80,95,68.6,95,56.2V13.7C95,12.3,93.9,11.2,92.5,11.2z M65.1,82.2l-12.7-6.3c-0.7-6.1-5.4-12.8-11.3-15.6  c-3.6-1.8-7.2-1.8-9.8-0.2c-1.4,0.9-2.5,2.1-3.1,3.7l-17.9-8.9L10,54.7V17.8l37.2,18.6l17.9,8.9V82.2z M67.6,41L18.1,16.2h71.7  C88.6,25.4,80.9,34.1,67.6,41z M90,56.2c0,9.5-7,18.6-19.9,25.9V45.3c9-4.7,15.7-10.3,19.9-16.4V56.2z"/><path d="M23,44.4c-0.9-0.5-1.9-0.7-2.7-0.7c-2.4,0-4.1,1.8-4.1,4.4c0,1.1,0.3,2.2,0.8,3.3c1,2.2,2.8,4.2,4.9,5.2  c0.9,0.5,1.9,0.7,2.7,0.7c2.4,0,4.1-1.8,4.1-4.4c0-2.1-1-4.3-2.6-6.1C25.3,45.9,24.2,45,23,44.4z M26.3,53c0,0.9-0.3,1.9-1.6,1.9  c-0.5,0-1.1-0.2-1.6-0.4c-1.6-0.8-3-2.4-3.8-4.1c-0.3-0.7-0.5-1.5-0.5-2.2c0-0.9,0.3-1.9,1.6-1.9c0.5,0,1.1,0.2,1.6,0.4  c0.7,0.3,1.3,0.8,1.9,1.4C25.2,49.4,26.3,51.4,26.3,53z"/><path d="M35.5,36.1c-0.6-0.3-1.1-0.4-1.6-0.4c-1.6,0-2.7,1.2-2.7,2.8c0,1.7,1.1,3.5,2.7,4.5c0.2,0.1,0.4,0.2,0.5,0.3  c0.6,0.3,1.1,0.4,1.6,0.4c1.6,0,2.7-1.2,2.7-2.8c0-0.1,0-0.2,0-0.3C38.6,38.8,37.3,36.9,35.5,36.1z M36.2,41.2c0,0-0.1,0.1-0.7-0.1  c-0.9-0.5-1.8-1.7-1.8-2.6c0-0.2,0-0.3,0.1-0.3c0,0,0,0,0.1,0c0.1,0,0.3,0,0.5,0.2c0.9,0.5,1.8,1.7,1.8,2.6  C36.3,41.1,36.2,41.2,36.2,41.2z"/><path d="M53.8,66.6c0,1.9,1.4,4,3.2,4.8c0.6,0.3,1.1,0.4,1.6,0.4c1.6,0,2.7-1.2,2.7-2.8c0-1.9-1.4-4-3.2-4.8  c-0.6-0.3-1.1-0.4-1.6-0.4C54.8,63.8,53.8,64.9,53.8,66.6z M56.3,66.3c0,0,0,0,0.1,0c0.1,0,0.3,0,0.5,0.2c0.9,0.5,1.8,1.7,1.8,2.6  c0,0.2,0,0.3-0.1,0.3c0,0-0.1,0.1-0.7-0.1c-0.9-0.5-1.8-1.7-1.8-2.6C56.3,66.4,56.3,66.3,56.3,66.3z"/><path d="M18.6,36.3c1.6,0,2.7-1.2,2.7-2.8c0-1.9-1.4-4-3.2-4.8c-0.6-0.3-1.1-0.4-1.6-0.4c-1.6,0-2.7,1.2-2.7,2.8  c0,1.9,1.4,4,3.2,4.8C17.5,36.1,18.1,36.3,18.6,36.3z M16.3,30.7c0,0,0,0,0.1,0c0.1,0,0.3,0,0.5,0.2c0.9,0.5,1.8,1.7,1.8,2.6  c0,0.2,0,0.3-0.1,0.3c0,0-0.1,0.1-0.7-0.1c-0.9-0.5-1.8-1.7-1.8-2.6C16.3,30.8,16.3,30.7,16.3,30.7z"/><path d="M43.8,48.1c0,3.2,2.5,7,5.7,8.6c0.9,0.5,1.9,0.7,2.7,0.7c2.4,0,4.1-1.8,4.1-4.4c0-3.2-2.5-7-5.7-8.6  c-0.9-0.5-1.9-0.7-2.7-0.7C45.4,43.8,43.8,45.5,43.8,48.1z M47.8,46.3c0.5,0,1.1,0.2,1.6,0.4c2.3,1.1,4.3,4,4.3,6.3  c0,0.9-0.3,1.9-1.6,1.9c-0.5,0-1.1-0.2-1.6-0.4c-2.3-1.1-4.3-4-4.3-6.3C46.3,47.3,46.5,46.3,47.8,46.3z"/><text x="0" y="115" fill="#000000" font-size="5px" font-weight="bold" font-family="'Helvetica Neue', Helvetica, Arial-Unicode, Arial, Sans-serif">Created by Arthur Shlain</text><text x="0" y="120" fill="#000000" font-size="5px" font-weight="bold" font-family="'Helvetica Neue', Helvetica, Arial-Unicode, Arial, Sans-serif">from the Noun Project</text></svg>