<svg xmlns="http://www.w3.org/2000/svg" xmlns:xlink="http://www.w3.org/1999/xlink" version="1.1" x="0px" y="0px" viewBox="0 0 100 125" enable-background="new 0 0 100 100" xml:space="preserve"><g><path d="M62.5,8.8H56c-0.8,0-1.6-0.2-2.3-0.5c0-0.3,0-0.5,0-0.8c0-1.4-1.1-2.5-2.5-2.5h-2.5c-1.4,0-2.5,1.1-2.5,2.5   c0,2.4,0.4,4.6,1.1,6.7c-1.2,2.9-3.1,5.9-5.2,9.2c-5.4,8.3-12,18.6-12.1,36.4c-0.6-0.1-1.2-0.3-1.8-0.4c-1.5-0.4-3-0.7-4.5-0.7   c-2.1,0-3.9,0.7-5.3,2.1c-3.8,3.8-5.9,8.8-5.9,14.1c0,5.3,2.1,10.4,5.9,14.1c3.8,3.8,8.8,5.9,14.1,5.9s10.4-2.1,14.1-5.9   c1.3-1.3,2.4-2.8,3.3-4.4c0.9,1.6,2,3.2,3.4,4.5c3.8,3.8,8.8,5.9,14.1,5.9s10.4-2.1,14.1-5.9c3.8-3.8,5.9-8.8,5.9-14.1   s-2.1-10.4-5.9-14.1c-1.4-1.4-3.3-2.2-5.4-2.2c-1.5,0-3,0.3-4.5,0.7c-0.6,0.1-1.2,0.3-1.8,0.4c-0.1-17.8-6.7-28.1-12.1-36.4   c-2.1-3.3-4-6.2-5.2-9.2c0.1-0.3,0.2-0.6,0.2-0.9c1,0.3,2.1,0.5,3.1,0.5h4c1,18.8,12.9,30,32.4,30c1.4,0,2.5-1.1,2.5-2.5   C95,20.9,82.9,8.8,62.5,8.8z M43.1,85.5c-2.8,2.8-6.6,4.4-10.6,4.4s-7.8-1.6-10.6-4.4c-2.8-2.8-4.4-6.6-4.4-10.6s1.6-7.8,4.4-10.6   c0.5-0.5,1-0.7,1.8-0.7c0.9,0,2.1,0.3,3.4,0.6c1.6,0.4,3.5,0.8,5.5,0.8c2,0,3.8-0.4,5.5-0.8c1.2-0.3,2.4-0.6,3.4-0.6   c0.8,0,1.3,0.2,1.8,0.7c2.8,2.8,4.4,6.6,4.4,10.6S45.9,82.6,43.1,85.5z M72.9,64.2c1.2-0.3,2.4-0.5,3.4-0.5c0.8,0,1.4,0.2,1.9,0.7   c2.8,2.8,4.4,6.6,4.4,10.6s-1.6,7.8-4.4,10.6c-2.8,2.8-6.6,4.4-10.6,4.4s-7.8-1.6-10.6-4.4c-2.8-2.8-4.4-6.6-4.4-10.6   s1.6-7.8,4.4-10.6c0.5-0.5,1-0.7,1.9-0.7c0.9,0,2.1,0.3,3.4,0.5c1.6,0.4,3.4,0.8,5.4,0.8S71.3,64.6,72.9,64.2z M53.7,26.1   C59,34.2,64.9,43.4,65,59.7c-0.6-0.1-1.2-0.2-1.8-0.4c-1.5-0.3-3-0.7-4.5-0.7c-2.2,0-4,0.7-5.4,2.2c-1.3,1.3-2.4,2.8-3.3,4.4   c-0.9-1.6-2-3.2-3.4-4.5c-1.4-1.4-3.2-2.1-5.3-2.1c-1.5,0-3,0.4-4.5,0.7c-0.6,0.1-1.2,0.3-1.8,0.4c0.1-16.3,6-25.5,11.3-33.7   c1.3-2,2.6-4,3.7-6C51.1,22.1,52.4,24,53.7,26.1z M65.1,13.8c15,0.9,23.9,9.8,24.8,24.8C74.9,37.8,66,28.9,65.1,13.8z"/></g><text x="0" y="115" fill="#000000" font-size="5px" font-weight="bold" font-family="'Helvetica Neue', Helvetica, Arial-Unicode, Arial, Sans-serif">Created by Arthur Shlain</text><text x="0" y="120" fill="#000000" font-size="5px" font-weight="bold" font-family="'Helvetica Neue', Helvetica, Arial-Unicode, Arial, Sans-serif">from the Noun Project</text></svg>