<?xml version="1.0" encoding="utf-8"?>
<!-- Generator: Adobe Illustrator 18.1.1, SVG Export Plug-In . SVG Version: 6.00 Build 0)  -->
<svg version="1.1" xmlns="http://www.w3.org/2000/svg" xmlns:xlink="http://www.w3.org/1999/xlink" x="0px" y="0px"
	 viewBox="0 0 800 933" enable-background="new 0 0 800 933" xml:space="preserve">
<g id="Layer_1">
	<g>
		<g id="XMLID_1_">
			<g>
				<path fill="#63042B" d="M493.3,65.7c152.3,0,242.6,90.3,240.3,242.6c0,10.4-8.2,18.7-18.7,18.7c-145.5,0-234.4-83.6-241.8-223.9
					h-29.9c-7.5,0-15.7-1.5-23.1-3.7c0,2.2-0.7,4.5-1.5,6.7c9,22.4,23.1,44,38.8,68.7c40.3,61.9,89.6,138.8,90.3,271.7
					c4.5-0.8,9-2.2,13.4-3c11.2-3,22.4-5.2,33.6-5.2c15.7,0,29.9,6,40.3,16.4c28.4,27.6,44,65.7,44,105.2s-15.7,76.9-44,105.2
					c-27.6,28.4-65.7,44-105.2,44s-76.9-15.7-105.2-44c-10.5-9.7-18.7-21.6-25.4-33.6c-6.7,12-14.9,23.1-24.6,32.8
					c-27.6,28.4-65.7,44-105.2,44s-76.9-15.7-105.2-44c-28.4-27.6-44-65.7-44-105.2s15.7-76.9,44-105.2
					c10.4-10.5,23.9-15.7,39.6-15.7c11.2,0,22.4,2.2,33.6,5.2c4.5,0.8,9,2.2,13.4,3c0.8-132.9,50-209.7,90.3-271.7
					c15.7-24.6,29.9-47,38.8-68.7c-5.2-15.7-8.2-32.1-8.2-50c0-10.5,8.2-18.7,18.7-18.7H409c10.5,0,18.7,8.2,18.7,18.7
					c0,2.2,0,3.7,0,6c5.2,2.2,11.2,3.7,17.2,3.7H493.3z M697.8,288.1c-6.7-112-73.1-178.4-185.1-185.1
					C519.4,215.7,585.8,282.1,697.8,288.1z M643.3,559.8c0-29.9-12-58.2-32.9-79.1c-3.7-3.7-8.2-5.2-14.2-5.2
					c-7.5,0-16.4,1.5-25.4,3.7c-12,3-23.9,6-38.8,6s-28.4-3-40.3-6c-9.7-1.5-18.7-3.7-25.4-3.7s-10.4,1.5-14.2,5.2
					c-20.9,20.9-32.8,49.3-32.8,79.1s11.9,58.2,32.8,79.1c20.9,20.9,49.3,32.8,79.1,32.8c29.8,0,58.2-11.9,79.1-32.8
					C631.4,618,643.3,589.7,643.3,559.8z M498.5,442.6c4.5,1.5,9,2.2,13.4,3c-0.8-121.7-44.8-190.3-84.3-250.8
					c-9.7-15.7-19.4-29.9-27.6-45.5c-8.2,14.9-17.9,29.9-27.6,44.8c-39.6,61.2-83.6,129.9-84.3,251.5c4.5-0.8,9-2.2,13.4-3
					c11.2-2.2,22.4-5.2,33.6-5.2c15.7,0,29.1,5.2,39.6,15.7c10.5,9.7,18.7,21.6,25.4,33.6c6.7-11.9,14.9-23.1,24.6-32.8
					c10.4-11.2,23.9-16.4,40.3-16.4C476.1,437.4,487.3,440.4,498.5,442.6z M382.8,559c0-29.8-11.9-58.2-32.8-79.1
					c-3.7-3.7-7.5-5.2-13.4-5.2c-7.5,0-16.4,2.2-25.4,4.5c-12.7,3-26.1,6-41,6c-14.9,0-29.1-3-41.1-6c-9.7-2.2-18.7-4.5-25.4-4.5
					c-6,0-9.7,1.5-13.4,5.2c-20.9,20.9-32.8,49.3-32.8,79.1c0,29.9,11.9,58.2,32.8,79.1c20.9,20.9,49.3,32.8,79.1,32.8
					s58.2-11.9,79.1-32.8C369.4,616.5,382.8,588.9,382.8,559z"/>
				<path fill="#840033" d="M610.5,480.7c20.9,20.9,32.9,49.3,32.9,79.1s-12,58.2-32.9,79.1c-20.9,20.9-49.3,32.8-79.1,32.8
					c-29.9,0-58.2-11.9-79.1-32.8c-20.9-20.9-32.8-49.3-32.8-79.1s11.9-58.2,32.8-79.1c3.7-3.7,7.5-5.2,14.2-5.2s15.7,2.2,25.4,3.7
					c11.9,3,25.4,6,40.3,6s26.9-3,38.8-6c9-2.2,17.9-3.7,25.4-3.7C602.3,475.5,606.8,477,610.5,480.7z"/>
				<path fill="#840033" d="M350,479.9c20.9,20.9,32.8,49.3,32.8,79.1c0,29.9-13.4,57.5-34.3,79.1c-20.9,20.9-49.3,32.8-79.1,32.8
					s-58.2-11.9-79.1-32.8c-20.9-20.9-32.8-49.3-32.8-79.1c0-29.8,11.9-58.2,32.8-79.1c3.7-3.7,7.5-5.2,13.4-5.2
					c6.7,0,15.7,2.2,25.4,4.5c11.9,3,26.1,6,41.1,6c14.9,0,28.4-3,41-6c9-2.2,17.9-4.5,25.4-4.5C342.5,474.7,346.3,476.2,350,479.9z
					"/>
			</g>
			<g>
			</g>
		</g>
	</g>
</g>
<g id="Layer_2">
	<g id="XMLID_2_">
		<g>
			<path fill="#37A807" d="M512.7,103c112,6.7,178.4,73.1,185.1,185.1C585.8,282.1,519.4,215.7,512.7,103z"/>
			<path fill="#217A00" d="M430,62.9c4.6,1.7,9.7,2.8,14.8,2.8h48.5c152.3,0,242.6,90.3,240.3,242.6c0,10.4-8.2,18.7-18.7,18.7
				c-145.5,0-234.4-83.6-241.8-223.9h-29.9c-6.8,0-14.1-1.2-21-3.1C425.9,87.8,428.5,75.5,430,62.9z M697.8,288.1
				c-6.7-112-73.1-178.4-185.1-185.1C519.4,215.7,585.8,282.1,697.8,288.1z"/>
		</g>
		<g>
		</g>
	</g>
</g>
</svg>
