<?xml version="1.0" encoding="utf-8"?>
<!-- Generator: Adobe Illustrator 18.1.1, SVG Export Plug-In . SVG Version: 6.00 Build 0)  -->
<svg version="1.1" id="Layer_1" xmlns="http://www.w3.org/2000/svg" xmlns:xlink="http://www.w3.org/1999/xlink" x="0px" y="0px"
	 viewBox="0 0 800 933" enable-background="new 0 0 800 933" xml:space="preserve">
<g>
	<g>
		<g>
			<g id="XMLID_1_">
				<g>
					<path fill="#871206" d="M223.2,433.4c0.1-0.1,0.1-0.2,0.2-0.3c0,0,0.1-0.1,0.1-0.1h0c0,0,0,0,0,0c0,0,0.1,0,0.1,0
						c-0.1,0-0.1,0-0.1,0H223h0C223,433.2,223.1,433.3,223.2,433.4C223.2,433.5,223.2,433.4,223.2,433.4z M731,308.6
						c16,29.6,26,73.6,12.7,98c-1,1.7-2,3.2-3.2,4.8c6.2,22.2,9,59.6-0.5,78.4c-5.8,11.6-16.2,20.6-28.5,24c-4,1.1-9,2.6-13.1,2.6
						c-30.9,0-40.6-24.4-48.1-36.7c-0.2,0.6-3.5,2.9-7.1,4.3c-1.7-1.8-3.5-3.7-5.4-5.6c-0.1-0.1-0.2-0.2-0.2-0.2
						c-0.1,0-0.1,3.5-0.1,3.5c0.1,0,0.3,3.5,0.4,3.5h0.2c1.6,0,3.4-0.5,5.2-1.2c26.6,28.4,31.8,41.5,33.5,49.9
						c6.1,7.8,10.7,17.6,11.9,29.3c0.1,0.5,3.9,48.7-21.3,74.9l-2.1,2.1c-11,11.6-23.6,24.5-44.6,24.6c-8.4,0.1-16.6-2.2-23.7-6.4
						c-27.8-16.9-21.8-47.2-19.6-58.6c0.2-1,0.5-2.4,0.8-3.7c-7.2-4.3-14.9-9.9-22.3-17.1c-3.5-3.4-6.6-6.9-9.3-10.4
						c-1.6,0.3-2.9,0.5-3.3,0.6c-2.3,0.3-4.6,0.5-6.9,0.5c-1.1,0-2.2-0.1-3.4-0.1l-43.7-3.1c-7.5-0.5-14.7-1.7-21-5.7l-4.2-0.9
						c0,0-23.1,5.2-36.7,5.2c-9.2,0-18-1.7-27.2-4c-9.2,2.3-18,4-27.2,4c-13.7,0-36.7-5.2-36.7-5.2l-4.2,0.9c-6.3,4-13.6,5.1-21,5.7
						l-43.7,3.1c-1.1,0.1-2.2,0.1-3.4,0.1c-2.3,0-4.5-0.2-6.9-0.5c-0.5-0.1-1.7-0.3-3.4-0.6c-2.8,3.5-5.8,7-9.3,10.4
						c-7.4,7.2-15.1,12.8-22.3,17.1c0.2,1.3,0.5,2.8,0.8,3.7c2.2,11.4,8.1,41.6-19.6,58.6c-7.2,4.3-15.4,6.5-23.7,6.4
						c-21.1-0.1-33.6-13-44.6-24.6l-2.1-2c-25.2-26.2-21.4-74.2-21.3-74.8c1.2-11.8,5.8-21.3,11.9-29.1c1.7-8.5,6.9-21.4,34.1-50.2
						c1.6,0.6,3.1,0.9,4.6,0.9h0.2c0.1,0,0.2-3.5,0.4-3.5c-0.1,0-0.1-1.7-0.2-1.7c-0.1,0.1-0.1-0.8-0.2-0.7c-1.7,1.7-3.2,3.4-4.8,5
						c-3.9-1.4-7.6-3.9-7.8-4.5c-7.5,12.4-17.2,34.9-48.1,34.9c-4.1,0-9.1-0.6-13.1-1.7c-12.3-3.4-22.7-11.9-28.5-23.6
						c-9.4-18.8-6.6-55.9-0.5-78.1c-1.1-1.6-2.2-2.8-3.1-4.6c-13.3-24.4-3.4-68.4,12.7-98c14.3-26,38.2-39.6,65.8-39.8
						c0.2-1,0.3-2.1,0.5-3.1c2.4-15.1,7.2-26.6,10.2-32.5c0-10.9,1.9-22.9,6.6-35.6c7.4-19.9,9.2-25.4,9.3-25.4
						c1.9-6,5.1-11.6,9.3-16.2c11.3-27.9,37.2-74.5,84.3-74.5c7.7,0,18,1.3,29.2,6.6c4.9-1.8,10.2-2.8,15.4-2.8c0.9,0,1.8,0,2.7,0.1
						c12.8,0.7,24.7,7,32.6,17.1c14.7,18.7,32.6,61.9,6.4,107.1C324.8,238,301.5,256,287,265.6c4.7,4.5,9.5,10.7,15.4,18.1l0.9,1.5
						c11.9-3.4,18.7-5.8,25.3-7.4c0-2.5-0.3-5.1-0.3-7.8c0-12.9,11.1-23.4,24-23.4c13,0,24,10.5,24,23.4c0,1.8-0.2,3.5-0.6,5.1
						c0.7,0,1.2-0.1,1.6-0.1c4.6-2.6,12.3-5.8,22.6-6.1c0,0,0,0,0,0c1.1,0,2.2,0.1,3.3,0.2c8.7,0.8,15.2,3.6,19.3,5.9
						c0.5,0.1,1,0.1,1.6,0.1c-0.4-1.6-0.6-3.4-0.6-5.1c0-12.9,11.1-23.4,24-23.4c12.9,0,24,10.5,24,23.4c0,2.8-0.3,5.4-0.3,7.8
						c6.6,1.6,13.4,4,25.3,7.4l0.9-1.5c5.9-7.5,10.7-13.6,15.4-18.1c-14.4-9.6-37.7-27.6-54.1-55.9c-26.3-45.2-8.4-88.4,6.4-107.1
						c7.9-10.1,19.8-16.4,32.6-17.1c0.9-0.1,1.8-0.1,2.7-0.1c5.3,0,10.5,1,15.4,2.8c11.2-5.3,21.5-6.6,29.2-6.6
						c47.1,0,73.1,46.6,84.3,74.5c4.2,4.6,7.4,10.2,9.3,16.2c0.1,0.1,1.9,5.5,9.2,25.4c4.7,12.6,6.6,24.6,6.6,35.6
						c3,5.9,7.8,17.4,10.2,32.5c0.1,1,0.3,2,0.4,3.1C692.9,269,716.8,282.6,731,308.6z M704,388.2c0.6,0,1.2-2.8,1.2-7.5
						c0-10.4-2.8-30.6-13.6-50.5c-7.8-14.4-18.4-19.7-27-19.7c-0.9,0-1.7,0-2.5,0.1c-7.2,0.5-12.5,3.4-12.5,3.4s-17.3,4.3-36,13.2
						c-12.2,5.9-34.9,22.8-34.9,23.9c0.1,0.1,6.9,8.7,6.9,8.8c1,1.3,7.5,11.4,10.4,16.9c1.6-0.7,22.8-11.2,33.8-18.7
						c6.8-4.7,13.8-12.8,18.6-18.5c0.3-0.3,0.5-0.7,0.8-1c0-0.1,0-0.2,0.2-0.3c0.7-0.8,1.3-1.6,1.8-2.2c0.2-0.1,0-0.3,0.1-0.4
						c1.4-1.8,2.1-2.8,2.1-2.8s1.9,2.8,3,5.3c1,2.5,15.7,9.9,22.7,15.9C686,359.9,701.9,388.2,704,388.2z M699.5,477.7
						c2.9,0,3.3-37.5-3.2-54.3c-6.5-16.8-25.7-34.3-25.7-34.3s-6.4-0.9-17.1-0.9c-5.5,0-12.2,1.3-19.7,2.2
						c-15.8,1.8-28.4,8.8-39.3,15.6c-6.9,4.3-12.8,17.7-13.4,18.9c-0.3,1.1-1.1,4.4-2.3,8.9c-0.6-0.4-1.2-0.6-1.9-0.6l-0.4,3.7
						c0,0-0.1,3.6-0.2,3.6c0.1,0,0.2,0,0.2,0h0.4c0.7-2.4,1.4-4.6,1.9-6.7c1.7,1.1,2.8,3.2,2.8,3.2l8.2-6.8c0,0,15.8,4.3,34.6,4.3
						c2.4,0,4.8,0.2,7.3,0c21.9-1.2,37.3-12.8,37.3-12.8l0.9,8.2c0,0,4.1,6.8,11.6,12.1C688.9,447.1,696.4,477.7,699.5,477.7
						L699.5,477.7z M635.1,607.1c7.2-7.6,9.9-30.8,9.1-39.2c-1-8.4-9-11.6-9-11.6s0,0-1.9-11.7c-1.9-11.8-46.7-54.1-46.7-54.1
						l-12.5-8.6l-15.7,4.3l-0.4,0.2c0,0-9.3,0.6-9.3,0.5l-3.6,4c-1.1,1.6-2.4,3.1-3.5,4.5c-0.1,0.2-0.3,0.1-0.4,0.4
						c-6.6,9.1-14.2,19.3-22.6,27.8c-0.1,0.1-0.1,0.2-0.1,0.2l17.6,1.2c0,0,7-1.1,12.5-2.7c5.5-1.6,18.4-11,18.4-11l3.1,2.5
						c0,0,1.6,18.2,16.9,33.1c15.3,14.8,34.1,19.5,34.1,19.5s1,14,2.5,21.9c1.5,7.8-5.5,30.5-3.6,31.6c0.2,0.1,0.3,0.1,0.5,0.1
						C622.9,620,628.5,614,635.1,607.1z M623.9,276L623.9,276c0-14.2-8.5-24-8.5-24l-7.8-3.4c0,0,6.9-13.6-1.1-35.5
						c-8.1-21.9-10-27.2-10-27.2l-4.4-1.9c0,0-18.3-57.8-46.9-57.8c-5.9,0-12.4,2.5-19.2,8.5c6.2,2.6,12.2,11.9,12.2,11.9l20.1,37.6
						l2.7,1.8l-3.2,4.9c0,0-19.4-7.5-32.7-23.1c-13.4-15.6-19.1-32.2-19.1-32.2l-5.5-5.5c0,0-20.9,26.6-2.8,57.7
						c18,31.1,48.6,47,48.6,47l23.6,22.7c0,0-7.6,18.1-8.5,26.3c-1,8.3-2.1,13.3-2.1,13.3s-11.7,0.7-14.7,1.8
						c-1,0.4-8.2,10.3-8.3,10.5c0,0.1,17.2,11.9,17.2,12c7.5-11.2,26.1-26.1,43.5-34.5C606.5,282.2,616.5,278.6,623.9,276z
						 M550.1,386.8c0,0-1.8-2.3-5.2-6.3c-6.1-7.4-17.6-19.9-32.2-31.6c-10.7-8.7-23.1-16.3-36.4-21.4c-8.7-3.4-17.8-4.5-27-4.5
						c-43.5,0-45.5-3.5-49.1-5.2c0,0,0,0,0,0c-0.1-0.1-0.2-0.1-0.3-0.1l0,0c-0.1,0-0.2,0-0.2,0.1c-3.6,1.6-5.5,3.4-49.1,3.4
						c-9.2,0-18.3,2-27,5.5c-13.2,5.1-25.6,13.2-36.4,21.9c-14.5,11.7-26,24.4-32.2,31.8c-3.4,4-5.2,6.4-5.2,6.4s3.2,3.9,6.4,9.2
						c2,3.3,4,7.1,5.1,10.7c0.5,1.7,2.5,7.2,6,15c0.1,0.3,0.3,0.6,0.4,0.9c3.6,8,8.6,18.1,14.9,28.7c0.2,0.2,0.2,0.4,0.4,0.6
						c1.7,3,3.7,6.1,5.8,9.2c0.1,0.2,0.3,0.5,0.4,0.7c10,15.1,22.6,28.9,37.8,39.9c0.3,0.2,0.6,0.6,0.9,0.8
						c9.3,6.7,19.5,13.4,30.7,15.8c0.8,0.3,1.6,0.9,2.4,1.1c3.9,0.7,7.8,2,11.9,2c5.3,0,10.9-0.1,16.7-1.3c2.8-0.7,5.6,2.6,8.4,2.6
						h4.2c2.8,0,5.7-3.2,8.4-2.6c5.7,1.2,11.3-0.5,16.6-0.5c4.1,0,8.1-0.4,11.9-1c0.8-0.1,1.6-0.3,2.4-0.6
						c11.1-2.5,21.4-8.9,30.7-15.6c0.3-0.2,0.6-0.5,0.9-0.7c15.2-10.9,27.8-24.6,37.8-39.8c0.2-0.2,0.3-0.5,0.5-0.7
						c2-3.1,4-6.2,5.7-9.2c0.1-0.2,0.2-0.4,0.4-0.6c6.4-10.7,11.4-20.7,14.9-28.7c0.1-0.3,0.2-0.6,0.4-0.9c3.4-7.8,5.5-13.3,6-15
						c1.1-3.7,3.1-7.4,5.1-10.7C546.9,390.6,550.1,386.8,550.1,386.8z M402.2,313.6h-4.5c1,0,1.6,0.1,2.2,0.4
						C400.6,313.7,401.3,313.6,402.2,313.6z M302.5,187.9c18.1-31.1-2.8-57.7-2.8-57.7l-5.5,5.5c0,0-5.8,16.6-19.1,32.2
						c-13.3,15.6-32.7,23.1-32.7,23.1l-3.2-4.9l2.7-1.8l20.1-37.6c0,0,6-9.3,12.2-11.9c-6.8-6-13.2-8.5-19.1-8.5
						c-28.6,0-46.9,57.8-46.9,57.8l-4.4,1.9c0,0-1.9,5.3-10,27.2c-8.1,22-1.1,35.5-1.1,35.5l-7.9,3.4c0,0-8.5,9.8-8.5,23.9v0.1
						c7.5,2.5,17.4,6.2,27.1,10.9c17.4,8.4,35.9,23.4,43.4,34.5c0-0.1,17.3-11.9,17.3-11.9c-0.1-0.2-7.3-10.1-8.4-10.5
						c-3.1-1.1-14.7-1.8-14.7-1.8s-1.1-5-2-13.3c-1-8.3-8.5-26.3-8.5-26.3l23.6-22.7C253.9,234.9,284.5,218.9,302.5,187.9z
						 M263.9,525l17.6-1.2c0,0,0-0.1-0.1-0.2c-8.4-8.4-16-18.7-22.6-27.8c-0.1-0.2-0.3-0.1-0.4-0.4c-1.1-1.5-2.4-3-3.5-4.6l-3.6-4
						c0,0.1-9.2-0.5-9.2-0.5l-0.5-0.1l-15.7-4.3l-12.5,8.6c0,0-44.9,42.3-46.7,54.1c-1.9,11.7-1.9,11.7-1.9,11.7s-8.1,3.2-9,11.6
						c-0.8,8.3,1.9,31.6,9.1,39.2c6.6,6.9,12.2,13,14.5,13c0.2,0,0.4,0,0.5-0.1c1.9-1.1-5.1-23.8-3.6-31.6
						c1.6-7.9,2.5-21.9,2.5-21.9s18.8-4.8,34.1-19.6c15.3-14.9,16.9-33.1,16.9-33.1l3.1-2.5c0,0,12.8,9.4,18.4,11
						C257,523.8,263.9,525,263.9,525z M224.4,434l0.1-1l-0.1,0.1v0.1h-0.1l-0.1,0.1v0.1c0,0.1,0,0.1,0,0.1v0.4v0.1h0.1v-0.2l0.1-0.2
						v-0.1l0.1-0.2V434z M224.2,433.1L224.2,433.1l-0.5-0.1c0.1,0,0.2,0.1,0.2,0.2C223.9,433.2,224,433.2,224.2,433.1
						C224.1,433.2,224.1,433.2,224.2,433.1C224.2,433.1,224.2,433.1,224.2,433.1z M223.5,440.4c0,0,0.1,0,0.1,0
						c-0.1,0-0.1-3.6-0.1-3.6l-0.4-1.9c-0.6,0-1.1,0.1-1.5,0.3c-1.4-5.1-2.3-9.1-2.7-10.2c-0.5-1.2-6.5-16.3-13.4-20.6
						c-10.9-6.9-23.4-12.7-39.3-14.5c-7.5-0.9-14.2-1.2-19.7-1.2c-10.7,0-17.1,2-17.1,2s-19.2,15.8-25.7,32.6
						c-6.5,16.8-6,54.5-3.1,54.5h0.1c3,0,10.4-30.6,17.8-35.8c7.5-5.3,11.6-14,11.6-14l0.9-7.2c0,0,15.4,12.1,37.3,13.3
						c2.5,0.2,4.9,0.4,7.3,0.4c18.8,0,34.6-4,34.6-4l8.2,7.3c0,0,1.2-1.8,3.2-2.6c0.5,1.6,1,3.4,1.5,5.2H223.5z M214.3,359.9
						c0.1-0.1,6.8-8.7,6.9-8.8c0-1.1-22.7-18-34.9-23.9c-18.7-9-36-13.2-36-13.2s-5.3-2.8-12.5-3.4c-0.8-0.2-1.6-0.2-2.5-0.2
						c-8.6,0-19.1,5.3-26.9,19.7c-10.8,19.9-13.6,40.1-13.6,50.5c0,4.7,0.6,7.5,1.2,7.5c2.1,0,18.1-28.3,24.9-34.2
						c6.9-6,21.7-13.4,22.7-15.9c1.1-2.5,3-5.3,3-5.3s0.7,1,2.1,2.8c0.1,0.1-0.1,0.2,0.1,0.4c0.5,0.7,1.1,1.4,1.8,2.2
						c0.1,0.1,0.1,0.2,0.1,0.3c0.3,0.3,0.5,0.7,0.8,1c4.8,5.8,11.8,13.8,18.6,18.5c11,7.5,32.2,18.1,33.8,18.7
						C206.8,371.3,213.3,361.3,214.3,359.9z"/>
					<path fill="#F9453D" d="M705.2,380.8c0,4.7-0.6,7.5-1.2,7.5c-2.1,0-18.1-28.3-24.9-34.2c-7-6-21.7-13.4-22.7-15.9
						c-1-2.5-3-5.3-3-5.3s-0.7,1-2.1,2.8c-0.1,0.1,0.1,0.2-0.1,0.4c-0.5,0.7-1.1,1.4-1.8,2.2c-0.2,0.1-0.2,0.2-0.2,0.3
						c-0.3,0.3-0.5,0.7-0.8,1c-4.8,5.7-11.8,13.8-18.6,18.5c-11,7.5-32.2,18.1-33.8,18.7c-2.8-5.5-9.4-15.5-10.4-16.9
						c-0.1-0.1-6.8-8.7-6.9-8.8c0-1.1,22.7-18,34.9-23.9c18.7-9,36-13.2,36-13.2s5.3-2.8,12.5-3.4c0.8-0.1,1.6-0.1,2.5-0.1
						c8.6,0,19.1,5.3,27,19.7C702.4,350.2,705.2,370.3,705.2,380.8z"/>
					<path fill="#F9453D" d="M696.3,423.4c6.5,16.8,6.1,54.3,3.2,54.3h-0.1c-3,0-10.5-30.6-17.8-35.8c-7.5-5.3-11.6-12.1-11.6-12.1
						l-0.9-8.2c0,0-15.5,11.6-37.3,12.8c-2.5,0.2-4.9,0-7.3,0c-18.8,0-34.6-4.3-34.6-4.3l-8.2,6.8c0,0-1-2.1-2.8-3.2
						c1.2-4.4,2-7.8,2.3-8.9c0.5-1.2,6.5-14.5,13.4-18.9c10.9-6.9,23.4-13.8,39.3-15.6c7.5-0.9,14.2-2.2,19.7-2.2
						c10.7,0,17.1,0.9,17.1,0.9S689.8,406.6,696.3,423.4z"/>
					<path fill="#F9453D" d="M644.2,567.9c0.8,8.4-1.9,31.6-9.1,39.2c-6.7,6.9-12.2,13-14.6,13c-0.2,0-0.4,0-0.5-0.1
						c-1.9-1.1,5.1-23.8,3.6-31.6c-1.6-7.9-2.5-21.9-2.5-21.9s-18.8-4.8-34.1-19.5C571.7,532,570,513.8,570,513.8l-3.1-2.5
						c0,0-12.8,9.4-18.4,11c-5.5,1.6-12.5,2.7-12.5,2.7l-17.6-1.2c0,0,0-0.1,0.1-0.2c8.4-8.4,16-18.7,22.6-27.8
						c0.1-0.2,0.3-0.1,0.4-0.4c1.1-1.5,2.4-3,3.5-4.5l3.6-4c0,0.1,9.3-0.5,9.3-0.5l0.4-0.2l15.7-4.3l12.5,8.6
						c0,0,44.9,42.3,46.7,54.1c1.9,11.7,1.9,11.7,1.9,11.7S643.2,559.5,644.2,567.9z"/>
					<path d="M637.9,478.3c1.9,1.9,3.7,3.8,5.4,5.6c-1.8,0.7-3.6,1.2-5.2,1.2h-0.2c-0.1,0-0.2-3.5-0.4-3.5c0.1,0,0.1-3.5,0.1-3.5
						C637.8,478.2,637.9,478.2,637.9,478.3z"/>
					<path fill="#F9453D" d="M623.9,276L623.9,276c-7.5,2.6-17.4,6.3-27.1,11c-17.4,8.4-36.1,23.3-43.5,34.5
						c0-0.1-17.2-11.9-17.2-12c0.2-0.2,7.3-10.1,8.3-10.5c3.1-1.1,14.7-1.8,14.7-1.8s1.1-5,2.1-13.3c0.9-8.3,8.5-26.3,8.5-26.3
						l-23.6-22.7c0,0-30.6-16-48.6-47c-18.1-31.1,2.8-57.7,2.8-57.7l5.5,5.5c0,0,5.8,16.6,19.1,32.2c13.3,15.6,32.7,23.1,32.7,23.1
						l3.2-4.9l-2.7-1.8l-20.1-37.6c0,0-6-9.3-12.2-11.9c6.8-6,13.3-8.5,19.2-8.5c28.6,0,46.9,57.8,46.9,57.8l4.4,1.9
						c0,0,1.9,5.3,10,27.2c8.1,22,1.1,35.5,1.1,35.5l7.8,3.4C615.4,252.1,623.9,261.9,623.9,276z"/>
					<path d="M578.9,433.7c-0.6,2.1-1.2,4.3-1.9,6.7h-0.4c0,0-0.1,0-0.2,0c0.1,0,0.2-3.6,0.2-3.6l0.4-3.7
						C577.7,433.1,578.3,433.3,578.9,433.7z"/>
					<path fill="#D82103" d="M544.9,380.5c3.4,3.9,5.2,6.3,5.2,6.3s-3.2,3.8-6.3,9.1c-2,3.3-4,7.1-5.1,10.7c-0.5,1.7-2.5,7.2-6,15
						c-0.1,0.3-0.3,0.6-0.4,0.9c-3.6,8-8.6,18.1-14.9,28.7c-0.1,0.2-0.2,0.4-0.4,0.6c-1.7,3-3.7,6.1-5.7,9.2
						c-0.2,0.2-0.3,0.4-0.5,0.7c-10,15.1-22.6,28.9-37.8,39.8c-0.3,0.2-0.6,0.5-0.9,0.7c-9.3,6.7-19.6,13.1-30.7,15.6
						c-0.8,0.3-1.6,0.5-2.4,0.6c-3.9,0.7-7.8,1-11.9,1c-5.3,0-10.9,1.7-16.6,0.5c-2.8-0.7-5.6,2.6-8.4,2.6h-4.2
						c-2.8,0-5.7-3.2-8.4-2.6c-5.8,1.2-11.4,1.3-16.7,1.3c-4.1,0-8.1-1.3-11.9-2c-0.8-0.1-1.6-0.8-2.4-1.1
						c-11.1-2.5-21.3-9.1-30.7-15.8c-0.3-0.2-0.6-0.6-0.9-0.8c-15.1-10.9-27.8-24.7-37.8-39.9c-0.1-0.2-0.3-0.5-0.4-0.7
						c-2-3.1-4-6.2-5.8-9.2c-0.1-0.2-0.2-0.4-0.4-0.6c-6.3-10.7-11.3-20.8-14.9-28.7c-0.1-0.3-0.2-0.6-0.4-0.9
						c-3.4-7.8-5.5-13.3-6-15c-1.1-3.7-3.1-7.5-5.1-10.7c-3.1-5.3-6.4-9.2-6.4-9.2s1.8-2.5,5.2-6.4c6.1-7.4,17.6-20.1,32.2-31.8
						c10.8-8.7,23.2-16.8,36.4-21.9c8.7-3.4,17.9-5.5,27-5.5c43.6,0,45.5-1.8,49.1-3.4c-0.5,0.6-1.1,3.2-2,3.2h4.5
						c-0.8,0-1.4-2.6-2-3.2c3.5,1.7,5.5,5.2,49.1,5.2c9.2,0,18.3,1.1,27,4.5c13.2,5.1,25.6,12.7,36.4,21.4
						C527.2,360.6,538.8,373.1,544.9,380.5z"/>
					<path d="M403.3,268.8v0.3c-1-0.1-2.2-0.2-3.3-0.2c0,0,0,0,0,0c-0.8-0.1-1.5-0.1-2.2-0.1H403.3z"/>
					<path d="M402.2,321h-4.5c0.8,0,1.4-2.6,2-3.2c0.1,0,0.2-0.1,0.2-0.1l0,0c0.1,0,0.2,0.1,0.3,0.1c0,0,0,0,0,0
						C400.8,318.4,401.4,321,402.2,321z"/>
					<path d="M397.8,313.6h4.5c-1,0-1.6,0.1-2.2,0.4C399.4,313.7,398.7,313.6,397.8,313.6z"/>
					<path d="M400.3,317.8c-0.1,0-0.2-0.1-0.3-0.1C400.1,317.6,400.2,317.6,400.3,317.8z"/>
					<path d="M399.7,317.7c0.1-0.1,0.2-0.1,0.2-0.1C399.9,317.7,399.8,317.7,399.7,317.7z"/>
					<path fill="#F9453D" d="M299.6,130.2c0,0,20.9,26.6,2.8,57.7c-18,31-48.6,47-48.6,47l-23.6,22.7c0,0,7.5,18.1,8.5,26.3
						c1,8.3,2,13.3,2,13.3s11.6,0.7,14.7,1.8c1,0.4,8.2,10.3,8.4,10.5c0,0.1-17.3,11.9-17.3,11.9c-7.5-11.2-26-26.1-43.4-34.5
						c-9.7-4.7-19.7-8.4-27.1-10.9V276c0-14.1,8.5-23.9,8.5-23.9l7.9-3.4c0,0-7-13.6,1.1-35.5c8.1-21.9,10-27.2,10-27.2l4.4-1.9
						c0,0,18.3-57.8,46.9-57.8c5.9,0,12.3,2.5,19.1,8.5c-6.2,2.6-12.2,11.9-12.2,11.9l-20.1,37.6l-2.7,1.8l3.2,4.9
						c0,0,19.4-7.5,32.7-23.1c13.4-15.6,19.1-32.2,19.1-32.2L299.6,130.2z"/>
					<path fill="#F9453D" d="M281.5,523.8l-17.6,1.2c0,0-6.9-1.1-12.5-2.7c-5.5-1.6-18.4-11-18.4-11l-3.1,2.5
						c0,0-1.6,18.2-16.9,33.1c-15.3,14.8-34.1,19.6-34.1,19.6s-1,14-2.5,21.9c-1.5,7.8,5.5,30.5,3.6,31.6c-0.1,0.1-0.3,0.1-0.5,0.1
						c-2.3,0-7.9-6-14.5-13c-7.2-7.6-9.9-30.8-9.1-39.2c1-8.4,9-11.6,9-11.6s0,0,1.9-11.7c1.9-11.8,46.7-54.1,46.7-54.1l12.5-8.6
						l15.7,4.3l0.5,0.1c0,0,9.2,0.6,9.2,0.5l3.6,4c1.1,1.6,2.4,3.1,3.5,4.6c0.1,0.2,0.3,0.1,0.4,0.4c6.7,9.1,14.2,19.3,22.6,27.8
						C281.5,523.7,281.5,523.8,281.5,523.8z"/>
					<polygon points="224.4,433 224.4,434 224.4,433.3 224.4,433.2 224.4,433.2 224.4,433.2 					"/>
					<polygon points="224.4,433.2 224.4,433.3 224.4,433.2 					"/>
					<path d="M224.4,433.2L224.4,433.2l-0.1,0.2v0.1l-0.1,0.1v0.2l-0.1,0.1v-0.4c0,0,0,0,0-0.1v-0.1l0.1-0.1H224.4z"/>
					<polygon points="224.3,433.5 224.2,433.8 224.2,433.6 					"/>
					<polygon points="224.2,433.8 224.2,434 224.1,434 224.1,433.9 					"/>
					<path d="M224.2,433L224.2,433C224.2,433.1,224.2,433.1,224.2,433c-0.1,0.1-0.1,0.1-0.1,0.1c-0.1,0.1-0.2,0.1-0.2,0.1
						c-0.1-0.2-0.2-0.2-0.2-0.2H224.2z"/>
					<path d="M223.6,433c0,0-0.1,0-0.1,0c0,0,0,0,0,0c0,0-0.1,0.1-0.1,0.1c-0.1,0.1-0.1,0.2-0.2,0.3c-0.1-0.1-0.2-0.3-0.2-0.4h0.4
						C223.5,433,223.5,433,223.6,433z"/>
					<path d="M223.6,440.4c-0.1,0-0.1,0-0.1,0H223c-0.6-1.8-1.1-3.6-1.5-5.2c0.5-0.2,1-0.3,1.5-0.3l0.4,1.9
						C223.5,436.8,223.5,440.4,223.6,440.4z"/>
					<path d="M223.5,433C223.5,433,223.5,433.1,223.5,433L223.5,433C223.5,433.1,223.5,433,223.5,433z"/>
					<path d="M223.4,433.2c-0.1,0.1-0.1,0.2-0.2,0.3C223.2,433.4,223.3,433.2,223.4,433.2z"/>
					<path d="M223.2,433.4C223.2,433.4,223.2,433.5,223.2,433.4c-0.1-0.1-0.2-0.3-0.2-0.4h0C223,433.2,223.1,433.3,223.2,433.4z"/>
					<path fill="#F9453D" d="M218.8,424.9c0.4,1.2,1.3,5.1,2.7,10.2c-2,0.7-3.2,2.6-3.2,2.6l-8.2-7.3c0,0-15.8,4-34.6,4
						c-2.4,0-4.9-0.1-7.3-0.4c-21.9-1.2-37.3-13.3-37.3-13.3l-0.9,7.2c0,0-4.1,8.7-11.6,14c-7.3,5.2-14.8,35.8-17.8,35.8h-0.1
						c-2.9,0-3.3-37.7,3.1-54.5c6.5-16.8,25.7-32.6,25.7-32.6s6.4-2,17.1-2c5.5,0,12.2,0.4,19.7,1.2c15.8,1.8,28.4,7.6,39.3,14.5
						C212.3,408.7,218.2,423.8,218.8,424.9z"/>
					<path fill="#F9453D" d="M221.2,351.1c-0.1,0.1-6.9,8.7-6.9,8.8c-1,1.3-7.5,11.4-10.4,16.9c-1.6-0.7-22.8-11.2-33.8-18.7
						c-6.8-4.7-13.8-12.8-18.6-18.5c-0.3-0.3-0.5-0.7-0.8-1c0-0.1,0-0.2-0.1-0.3c-0.7-0.8-1.3-1.6-1.8-2.2c-0.2-0.1,0-0.3-0.1-0.4
						c-1.4-1.8-2.1-2.8-2.1-2.8s-1.9,2.8-3,5.3c-1,2.5-15.8,9.9-22.7,15.9c-6.9,5.9-22.8,34.2-24.9,34.2c-0.6,0-1.2-2.8-1.2-7.5
						c0-10.5,2.8-30.6,13.6-50.5c7.8-14.4,18.4-19.7,26.9-19.7c0.9,0,1.7,0,2.5,0.2c7.2,0.5,12.5,3.4,12.5,3.4s17.3,4.2,36,13.2
						C198.6,333.1,221.2,350,221.2,351.1z"/>
					<path d="M162.3,479.9c0.1,0,0.1,1.7,0.2,1.7c-0.2,0-0.3,3.5-0.4,3.5h-0.2c-1.4,0-3-0.4-4.6-0.9c1.5-1.6,3.1-3.3,4.8-5
						C162.1,479.1,162.2,480,162.3,479.9z"/>
				</g>
				<g>
				</g>
			</g>
		</g>
	</g>
</g>
</svg>
