<svg xmlns="http://www.w3.org/2000/svg" xmlns:xlink="http://www.w3.org/1999/xlink" version="1.1" x="0px" y="0px" viewBox="0 0 100 125" enable-background="new 0 0 100 100" xml:space="preserve"><g><g><path d="M96.049,54.472c1.781-3.27,0.451-9.16-1.699-13.129c-1.91-3.48-5.11-5.31-8.811-5.33c-0.02-0.141-0.039-0.281-0.06-0.41    c-0.319-2.02-0.97-3.57-1.37-4.359c0-1.461-0.25-3.07-0.88-4.762c-0.99-2.67-1.229-3.399-1.24-3.41    c-0.26-0.809-0.69-1.549-1.25-2.17c-1.51-3.738-4.989-9.979-11.3-9.979c-1.029,0-2.41,0.18-3.91,0.889    c-0.66-0.24-1.359-0.369-2.07-0.369c-0.119,0-0.24,0-0.359,0.01c-1.721,0.1-3.31,0.939-4.37,2.291    c-1.97,2.51-4.37,8.289-0.851,14.35c2.201,3.789,5.32,6.209,7.25,7.49c-0.629,0.609-1.27,1.43-2.06,2.43l-0.12,0.199    c-1.6-0.459-2.5-0.779-3.39-0.99c0-0.33,0.04-0.68,0.04-1.049c0-1.73-1.48-3.141-3.21-3.141c-1.74,0-3.22,1.41-3.22,3.141    c0,0.24,0.029,0.469,0.08,0.689c-0.09,0-0.16-0.01-0.221-0.02c-0.55-0.31-1.43-0.68-2.59-0.791    c-0.141-0.019-0.29-0.029-0.439-0.029c-1.381,0.049-2.41,0.471-3.031,0.82c-0.059,0.01-0.129,0.02-0.219,0.02    c0.049-0.221,0.08-0.449,0.08-0.689c0-1.73-1.48-3.141-3.221-3.141c-1.73,0-3.21,1.41-3.21,3.141c0,0.369,0.04,0.719,0.04,1.049    c-0.891,0.211-1.79,0.531-3.391,0.99l-0.119-0.199c-0.79-1-1.43-1.82-2.06-2.43c1.93-1.281,5.051-3.701,7.25-7.49    c3.521-6.06,1.12-11.84-0.85-14.35c-1.061-1.352-2.65-2.191-4.37-2.291c-0.12-0.01-0.239-0.01-0.36-0.01    c-0.709,0-1.41,0.129-2.07,0.369c-1.5-0.709-2.879-0.889-3.909-0.889c-6.31,0-9.79,6.24-11.3,9.979    c-0.561,0.621-0.99,1.361-1.25,2.17c-0.01,0.012-0.25,0.74-1.24,3.41c-0.63,1.691-0.88,3.301-0.88,4.762    c-0.4,0.789-1.05,2.34-1.37,4.359c-0.02,0.129-0.04,0.27-0.061,0.41c-3.699,0.02-6.899,1.85-8.81,5.33    C3.5,45.312,2.17,51.202,3.95,54.472c0.131,0.23,0.27,0.4,0.42,0.611c-0.83,2.979-1.199,7.949,0.06,10.469    c0.779,1.561,2.17,2.701,3.82,3.16c0.529,0.15,1.199,0.23,1.75,0.23c4.14,0,5.439-3.017,6.439-4.677    c0.04,0.119,1,0.734,1.65,0.734h0.029c0.01,0,0.03-0.474,0.051-0.474c-0.01,0.01-0.01-0.237-0.021-0.227    c-0.01,0.01-0.02-0.103-0.03-0.092c-4.199,4.33-4.97,6.187-5.209,7.386c-0.82,1.041-1.431,2.321-1.591,3.901    c-0.01,0.07-0.52,6.503,2.851,10.015l0.279,0.272c1.481,1.549,3.16,3.286,5.981,3.295c1.119,0.012,2.22-0.292,3.18-0.862    c3.721-2.27,2.92-6.321,2.63-7.85c-0.03-0.131-0.069-0.321-0.1-0.501c0.97-0.58,2-1.33,2.989-2.291    c0.471-0.449,0.881-0.92,1.25-1.389c0.221,0.039,0.391,0.07,0.451,0.08c0.31,0.039,0.609,0.07,0.92,0.07    c0.149,0,0.299-0.012,0.449-0.021l5.85-0.42c1-0.07,1.971-0.229,2.82-0.76l0.57-0.119c0,0,3.09,0.699,4.92,0.699    c1.231,0,2.41-0.23,3.641-0.539c1.229,0.309,2.41,0.539,3.64,0.539c1.829,0,4.92-0.699,4.92-0.699l0.569,0.119    c0.851,0.531,1.82,0.689,2.82,0.76l5.85,0.42c0.15,0.01,0.301,0.021,0.451,0.021c0.31,0,0.609-0.031,0.92-0.07    c0.06-0.01,0.229-0.041,0.449-0.08c0.37,0.469,0.78,0.939,1.25,1.389c0.99,0.961,2.021,1.711,2.99,2.291    c-0.029,0.18-0.07,0.369-0.1,0.5c-0.291,1.529-1.09,5.58,2.63,7.85c0.96,0.57,2.059,0.871,3.18,0.859    c2.82-0.01,4.5-1.75,5.98-3.299l0.281-0.279c3.369-3.512,2.859-9.961,2.85-10.031c-0.16-1.58-0.77-2.891-1.59-3.93    c-0.24-1.199-1.01-3.119-5.211-7.449c-0.01-0.012-0.02-0.021-0.029-0.031c-0.01-0.01-0.01,0.483-0.02,0.473    c0.02,0,0.039,0.474,0.049,0.474h0.031c0.649,0,1.609-0.615,1.649-0.734c1,1.66,2.3,4.923,6.44,4.923    c0.549,0,1.219-0.203,1.75-0.353c1.649-0.459,3.039-1.662,3.819-3.221c1.261-2.521,0.89-7.521,0.06-10.5    C95.78,54.904,95.92,54.702,96.049,54.472z M63.07,25.173c-2.42-4.16,0.38-7.73,0.38-7.73l0.74,0.74c0,0,0.77,2.219,2.561,4.31    c1.779,2.09,4.379,3.1,4.379,3.1l0.431-0.65l-0.36-0.24l-2.689-5.039c0,0-0.801-1.25-1.631-1.601    c0.91-0.809,1.781-1.139,2.57-1.139c3.83,0,6.28,7.74,6.28,7.74l0.59,0.26c0,0,0.261,0.709,1.341,3.639    c1.079,2.941,0.149,4.76,0.149,4.76l1.051,0.451c0,0,1.14,1.311,1.14,3.199v0.01c-1,0.34-2.33,0.83-3.63,1.461    c-2.33,1.129-4.831,3.129-5.831,4.629c0-0.01-2.305-1.59-2.305-1.6c0.02-0.029,0.978-1.359,1.117-1.41    c0.41-0.148,1.975-0.24,1.975-0.24s0.146-0.67,0.276-1.779c0.12-1.109,1.133-3.529,1.133-3.529l-3.158-3.041    C69.579,31.472,65.48,29.333,63.07,25.173z M20,36.972c0-1.889,1.14-3.199,1.14-3.199l1.06-0.451c0,0-0.934-1.818,0.146-4.76    c1.08-2.93,1.337-3.639,1.337-3.639l0.584-0.26c0,0,2.457-7.74,6.287-7.74c0.79,0,1.652,0.33,2.562,1.139    c-0.83,0.351-1.627,1.601-1.627,1.601l-2.69,5.039l-0.358,0.24l0.43,0.65c0,0,2.6-1.01,4.381-3.1c1.789-2.092,2.56-4.31,2.56-4.31    l0.739-0.74c0,0,2.801,3.57,0.381,7.73c-2.41,4.16-6.51,6.299-6.51,6.299l-3.16,3.041c0,0,1.01,2.42,1.14,3.529    c0.13,1.109,0.271,1.779,0.271,1.779s1.56,0.092,1.97,0.24c0.14,0.051,1.1,1.381,1.12,1.41c0,0.01-2.32,1.59-2.32,1.6    c-1-1.5-3.48-3.5-5.81-4.629C22.329,37.812,21,37.322,20,36.982V36.972z M9.27,52.013c-0.08,0-0.16-0.371-0.16-1    c0-1.4,0.37-4.1,1.82-6.769c1.05-1.932,2.46-2.641,3.609-2.641c0.121,0,0.231,0,0.34,0.02c0.971,0.07,1.681,0.449,1.681,0.449    s2.319,0.57,4.819,1.771c1.631,0.789,4.67,3.049,4.67,3.199c-0.02,0.01-0.92,1.17-0.93,1.18c-0.13,0.18-1.01,1.521-1.39,2.26    c-0.21-0.09-3.05-1.5-4.53-2.51c-0.91-0.629-1.85-1.709-2.49-2.479c-0.039-0.041-0.069-0.092-0.109-0.131    c0-0.01,0-0.029-0.019-0.041c-0.091-0.109-0.17-0.209-0.24-0.299c-0.021-0.019,0-0.041-0.01-0.051    c-0.19-0.24-0.281-0.379-0.281-0.379s-0.26,0.369-0.4,0.709c-0.14,0.34-2.11,1.33-3.04,2.131    C11.69,48.222,9.549,52.013,9.27,52.013z M13.94,56.363l-0.12,0.971c0,0-0.55,1.163-1.55,1.872C11.289,59.906,10.289,64,9.89,64    H9.879c-0.39,0-0.449-5.045,0.42-7.295c0.871-2.25,3.44-4.366,3.44-4.366s0.86-0.273,2.29-0.273c0.74,0,1.641,0.049,2.641,0.168    c2.119,0.24,3.799,1.02,5.26,1.94c0.92,0.58,1.72,2.598,1.789,2.758C25.789,57.141,25.98,58,26.289,59h0.06c0,0,0.01,0,0.02,0    c-0.01,0-0.02-0.494-0.02-0.484l-0.06-0.256c-0.379,0.01-0.629,0.387-0.629,0.387l-1.101-0.983c0,0-2.12,0.532-4.64,0.532    c-0.32,0-0.65-0.016-0.98-0.048C16.01,57.987,13.94,56.363,13.94,56.363z M31.77,70.333c0,0-0.93-0.15-1.67-0.361    c-0.74-0.209-2.46-1.469-2.46-1.469l-0.421,0.34c0,0-0.219,2.439-2.27,4.43c-2.05,1.98-4.57,2.619-4.57,2.619    s-0.129,1.871-0.34,2.93c-0.199,1.051,0.74,4.092,0.48,4.24c-0.02,0.01-0.04,0.01-0.07,0.01c-0.31,0-1.06-0.809-1.949-1.738    c-0.971-1.021-1.33-4.131-1.221-5.25c0.131-1.121,1.21-1.551,1.21-1.551s0,0,0.25-1.57c0.25-1.58,6.261-7.25,6.261-7.25l1.68-1.15    l2.1,0.58l0.061,0.021c0,0,1.24,0.08,1.24,0.068l0.479,0.541c0.149,0.209,0.319,0.41,0.47,0.609c0.02,0.031,0.04,0.02,0.061,0.051    c0.89,1.219,1.899,2.59,3.029,3.719c0.01,0.012,0.01,0.021,0.01,0.021L31.77,70.333z M65.68,60.533c-0.231,0.4-0.5,0.82-0.77,1.23    c-0.021,0.029-0.041,0.059-0.061,0.09c-1.34,2.029-3.03,3.869-5.061,5.33c-0.039,0.029-0.08,0.061-0.119,0.09    c-1.25,0.9-2.621,1.76-4.11,2.09c-0.11,0.039-0.21,0.061-0.32,0.08c-0.521,0.09-1.05,0.141-1.6,0.141    c-0.71,0-1.46,0.231-2.229,0.073C51.039,69.565,50.661,70,50.28,70h-0.561c-0.379,0-0.76-0.435-1.129-0.344    c-0.771,0.158-1.521,0.173-2.231,0.173c-0.55,0-1.08-0.174-1.6-0.263c-0.11-0.02-0.211-0.102-0.32-0.143    c-1.49-0.33-2.859-1.218-4.109-2.119c-0.041-0.029-0.08-0.077-0.121-0.106c-2.029-1.461-3.72-3.308-5.06-5.338    c-0.02-0.031-0.04-0.064-0.059-0.093c-0.271-0.41-0.541-0.833-0.771-1.233c-0.02-0.029-0.03-0.052-0.05-0.081    c-0.85-1.43-1.52-2.78-2-3.851c-0.01-0.041-0.03-0.08-0.051-0.121c-0.459-1.039-0.729-1.779-0.799-2.01    c-0.15-0.49-0.41-1-0.681-1.439c-0.42-0.711-0.85-1.23-0.85-1.23s0.239-0.33,0.7-0.859c0.82-0.99,2.359-2.689,4.309-4.26    c1.441-1.16,3.101-2.25,4.87-2.93c1.17-0.461,2.391-0.731,3.62-0.731c5.979,0,6.11-0.247,6.61-0.468    C49.92,42.526,49.83,43,49.7,43h0.6C50.17,43,50.08,42.526,50,42.555c0.5,0.221,0.629,0.714,6.609,0.714    c1.231,0,2.45,0.147,3.62,0.608c1.771,0.68,3.431,1.707,4.87,2.867c1.949,1.57,3.49,3.241,4.311,4.231    c0.459,0.529,0.699,0.843,0.699,0.843s-0.43,0.512-0.85,1.223c-0.271,0.439-0.53,0.946-0.68,1.436    c-0.07,0.23-0.341,0.968-0.801,2.007c-0.02,0.041-0.04,0.079-0.05,0.12c-0.479,1.07-1.149,2.419-2,3.849    C65.709,60.482,65.7,60.503,65.68,60.533z M82.719,76.083c0.111,1.119-0.25,4.229-1.219,5.25c-0.891,0.93-1.641,1.738-1.951,1.738    c-0.029,0-0.049,0-0.069-0.01c-0.261-0.149,0.681-3.189,0.479-4.24c-0.209-1.059-0.34-2.93-0.34-2.93s-2.52-0.639-4.57-2.619    c-2.049-1.99-2.27-4.43-2.27-4.43l-0.42-0.34c0,0-1.72,1.26-2.46,1.469c-0.739,0.211-1.67,0.361-1.67,0.361l-2.36-0.16    c0,0,0-0.01,0.01-0.021c1.131-1.129,2.141-2.5,3.031-3.719c0.02-0.031,0.039-0.02,0.059-0.051c0.15-0.199,0.32-0.4,0.471-0.609    l0.48-0.541c0,0.012,1.24-0.068,1.24-0.068l0.059-0.021l2.101-0.58L75,65.712c0,0,6.01,5.67,6.26,7.25    c0.25,1.57,0.25,1.57,0.25,1.57S82.59,74.962,82.719,76.083z M90.12,64h-0.01c-0.4,0-1.4-4.094-2.38-4.795    c-1-0.709-1.55-1.625-1.55-1.625l-0.12-1.093c0,0-2.07,1.548-5,1.709c-0.33,0.029-0.66,0-0.979,0    c-2.521,0-4.641-0.577-4.641-0.577l-1.1,0.912c0,0-0.25-0.503-0.631-0.513l-0.06,0.501c0-0.01-0.01,0.482-0.02,0.482    c0.011,0,0.02,0,0.02,0h0.06c0.311-1,0.5-1.875,0.57-2.084c0.07-0.16,0.87-1.948,1.79-2.528c1.46-0.92,3.14-1.851,5.261-2.092    c1-0.121,1.899-0.293,2.639-0.293c1.431,0,2.291,0.121,2.291,0.121s2.57,2.346,3.439,4.596C90.57,58.971,90.51,64,90.12,64z     M90.73,52.013c-0.28,0-2.42-3.791-3.34-4.58c-0.931-0.801-2.9-1.791-3.04-2.131c-0.141-0.34-0.4-0.709-0.4-0.709    s-0.09,0.139-0.279,0.379c-0.01,0.01,0.01,0.031-0.01,0.051c-0.07,0.09-0.15,0.189-0.24,0.299    C83.4,45.333,83.4,45.353,83.4,45.363c-0.04,0.039-0.069,0.09-0.11,0.131c-0.64,0.769-1.58,1.85-2.49,2.479    c-1.48,1.01-4.319,2.42-4.529,2.51c-0.38-0.738-1.26-2.08-1.391-2.26c-0.01-0.01-0.91-1.17-0.93-1.18c0-0.15,3.04-2.41,4.67-3.199    c2.5-1.201,4.82-1.771,4.82-1.771s0.71-0.379,1.68-0.449c0.11-0.02,0.221-0.02,0.34-0.02c1.15,0,2.561,0.709,3.61,2.641    c1.45,2.67,1.82,5.369,1.82,6.769C90.89,51.642,90.81,52.013,90.73,52.013z"/></g><g><path d="M49.7,36.013c0.1,0,0.2,0,0.301,0.01c0.149,0,0.299,0.01,0.439,0.029v-0.039H49.7z M50,42.062    c0.08-0.029,0.17-0.049,0.299-0.049h-0.6C49.83,42.013,49.92,42.033,50,42.062z"/></g><g><path d="M26.31,58.072c-0.011-0.02-0.021-0.039-0.021-0.059h0.06c0,0,0.01,0,0.02,0c-0.01,0-0.02,0-0.02,0.01    C26.33,58.033,26.32,58.062,26.31,58.072z"/></g><g><path d="M26.411,58.042c-0.011-0.02-0.021-0.029-0.031-0.029h0.061v0.01c0,0,0,0-0.01,0c0,0.01,0,0.01,0,0.01    C26.42,58.042,26.411,58.042,26.411,58.042z"/></g><g><g><path d="M26.469,58.033v0.109l0.011-0.129L26.469,58.033z M26.45,58.093v0.02l0.01-0.029L26.45,58.093z M26.44,58.132v0.01h0.01     v-0.029L26.44,58.132z"/></g><g><path d="M26.44,58.132v0.01h0.01v-0.029L26.44,58.132z M26.45,58.093v0.02l0.01-0.029L26.45,58.093z M26.469,58.033v0.109     l0.011-0.129L26.469,58.033z"/></g><g><path d="M26.469,58.033v0.109l0.011-0.129L26.469,58.033z M26.45,58.093v0.02l0.01-0.029L26.45,58.093z M26.44,58.132v0.01h0.01     v-0.029L26.44,58.132z"/></g><g><path d="M26.44,58.132v0.01h0.01v-0.029L26.44,58.132z M26.45,58.093v0.02l0.01-0.029L26.45,58.093z M26.469,58.033v0.109     l0.011-0.129L26.469,58.033z"/></g><g><path d="M26.469,58.033v0.109l0.011-0.129L26.469,58.033z M26.45,58.093v0.02l0.01-0.029L26.45,58.093z M26.44,58.132v0.01h0.01     v-0.029L26.44,58.132z"/></g><g><path d="M26.44,58.132v0.01h0.01v-0.029L26.44,58.132z M26.45,58.093v0.02l0.01-0.029L26.45,58.093z M26.469,58.033v0.109     l0.011-0.129L26.469,58.033z"/></g><g><path d="M26.469,58.033v0.109l0.011-0.129L26.469,58.033z M26.45,58.093v0.02l0.01-0.029L26.45,58.093z M26.44,58.132v0.01h0.01     v-0.029L26.44,58.132z"/></g><g><path d="M26.44,58.132v0.01h0.01v-0.029L26.44,58.132z M26.45,58.093v0.02l0.01-0.029L26.45,58.093z M26.469,58.033v0.109     l0.011-0.129L26.469,58.033z"/></g><g><path d="M26.469,58.033v0.109l0.011-0.129L26.469,58.033z M26.45,58.093v0.02l0.01-0.029L26.45,58.093z M26.44,58.132v0.01h0.01     v-0.029L26.44,58.132z"/></g><g><path d="M26.44,58.132v0.01h0.01v-0.029L26.44,58.132z M26.45,58.093v0.02l0.01-0.029L26.45,58.093z M26.469,58.033v0.109     l0.011-0.129L26.469,58.033z"/></g><g><path d="M26.469,58.033v0.109l0.011-0.129L26.469,58.033z M26.45,58.093v0.02l0.01-0.029L26.45,58.093z M26.44,58.132v0.01h0.01     v-0.029L26.44,58.132z"/></g><g><path d="M26.44,58.132v0.01h0.01v-0.029L26.44,58.132z M26.45,58.093v0.02l0.01-0.029L26.45,58.093z M26.469,58.033v0.109     l0.011-0.129L26.469,58.033z"/></g><g><path d="M26.44,58.132v0.01h0.01v-0.029L26.44,58.132z M26.45,58.093v0.02l0.01-0.029L26.45,58.093z M26.469,58.033v0.109     l0.011-0.129L26.469,58.033z"/></g><g><path d="M26.45,58.042l-0.01,0.01v0.01c0,0.01,0,0.01,0,0.01v0.07h0.01v-0.029l0.01-0.029v-0.012l0.01-0.029H26.45z      M26.469,58.033v0.109l0.011-0.129L26.469,58.033z"/></g><g><path d="M26.35,58.013h-0.06c0,0.02,0.01,0.039,0.021,0.059c0.01-0.01,0.021-0.039,0.04-0.049c0-0.01,0.01-0.01,0.02-0.01     C26.36,58.013,26.35,58.013,26.35,58.013z"/></g></g></g><text x="0" y="115" fill="#000000" font-size="5px" font-weight="bold" font-family="'Helvetica Neue', Helvetica, Arial-Unicode, Arial, Sans-serif">Created by factor[e] design initiative</text><text x="0" y="120" fill="#000000" font-size="5px" font-weight="bold" font-family="'Helvetica Neue', Helvetica, Arial-Unicode, Arial, Sans-serif">from the Noun Project</text></svg>