<svg xmlns="http://www.w3.org/2000/svg" xmlns:xlink="http://www.w3.org/1999/xlink" version="1.1" x="0px" y="0px" viewBox="0 0 100 125" enable-background="new 0 0 100 100" xml:space="preserve"><path fill="#000000" d="M50,30c-11.046,0-20,8.954-20,20s8.954,20,20,20s20-8.954,20-20S61.046,30,50,30z M50,39  c-7.324,0-11,7.052-11,11c0,1.104-0.896,2-2,2s-2-0.896-2-2c0-6.131,5.342-15,15-15c1.104,0,2,0.896,2,2S51.104,39,50,39z   M79.506,32.901c-3.566-10.012-5.977-16.387-14.617-23.744c-7.021-5.977-15.062-8.64-22.992-8.64  c-16.113,0-31.772,10.994-37.503,27.52C-0.458,42.028-1.897,62.3,9.657,73.604c9.833,9.619,24.376,1.029,33.893,11.289  c6.699,7.223,12.731,14.211,21.837,14.211c2.689,0,5.647-0.61,8.969-2.004C87.459,91.602,99,77.38,99,63  C99,47.538,83.947,45.372,79.506,32.901z M72.811,93.41c-2.713,1.139-5.143,1.691-7.422,1.691c-6.945,0-12.066-5.537-17.998-11.949  l-0.908-0.98c-5.94-6.402-13.334-6.812-19.857-7.176c-5.589-0.311-10.416-0.579-14.171-4.253c-9.614-9.403-9.026-27.567-4.23-41.396  C13.294,14.727,27,4.517,42,4.517c7,0,14.439,2.658,20.348,7.686c7.687,6.544,9.758,11.771,13.416,22.041  C77.99,40.495,82.391,44.482,86.283,48c4.877,4.407,8.724,7.887,8.724,15C95.007,74.831,85.255,88.188,72.811,93.41z"/><text x="0" y="115" fill="#000000" font-size="5px" font-weight="bold" font-family="'Helvetica Neue', Helvetica, Arial-Unicode, Arial, Sans-serif">Created by Mario Bieh</text><text x="0" y="120" fill="#000000" font-size="5px" font-weight="bold" font-family="'Helvetica Neue', Helvetica, Arial-Unicode, Arial, Sans-serif">from the Noun Project</text></svg>