<?xml version="1.0" encoding="utf-8"?>
<!-- Generator: Adobe Illustrator 18.1.1, SVG Export Plug-In . SVG Version: 6.00 Build 0)  -->
<svg version="1.1" id="Layer_1" xmlns="http://www.w3.org/2000/svg" xmlns:xlink="http://www.w3.org/1999/xlink" x="0px" y="0px"
	 viewBox="0 0 800 933" enable-background="new 0 0 800 933" xml:space="preserve">
<g id="XMLID_1_">
	<g>
		<path fill="#FFFFFF" d="M400,261.2c8.2,0,14.9,6.7,14.9,14.9c0,8.2-6.7,14.9-14.9,14.9c-54.7,0-82.1,52.6-82.1,82.1
			c0,8.2-6.7,14.9-14.9,14.9s-14.9-6.7-14.9-14.9C288,327.4,327.9,261.2,400,261.2z"/>
		<path fill="#FFFFFF" d="M670.8,358.3c36.4,32.9,65.1,58.9,65.1,112c0,88.3-72.8,188-165.7,227c-20.2,8.5-38.4,12.6-55.4,12.6
			c-51.8,0-90.1-41.3-134.3-89.2l-6.8-7.3c-44.3-47.8-99.5-50.8-148.2-53.6c-41.7-2.3-77.8-4.3-105.8-31.7
			c-71.8-70.2-67.4-205.8-31.6-309C126,109.9,228.3,33.7,340.3,33.7c52.2,0,107.8,19.8,151.9,57.4c57.4,48.8,72.8,87.9,100.1,164.5
			C608.9,302.2,641.8,332,670.8,358.3z M549.3,373.2c0-82.5-66.8-149.3-149.3-149.3s-149.3,66.8-149.3,149.3S317.5,522.5,400,522.5
			S549.3,455.6,549.3,373.2z"/>
		<path d="M765.7,470.2c0,107.3-86.1,213.5-184,254.5c-24.8,10.4-46.9,15-66.9,15c-68,0-113-52.2-163-106.1
			c-71-76.6-179.6-12.5-253-84.3C12.6,465,23.4,313.7,59.6,209.3C102.4,85.9,219.2,3.9,339.5,3.9c59.2,0,119.2,19.9,171.6,64.5
			c64.5,54.9,82.5,102.5,109.1,177.2C653.4,338.7,765.7,354.8,765.7,470.2z M735.9,470.2c0-53.1-28.7-79.1-65.1-112
			c-29-26.3-61.9-56-78.5-102.7C565,178.9,549.5,139.9,492.2,91.1c-44.1-37.5-99.6-57.4-151.9-57.4c-112,0-214.3,76.2-252.1,185.3
			C52.4,322.3,48,457.8,119.8,528c28,27.4,64.1,29.4,105.8,31.7c48.7,2.7,103.9,5.8,148.2,53.6l6.8,7.3
			c44.3,47.9,82.5,89.2,134.3,89.2c17,0,35.2-4.1,55.4-12.6C663.1,658.2,735.9,558.5,735.9,470.2z"/>
		<path fill="#FFDA00" d="M400,223.9c82.5,0,149.3,66.8,149.3,149.3S482.5,522.5,400,522.5s-149.3-66.8-149.3-149.3
			S317.5,223.9,400,223.9z M414.9,276.2c0-8.2-6.7-14.9-14.9-14.9c-72.1,0-112,66.2-112,112c0,8.2,6.7,14.9,14.9,14.9
			s14.9-6.7,14.9-14.9c0-29.5,27.4-82.1,82.1-82.1C408.2,291.1,414.9,284.4,414.9,276.2z"/>
	</g>
	<g>
	</g>
</g>
</svg>
