<?xml version="1.0" encoding="utf-8"?>
<!-- Generator: Adobe Illustrator 18.1.1, SVG Export Plug-In . SVG Version: 6.00 Build 0)  -->
<svg version="1.1" id="Layer_1" xmlns="http://www.w3.org/2000/svg" xmlns:xlink="http://www.w3.org/1999/xlink" x="0px" y="0px"
	 viewBox="0 0 800 933" enable-background="new 0 0 800 933" xml:space="preserve">
<g>
	<g id="XMLID_1_">
		<g>
			<path fill="#FF9999" d="M770.5,355.7C774,428,756.2,498,721.8,558.2L543,500.1c4.6-22.6,4.9-46.4-0.1-70.4L770.5,355.7z"/>
			<path fill="#FFB3B3" d="M768.1,327.2L535,403c-8.9-23.3-22.4-43.8-39.2-60.6l167.8-231c47.8,48.4,82.9,110.4,98.6,181.6
				C764.7,304.4,766.6,315.9,768.1,327.2z"/>
			<path fill="#FF8080" d="M535.2,526.8l171.5,55.7c-32.7,48.2-76.6,88.9-128.9,117.7L496,587.7
				C513.2,570.4,526.5,549.6,535.2,526.8z"/>
			<path fill="#FFCECC" d="M643.1,92.2L474.5,324.2c-25.5-18.4-55.9-29.9-88.1-32.5V0.2C482.3-2.8,573.5,31.5,643.1,92.2z"/>
			<path fill="#FF6666" d="M474.8,605.9l77.7,106.9c-23.4,10.7-48.3,19.1-74.5,24.8c-25,5.5-49.9,8.3-74.5,8.8V636.3
				c2.2-0.4,4.3-0.8,6.5-1.2C434.1,629.7,456,619.6,474.8,605.9z"/>
			<path fill="#FF4800" d="M375.6,639.1v106.7c-51.1-3-100.2-16.5-144.8-38.8l63-86.7C318.7,632.9,346.7,639.6,375.6,639.1z"/>
			<path fill="#FFE8E6" d="M270,605.7l-63.8,87.8C121.1,642.5,56.3,558,33.3,453.4c-1.4-6.2-2.5-12.4-3.6-18.5
				c0,0,83.2,12,131.9,91.9c0,0,0-9.5,4.9-24.7c4.8-15.2,14.4-36,33.5-58.7c-2.4,19.2-1.7,39.1,2.7,59.1
				C212.2,545.7,236.9,581.5,270,605.7z"/>
		</g>
		<g>
		</g>
	</g>
</g>
</svg>
