<?xml version="1.0" encoding="utf-8"?><!DOCTYPE svg PUBLIC "-//W3C//DTD SVG 1.1//EN" "http://www.w3.org/Graphics/SVG/1.1/DTD/svg11.dtd"><svg version="1.1" xmlns="http://www.w3.org/2000/svg" xmlns:xlink="http://www.w3.org/1999/xlink" x="0px" y="0px" viewBox="0.345 0 99.312 125" enable-background="new 0.345 0 99.312 100" xml:space="preserve"><g><path d="M68.066,70.581c-1.158,3.054-2.951,5.834-5.248,8.158l10.948,15.07c7.017-3.861,12.899-9.306,17.275-15.766L68.066,70.581z
		"/><path d="M69.111,66.999l23.961,7.786c4.611-8.072,6.993-17.441,6.526-27.131l-30.507,9.912
		C69.76,60.776,69.733,63.973,69.111,66.999z"/><path d="M62.786,45.864c2.259,2.261,4.069,5.007,5.256,8.124l31.225-10.146c-0.192-1.526-0.45-3.056-0.787-4.587
		c-2.105-9.551-6.812-17.854-13.213-24.335L62.786,45.864z"/><path d="M35.73,83.103l-8.44,11.612c5.972,2.988,12.554,4.803,19.397,5.205V85.626C42.809,85.696,39.06,84.795,35.73,83.103z"/><path d="M59.976,81.176c-2.519,1.836-5.448,3.193-8.687,3.906c-0.289,0.064-0.58,0.117-0.869,0.167V100
		c3.296-0.055,6.638-0.436,9.981-1.173c3.505-0.771,6.844-1.896,9.983-3.324L59.976,81.176z"/><path d="M23.517,67.331c-0.59-2.678-0.683-5.35-0.357-7.921l0,0c-5.117,6.08-5.14,11.171-5.14,11.171
		C11.494,59.867,0.345,58.263,0.345,58.263c0.141,0.828,0.3,1.656,0.482,2.486C3.912,74.755,12.59,86.082,23.995,92.907
		l8.548-11.763C28.11,77.911,24.789,73.113,23.517,67.331z"/><path d="M48.14,0.024V39.09c4.306,0.343,8.379,1.88,11.798,4.348l22.587-31.091C73.204,4.223,60.983-0.379,48.14,0.024z"/></g><text x="0.345" y="115" fill="#000000" font-size="5px" font-weight="bold" font-family="'Helvetica Neue', Helvetica, Arial-Unicode, Arial, Sans-serif">Created by Diego Naive</text><text x="0.345" y="120" fill="#000000" font-size="5px" font-weight="bold" font-family="'Helvetica Neue', Helvetica, Arial-Unicode, Arial, Sans-serif">from the Noun Project</text></svg>