<svg xmlns="http://www.w3.org/2000/svg" xmlns:xlink="http://www.w3.org/1999/xlink" version="1.1" x="0px" y="0px" viewBox="0 0 100 125" enable-background="new 0 0 100 100" xml:space="preserve"><g><g><path d="M91.351,40.474c-0.568,0-1.144-0.161-1.653-0.499c-1.382-0.914-1.76-2.775-0.845-4.157    c1.415-2.139,1.281-4.501-0.359-6.321c-3.279-3.637-11.844-4.566-23.587,1.566c-1.468,0.767-3.281,0.199-4.048-1.271    c-0.767-1.469-0.198-3.281,1.271-4.048c15.571-8.132,26.132-5.469,30.821-0.265c3.482,3.863,3.838,9.222,0.904,13.65    C93.277,40.002,92.323,40.474,91.351,40.474z"/></g><g><path d="M9.838,72.087c-0.876,0-1.743-0.381-2.336-1.115c-7.645-9.467-0.372-16.879,4.439-21.783    c1.544-1.573,3.003-3.061,4.053-4.516c1.382-1.915,1.98-4.406,2.614-7.044c0.755-3.144,1.611-6.707,3.979-9.834    c11.671-15.414,33.548-18.052,50.888-6.14c1.365,0.938,1.712,2.806,0.773,4.172c-0.938,1.364-2.804,1.712-4.172,0.773    c-12.454-8.558-31.655-9.777-42.706,4.816c-1.609,2.127-2.25,4.792-2.928,7.613c-0.741,3.087-1.508,6.279-3.583,9.154    c-1.315,1.822-3.003,3.543-4.635,5.206c-5.928,6.042-7.954,8.982-4.055,13.812c1.041,1.289,0.84,3.178-0.449,4.219    C11.166,71.869,10.499,72.087,9.838,72.087z"/></g><g><path d="M12.434,73.27c-0.66,0-1.284-0.073-1.87-0.228c-1.611-0.423-2.866-1.412-3.629-2.861    c-2.771-5.269,4.722-11.135,10.743-15.848c1.139-0.893,2.431-1.903,2.761-2.262l1.019-1.109    c6.224-6.788,13.278-14.481,23.901-15.575c3.563-0.367,6.788,0.113,9.636,0.535c4.484,0.666,8.025,1.189,12.058-1.268l0.823-0.503    c5.973-3.653,12.146-7.433,20.6-4.661c4.822,1.583,5.997,4.292,6.132,6.285c0.438,6.449-9.715,11.467-10.147,11.677    c-7.177,3.493-14.997,4.771-22.56,6.008l-2.187,0.359c-1.622,0.278-3.179-0.831-3.451-2.467c-0.272-1.634,0.832-3.18,2.467-3.451    l2.203-0.362c7.136-1.167,14.516-2.373,20.902-5.481c3.785-1.843,6.665-4.747,6.782-5.819c-0.112-0.131-0.577-0.576-2.013-1.047    c-5.814-1.907-9.917,0.604-15.598,4.078l-0.831,0.508c-5.887,3.59-11.06,2.822-16.061,2.08c-2.742-0.406-5.333-0.791-8.142-0.502    c-8.355,0.86-14.322,7.368-20.093,13.661l-1.028,1.12c-0.631,0.685-1.679,1.514-3.476,2.921c-1.984,1.553-7.695,6.023-8.833,8.266    c0.041,0.003,0.083,0.004,0.126,0.004c3.479,0,13.9-6.725,18.518-9.704c5.441-3.511,8.623-5.521,10.749-5.994    c1.619-0.358,3.22,0.66,3.58,2.276c0.36,1.617-0.659,3.22-2.275,3.581c-1.185,0.264-5.407,2.989-8.801,5.179    C24.928,68.803,17.565,73.27,12.434,73.27z"/></g><g><path d="M51.666,85.803c-0.472,0-0.951-0.112-1.398-0.349c-1.465-0.773-2.025-2.589-1.251-4.054    c6.083-11.518,7.711-25.697,4.707-41.006c-0.319-1.626,0.74-3.203,2.365-3.521c1.63-0.324,3.203,0.74,3.521,2.365    c3.272,16.671,1.443,32.22-5.289,44.965C53.784,85.221,52.743,85.803,51.666,85.803z"/></g><g><path d="M36.413,85.803c-0.416,0-0.84-0.088-1.243-0.271c-1.508-0.688-2.172-2.467-1.484-3.975    c6.207-13.607,8.236-25.912,6.785-41.145c-0.157-1.649,1.053-3.113,2.702-3.271c1.636-0.172,3.113,1.052,3.271,2.702    c1.537,16.134-0.714,29.767-7.299,44.203C38.641,85.15,37.552,85.803,36.413,85.803z"/></g></g><text x="0" y="115" fill="#000000" font-size="5px" font-weight="bold" font-family="'Helvetica Neue', Helvetica, Arial-Unicode, Arial, Sans-serif">Created by factor[e] design initiative</text><text x="0" y="120" fill="#000000" font-size="5px" font-weight="bold" font-family="'Helvetica Neue', Helvetica, Arial-Unicode, Arial, Sans-serif">from the Noun Project</text></svg>