<?xml version="1.0" encoding="utf-8"?>
<!-- Generator: Adobe Illustrator 18.1.1, SVG Export Plug-In . SVG Version: 6.00 Build 0)  -->
<svg version="1.1" id="Layer_1" xmlns="http://www.w3.org/2000/svg" xmlns:xlink="http://www.w3.org/1999/xlink" x="0px" y="0px"
	 viewBox="0 0 800 933" enable-background="new 0 0 800 933" xml:space="preserve">
<g id="XMLID_1_">
	<g>
		<path fill="#FFD008" d="M109.6,183.1C208.5,31.9,445,5.6,596.4,76.9c42.3,19.9,74.4,57.5,92.8,108.6
			c31.2,86.8,19.7,202.5-30.7,309.7c-82.7,175.6-245,273.7-361.9,218.6C201.8,669.2,115.4,574.7,77,467.9c-23-64-28.8-132.3-8.7-197
			c-1.4-3.7-5.5-10.8-8.1-15.3c-8.8-14.8-18.7-31.7-11.2-47.5c7.5-15.8,26.7-18.9,43.7-21.6C97.8,185.7,106,184.4,109.6,183.1z
			 M448.5,77.1c-118.2-9.2-246,30.3-308.8,128.1c-8.3,12.9-25,15.6-41.2,18.2c-3.5,0.6-8.5,1.4-12.5,2.2c1.9,3.7,4.4,8,6.2,11.1
			c8.3,14.1,16.9,28.7,12.3,43.3c-35.3,110.3,15.3,233.5,97.2,318.8c-28.5-86-16.5-198.7,32.8-303.3
			C285.3,187.5,366.4,108.8,448.5,77.1z M580.5,110.7c-98.3-46.3-238.4,43.8-312.3,200.8c-46.3,98.4-57.3,203.5-29.3,281.1
			c15,41.6,40.4,71.9,73.6,87.5c98.3,46.3,238.4-43.8,312.3-200.8c46.3-98.4,57.3-203.5,29.3-281.1
			C639.1,156.5,613.7,126.3,580.5,110.7z"/>
		<path fill="#FFFF00" d="M139.7,205.2c62.7-97.8,190.5-137.3,308.8-128.1c-82.1,31.7-163.1,110.4-214,218.4
			c-49.2,104.6-61.2,217.3-32.8,303.3C119.8,513.5,69.2,390.3,104.5,280c4.7-14.6-3.9-29.2-12.3-43.3c-1.8-3.1-4.4-7.4-6.2-11.1
			c4-0.9,9-1.7,12.5-2.2C114.7,220.8,131.4,218.1,139.7,205.2z"/>
		<path fill="#FFD008" d="M442.9,149.3c0.8-0.4,19-9.3,44.8-12.6c18.3-2.3,30.7-2.5,37-0.7c14.2,4.3,25.4,13.7,31.5,26.3
			c13.5-3.2,28.1-0.4,40.2,7.8c3.4,2.3,11,9.2,23.6,29.3c8,12.9,12.9,24.3,15.5,31.6c2.1,5.9,3,9.6,3.2,10.3c3.3,14.3,1.1,30-5,44
			c9.1,7.1,14.8,18.8,15.5,33c0,1,1,24.9-4.9,57.4c-6,33-17,60.8-17.4,62c-5.3,13.3-15.2,23.6-28,29.3c3.6,13.4,2,27.8-4.9,40.2
			c-0.6,1.2-16,28.8-37.2,53.7c-21.8,25.8-39.7,39.2-40.4,39.7c-11.4,8.5-23.8,11.6-35.3,8.9c-6.9,13.6-17.8,25.2-30.9,31.7
			c-0.8,0.4-19,9.3-44.8,12.6c-18.3,2.3-30.7,2.5-37,0.6c-14.2-4.3-25.4-13.7-31.5-26.3c-13.5,3.2-28.1,0.4-40.2-7.8
			c-3.4-2.3-11-9.2-23.6-29.3c-8-12.9-12.9-24.3-15.5-31.6c-2.1-5.9-3-9.6-3.2-10.3c-3.3-14.3-1.1-30,5-44c-5.2-4-9.2-9.4-11.9-16
			c-0.2-0.5-0.4-1.1-0.6-1.6c-1.7-4.7-2.7-9.8-2.9-15.4c0-1-1-25,4.9-57.4c6-33,16.9-60.8,17.4-62c5.3-13.3,15.2-23.6,28-29.3
			c-3.6-13.4-2-27.8,4.9-40.2c0.6-1.2,16-28.7,37.2-53.7c21.8-25.8,39.7-39.2,40.4-39.7c11.4-8.5,23.8-11.6,35.3-8.9
			C418.9,167.5,429.8,155.8,442.9,149.3z M492.4,173.8c-19.3,2.4-32.9,8.9-33,9c-11.1,5.5-19.9,21.9-18.2,34.3l15.3,113.1
			l65.7-139.7c3.6-7.7,0.5-15.5-7.2-18.3C513.1,172.1,506.7,172,492.4,173.8z M403,217.6c-0.8,0.3-2.2,0.9-4.1,2.3
			c-0.1,0.1-15.4,11.7-34.3,34c-18.8,22.2-32.9,47.4-33,47.7c-2.4,4.3-2.8,9.1-1.3,13.4c1.4,4,4.5,7.3,8.6,9.2l81.7,38.5
			c1,0.4,1.8,0.8,2.5,1c0-0.7-0.1-1.7-0.2-2.7l-18.7-138.8C404,220.2,403.5,218.5,403,217.6z M564.4,198.8c-3.5,1-6.5,3.7-8.3,7.6
			l-65.8,139.7l96.9-60.3c10.7-6.6,17.8-23.8,15-36.1c-0.2-0.9-3.8-14.1-13.9-30.4c-7.8-12.5-12.4-17.4-13.6-18.6
			C571.3,198.6,567.6,197.9,564.4,198.8z M310,357.3c-4.2,1.6-7.4,5-9.2,9.4c-0.1,0.2-10,25.6-15.4,54.9
			c-5.1,28.1-4.3,48.9-4.3,49.1c0.1,2.2,0.5,3.6,0.7,4.4c0,0,0,0,0,0c0.8-0.2,2.2-0.7,4.1-1.9l118.9-74c0.9-0.6,1.7-1.1,2.2-1.6
			c-0.6-0.4-1.4-0.8-2.4-1.3l-81.7-38.5C318.8,355.9,314.2,355.7,310,357.3z M611,315.6c-0.8,0.2-2.2,0.7-4.1,1.9l-118.9,74
			c-0.9,0.6-1.6,1.1-2.2,1.6c0.6,0.4,1.4,0.8,2.4,1.3l81.7,38.5c4.3,2,8.9,2.2,13.1,0.6c4.2-1.6,7.4-5,9.2-9.4
			c0.1-0.3,10.1-25.6,15.4-54.9c5.1-28.1,4.3-48.9,4.3-49.1C611.7,317.8,611.3,316.3,611,315.6z M402.7,444.6l-96.9,60.3
			c-10.7,6.6-17.8,23.8-15,36.1c0.2,0.9,3.7,14.1,13.9,30.4c7.8,12.5,12.4,17.4,13.6,18.6c3.4,2.1,7.1,2.8,10.3,1.9
			c3.5-1,6.5-3.7,8.3-7.6l0,0L402.7,444.6z M472.3,428.1c-1-0.4-1.8-0.8-2.5-1c0,0.7,0,1.6,0.2,2.7l18.7,138.8
			c0.3,1.9,0.8,3.6,1.2,4.5c0.8-0.3,2.2-0.9,4.1-2.3c0.1-0.1,15.4-11.7,34.3-34c18.7-22.1,32.9-47.4,33-47.7
			c4.6-8.2,1.2-18.6-7.3-22.6L472.3,428.1z M436.4,460.5l-65.8,139.7c-3.6,7.7-0.5,15.4,7.2,18.3c2,0.1,8.3,0.2,22.6-1.6
			c19.3-2.4,32.9-8.9,33-9c11.2-5.5,19.8-21.9,18.2-34.3L436.4,460.5z"/>
		<path fill="#FFFF00" d="M268.2,311.4c73.9-157,214-247,312.3-200.8c33.2,15.6,58.6,45.8,73.6,87.5c27.9,77.7,17,182.8-29.3,281.1
			c-73.9,157-214,247-312.3,200.8c-33.2-15.6-58.6-45.9-73.6-87.5C210.9,514.9,221.9,409.8,268.2,311.4z M487.7,136.8
			c-25.8,3.3-44,12.2-44.8,12.6c-13.1,6.5-24,18.1-30.9,31.7c-11.5-2.7-23.9,0.4-35.3,8.9c-0.7,0.6-18.6,14-40.4,39.7
			c-21.2,25-36.6,52.6-37.2,53.7c-6.9,12.4-8.6,26.8-4.9,40.2c-12.8,5.7-22.7,16-28,29.3c-0.5,1.2-11.4,29-17.4,62
			c-5.9,32.5-4.9,56.4-4.9,57.4c0.2,5.5,1.2,10.7,2.9,15.4c0.2,0.5,0.4,1.1,0.6,1.6c2.7,6.6,6.8,12,11.9,16c-6.1,14-8.2,29.8-5,44
			c0.2,0.7,1.1,4.4,3.2,10.3c2.6,7.3,7.4,18.7,15.5,31.6c12.5,20,20.1,26.9,23.6,29.3c12.1,8.2,26.6,11,40.2,7.8
			c6.1,12.6,17.3,22.1,31.5,26.3c6.3,1.9,18.7,1.7,37-0.6c25.8-3.3,44-12.2,44.8-12.6c13.1-6.5,24-18.1,30.9-31.7
			c11.5,2.7,23.9-0.4,35.3-8.9c0.7-0.6,18.6-14,40.4-39.7c21.2-25,36.6-52.5,37.2-53.7c6.9-12.4,8.6-26.8,4.9-40.2
			c12.8-5.7,22.7-16,28-29.3c0.5-1.2,11.4-28.9,17.4-62c5.9-32.5,4.9-56.4,4.9-57.4c-0.7-14.2-6.4-25.9-15.5-33
			c6.1-14,8.2-29.8,5-44c-0.2-0.7-1.1-4.4-3.2-10.3c-2.6-7.3-7.4-18.7-15.5-31.6c-12.5-20-20.1-26.9-23.6-29.3
			c-12.1-8.2-26.7-11-40.2-7.8c-6.1-12.6-17.3-22.1-31.5-26.3C518.4,134.2,506,134.5,487.7,136.8z"/>
		<path fill="#FFF200" d="M459.4,182.8c0.1-0.1,13.7-6.6,33-9c14.3-1.8,20.6-1.7,22.6-1.6c7.7,2.9,10.9,10.6,7.2,18.3l-65.7,139.7
			l-15.3-113.1C439.5,204.7,448.3,188.3,459.4,182.8z"/>
		<path fill="#FFF200" d="M399,219.9c1.9-1.4,3.2-2,4.1-2.3c0.4,0.9,1,2.6,1.2,4.5L423,360.9c0.1,1.1,0.2,2,0.2,2.7
			c-0.7-0.2-1.6-0.6-2.5-1L339,324.1c-4.1-1.9-7.1-5.2-8.6-9.2c-1.6-4.4-1.1-9.1,1.3-13.4c0.1-0.2,14.2-25.5,33-47.7
			C383.6,231.6,398.9,220,399,219.9z"/>
		<path fill="#FFF200" d="M556,206.5c1.9-4,4.8-6.7,8.3-7.6c3.3-0.9,6.9-0.2,10.3,1.9c1.2,1.2,5.8,6.1,13.6,18.6
			c10.2,16.3,13.7,29.6,13.9,30.4c2.8,12.3-4.3,29.4-15,36.1l-96.9,60.3L556,206.5z"/>
		<path fill="#FFF200" d="M300.8,366.7c1.7-4.4,5-7.7,9.2-9.4c4.2-1.7,8.8-1.4,13.1,0.6l81.7,38.5c1,0.5,1.8,0.9,2.4,1.3
			c-0.6,0.5-1.3,1-2.2,1.6l-118.9,74c-1.9,1.2-3.3,1.7-4.1,1.9c0,0,0,0,0,0c-0.3-0.8-0.6-2.2-0.7-4.4c0-0.2-0.8-21,4.3-49.1
			C290.8,392.3,300.7,366.9,300.8,366.7z"/>
		<path fill="#FFF200" d="M606.9,317.5c1.9-1.2,3.3-1.7,4.1-1.9c0.3,0.7,0.7,2.2,0.8,4.4c0,0.2,0.8,21-4.3,49.1
			c-5.3,29.3-15.3,54.6-15.4,54.9c-1.7,4.4-5,7.7-9.2,9.4c-4.2,1.7-8.8,1.5-13.1-0.6l-81.7-38.5c-1-0.5-1.8-0.9-2.4-1.3
			c0.6-0.5,1.3-1,2.2-1.6L606.9,317.5z"/>
		<path fill="#FFF200" d="M305.7,504.9l96.9-60.3l-65.8,139.7l0,0c-1.9,4-4.8,6.7-8.3,7.6c-3.3,0.9-6.9,0.2-10.3-1.9
			c-1.2-1.2-5.8-6.1-13.6-18.6c-10.2-16.3-13.7-29.6-13.9-30.4C287.9,528.7,295.1,511.5,305.7,504.9z"/>
		<path fill="#FFF200" d="M469.8,427.1c0.7,0.2,1.6,0.5,2.5,1l81.7,38.5c8.5,4,11.9,14.4,7.3,22.6c-0.1,0.3-14.3,25.6-33,47.7
			c-18.9,22.3-34.2,33.9-34.3,34c-1.9,1.4-3.2,2-4.1,2.3c-0.4-0.9-1-2.6-1.2-4.5L470,429.8C469.8,428.8,469.8,427.9,469.8,427.1z"/>
		<path fill="#FFF200" d="M370.7,600.1l65.8-139.7l15.3,113.1c1.7,12.4-7,28.8-18.2,34.3c-0.1,0.1-13.7,6.6-33,9
			c-14.3,1.8-20.7,1.7-22.6,1.6C370.2,615.6,367.1,607.8,370.7,600.1z"/>
	</g>
	<g>
	</g>
</g>
</svg>
