<svg xmlns="http://www.w3.org/2000/svg" xmlns:xlink="http://www.w3.org/1999/xlink" version="1.1" x="0px" y="0px" viewBox="0 0 100 125" enable-background="new 0 0 100 100" xml:space="preserve"><path d="M70.7,30.3c-1.4-4.8-3.4-9.3-6-13.3c-4-6.3-8-9.4-8.7-10C53.9,5,50.4,4.7,46.2,6c-3.8,1.3-7.9,3.9-11.4,7.5  c-3.4,3.4-6.1,7.4-7.4,11.1c-1.3,3.9-1.2,7.2,0.4,9.4c0.1,0.3,0.3,0.6,0.6,0.8c0.1,0.1,8.3,6.2,8.3,15.3c0,3.8-1.3,7.4-3.9,10.8  c-1,1.4-2.1,2.4-2.9,3.1c-0.5,0.3-1,0.6-1.4,1.1c-2.2,2.2-2.6,5.7-1.2,9.9c1.3,3.8,3.9,7.9,7.5,11.4c3.5,3.5,7.6,6.2,11.4,7.5  c1.6,0.5,3.2,0.8,4.6,0.8c2.1,0,3.9-0.6,5.2-1.9c0.7-0.5,4.7-3.8,8.7-10.3c2.5-4.1,4.5-8.6,5.9-13.4c1.8-6,2.7-12.5,2.7-19.4  C73.4,42.9,72.5,36.3,70.7,30.3z M49.9,71.5c-0.9-0.9-1.8-1.7-2.8-2.5c0.8-0.8,1.7-2,2.7-3.5c1.2-1.9,2.1-4,2.8-6.3  c0.8-2.8,1.3-5.9,1.3-9.2c0-3.3-0.4-6.4-1.3-9.2c-0.7-2.3-1.6-4.4-2.8-6.3c-0.9-1.5-1.9-2.6-2.6-3.4c0.9-0.8,1.9-1.6,2.8-2.5  c0.5-0.5,1.1-1.1,1.6-1.6c0.8,0.9,1.9,2.3,3,4.3c1.9,3.6,4.2,9.7,4.2,18.7c0,8.9-2.3,15.1-4.2,18.7c-1.1,2-2.2,3.5-3,4.5  C50.9,72.6,50.4,72,49.9,71.5z M45.4,32.3c0.7,0.7,1.6,1.8,2.6,3.3c1.7,2.7,3.6,7.4,3.6,14.3c0,6.8-2,11.5-3.7,14.3  c-1,1.6-1.9,2.7-2.6,3.4c-1.3-1-2.7-1.8-4-2.4c0.6-0.6,1.3-1.5,2-2.6c1.6-2.5,3.5-6.7,3.5-12.7c0-6.1-1.9-10.3-3.5-12.7  c-0.7-1.1-1.4-1.9-2-2.5C42.8,34.1,44.1,33.3,45.4,32.3z M52.8,74.7c0.9-1,2.2-2.7,3.4-5c1.3-2.5,2.4-5.2,3.1-8.1  c0.9-3.6,1.4-7.6,1.4-11.7c0-4.2-0.5-8.2-1.4-11.8c-0.8-2.9-1.8-5.6-3.1-8c-1.2-2.3-2.5-3.8-3.4-4.8c1.2-1.5,2.2-3,3-4.5  c1,1.2,2.4,3,3.8,5.5c2.4,4.5,5.4,12.3,5.4,23.7c0,11.3-2.9,19.1-5.4,23.7c-1.4,2.6-2.8,4.4-3.8,5.6C54.9,77.7,53.9,76.2,52.8,74.7z   M30.9,25.8c1.1-3.2,3.4-6.7,6.5-9.8c3.2-3.2,6.7-5.5,10-6.6c2.8-0.9,5.1-0.8,6.3,0.3c0,0,0,0,0,0c0.9,0.9,1.2,2.6,0.8,4.8  c-3.4,1.1-7.3,3.5-10.9,7.1c-3.7,3.7-6.2,7.8-7.2,11.3c-2.3,0.6-4.2,0.4-5.2-0.6c0,0-0.1-0.1-0.1-0.1c0,0,0,0,0,0  C29.7,30.7,29.9,28.6,30.9,25.8z M40.3,50.2c0-4.5-1.7-9.1-4.9-13.2c-0.1-0.1-0.1-0.2-0.2-0.2c1-0.1,2.1-0.4,3.2-0.7  c0.3-0.1,0.6-0.2,0.9-0.3c1.6,1.5,5.4,5.9,5.4,14.3c0,5.5-1.7,9.2-3.1,11.5c-0.9,1.4-1.8,2.4-2.4,2.9c-0.3-0.1-0.6-0.2-0.8-0.3  c-1-0.3-2-0.6-3-0.7c0,0,0-0.1,0.1-0.1C38.7,59.2,40.3,54.7,40.3,50.2z M47.3,90.6c-3.3-1.1-6.8-3.4-10-6.6c-3.2-3.2-5.5-6.7-6.6-10  c-0.9-2.6-0.8-4.7,0-5.9c0,0,0.1,0,0.1-0.1c0,0,0.5-0.3,1.1-0.9c1.1-0.5,2.6-0.5,4.3,0c1,3.6,3.5,7.7,7.2,11.3  c3.5,3.5,7.4,5.9,10.8,7.1c0.5,2.2,0.2,3.8-0.8,4.8c0,0,0,0,0,0C52.4,91.4,50.2,91.5,47.3,90.6z M61.9,80.6  c-1.3,2.1-2.6,3.9-3.8,5.3c-0.1-1-0.4-2-0.7-3.1c-0.2-0.5-0.4-1-0.6-1.6c1.1-1.2,2.9-3.4,4.6-6.6c1.7-3.1,3-6.5,3.9-10.1  C66.4,60,67,55.1,67,49.9c0-5.3-0.6-10.2-1.8-14.8c-0.9-3.6-2.3-7-3.9-10c-1.7-3.1-3.4-5.2-4.6-6.4c0.2-0.5,0.4-1,0.6-1.5  c0.4-1.1,0.6-2.2,0.7-3.2c1.2,1.4,2.5,3.1,3.8,5.2c3.6,5.8,8,15.9,8,30.8C69.9,64.5,65.5,74.7,61.9,80.6z"/><text x="0" y="115" fill="#000000" font-size="5px" font-weight="bold" font-family="'Helvetica Neue', Helvetica, Arial-Unicode, Arial, Sans-serif">Created by Eli Revzin</text><text x="0" y="120" fill="#000000" font-size="5px" font-weight="bold" font-family="'Helvetica Neue', Helvetica, Arial-Unicode, Arial, Sans-serif">from the Noun Project</text></svg>