<?xml version="1.0" encoding="utf-8"?>
<!-- Generator: Adobe Illustrator 18.1.1, SVG Export Plug-In . SVG Version: 6.00 Build 0)  -->
<svg version="1.1" id="Layer_1" xmlns="http://www.w3.org/2000/svg" xmlns:xlink="http://www.w3.org/1999/xlink" x="0px" y="0px"
	 viewBox="0 0 800 933" enable-background="new 0 0 800 933" xml:space="preserve">
<g id="XMLID_1_">
	<g>
		<path fill="#FFEB8A" d="M431.4,638.2c3.7,16.4,1.5,28.4-6,35.8c-4.1,4.5-10.9,6.8-19.8,6.8c-7.3,0-16-1.5-25.7-4.5
			c-24.6-8.2-50.8-25.4-74.6-49.3c-23.9-23.9-41-50-49.3-74.6c-6.7-19.4-6-35.1,0-44c0,0,0.8,0,0.8-0.8c0,0,3.7-2.2,8.2-6.7
			c8.2-3.7,19.4-3.7,32.1,0c7.5,26.9,26.1,57.5,53.7,84.4C376.9,611.3,406,629.2,431.4,638.2z"/>
		<path fill="#FFD00D" d="M554.5,226.2c13.4,44.8,20.2,94,19.4,144.8c0,51.5-6.7,100-20.1,144.8c-10.5,35.8-25.4,69.4-44,100
			c-29.9,48.5-59.7,73.1-64.9,76.9c-9.7,9.7-23.1,14.2-38.8,14.2c-10.5,0-22.4-2.2-34.3-6c-28.4-9.7-59-29.9-85.1-56
			c-26.9-26.1-46.3-56.7-56-85.1c-10.5-31.3-7.5-57.5,8.9-73.9c3-3.7,6.7-6,10.4-8.2c6-5.2,14.2-12.7,21.6-23.1
			c19.4-25.4,29.1-52.2,29.1-80.6c0-67.9-61.2-113.5-62-114.2c-2.2-1.5-3.7-3.7-4.5-6c-11.9-16.4-12.7-41.1-3-70.2
			c9.7-27.6,29.9-57.5,55.2-82.8c26.1-26.9,56.7-46.3,85.1-56c31.3-9.7,57.5-7.5,73.1,7.5c5.2,4.5,35.1,27.6,64.9,74.6
			C529.1,156.7,544.1,190.3,554.5,226.2z M488.8,601.6c26.9-44,59.7-120.2,59-228.4c0-111.2-32.8-186.6-59.7-229.9
			c-9.7-15.7-19.4-28.4-28.4-38.8c-0.7,7.5-2.2,15.7-5.2,23.9c-1.5,3.7-3,7.5-4.5,11.2c9,8.9,21.6,24.6,34.3,47.8
			c12,22.4,22.4,47.8,29.1,74.6c9,34.3,13.4,70.9,13.4,110.5c0,38.8-4.5,75.4-12.7,109c-6.7,26.9-16.4,52.2-29.1,75.4
			c-12.7,23.9-26.1,40.3-34.3,49.3c1.5,4.5,3,8.2,4.5,11.9c2.2,8.2,4.5,15.7,5.2,23.1C469.4,630.7,479.1,617.3,488.8,601.6z
			 M471.6,550.1c18.7-34.3,40.3-92.6,40.3-176.9c0-85.1-22.4-143.3-40.3-176.9c-10.4-18.7-20.9-32.1-28.4-41.1
			c-6,11.2-13.4,22.4-22.4,33.6c6.7,7.5,16.4,18.7,25.4,35.8c9.7,17.9,17.2,38.1,23.1,59.7c6.7,26.9,10.4,56.7,10.4,88.1
			c0,30.6-3.7,60.5-10.4,87.3c-5.2,21.6-13.4,41.8-23.1,60.5c-9,17.2-18.7,29.9-25.4,37.3c8.2,11.2,15.7,22.4,22.4,34.3
			C450.8,582.9,461.2,569.5,471.6,550.1z M465.7,373.2c0-67.2-17.2-112.7-31.4-139.6c-8.2-14.9-16.4-25.4-22.4-32.1
			c-3.7,3.7-8.2,8.2-11.9,11.9c-6.7,6.7-14.2,12.7-20.9,18.7c5.2,6,12.7,14.2,19.4,25.4c8.9,14.2,15.7,29.8,20.9,47
			c6.7,20.9,9.7,44,9.7,68.7c0,24.6-3.7,47.8-9.7,68.7c-5.2,17.2-12,32.8-20.9,47c-7.5,11.2-14.2,20.1-20.2,26.1
			c7.5,6,14.2,11.9,20.9,18.7c3.7,3.7,7.5,8.2,12.7,12.7c6-7.5,14.2-18.7,22.4-33.6C448.5,485.9,465.7,439.6,465.7,373.2z
			 M433.6,108.2c0.9-4.8,1.3-9.3,1.3-13.4c0-10-2.5-17.7-7.3-22.5c-9-8.2-26.1-9-47-2.2c-24.6,8.2-50.8,25.4-74.6,49.3
			c-23.1,23.1-40.3,49.3-48.5,73.2c-3.7,10.4-6,19.6-6,27.5c0,7.9,2.2,14.7,7.5,20.2l0.8,0.8c7.5,7.5,21.6,8.9,38.8,4.5
			c7.5-26.1,26.1-56.7,53.7-84.4C379.1,134.4,408.2,116.4,433.6,108.2z M425.4,674c7.5-7.5,9.7-19.4,6-35.8
			c-25.4-9-54.5-26.9-80.6-53c-27.6-26.9-46.3-57.5-53.7-84.4c-12.7-3.7-23.9-3.7-32.1,0c-4.5,4.5-8.2,6.7-8.2,6.7
			c0,0.8-0.8,0.8-0.8,0.8c-6,9-6.7,24.6,0,44c8.2,24.6,25.4,50.8,49.3,74.6c23.9,23.9,50,41.1,74.6,49.3c9.7,3,18.4,4.5,25.7,4.5
			C414.5,680.8,421.3,678.5,425.4,674z M411.9,372.5c0-51.5-14.2-86.6-26.9-106.7c-7.5-11.2-14.2-19.4-19.4-24.6
			c-9.7,7.5-19.4,13.4-30.6,17.9c4.5,4.5,9.7,10.5,14.9,18.7c11.9,17.9,26.1,49.3,26.1,94.8c0,44.8-14.2,76.1-26.1,94.8
			c-5.2,8.2-10.4,14.9-14.9,19.4c9.7,4.5,20.2,10.5,29.9,17.9c5.2-5.2,11.9-13.4,19.4-25.4C397,458.3,411.9,423.2,411.9,372.5z
			 M337.3,459.8c10.5-17.2,23.1-44.8,23.1-85.8c0-62.7-28.4-95.5-40.3-106.7c-2.2,0.8-4.5,1.5-6.7,2.2c-8.2,2.2-16.4,4.5-23.9,5.2
			c0.8,0,0.8,0.7,1.5,1.5c23.9,30.6,36.6,64.9,36.6,98.5s-11.9,67.2-35.8,98.5c-0.7,0-0.7,0.7-0.7,0.7c7.5,0.8,14.9,3,22.4,5.2
			c1.5,0.8,3.7,1.5,6,2.2C323.9,477.7,330.6,470.2,337.3,459.8z"/>
		<path fill="#FFEB8A" d="M547.8,373.2c0.7,108.2-32.1,184.4-59,228.4c-9.7,15.7-19.4,29.1-28.4,39.6c-0.8-7.5-3-14.9-5.2-23.1
			c-1.5-3.7-3-7.5-4.5-11.9c8.2-9,21.6-25.4,34.3-49.3c12.7-23.1,22.4-48.5,29.1-75.4c8.2-33.6,12.7-70.2,12.7-109
			c0-39.6-4.5-76.1-13.4-110.5c-6.7-26.9-17.2-52.2-29.1-74.6c-12.7-23.1-25.4-38.8-34.3-47.8c1.5-3.7,3-7.5,4.5-11.2
			c3-8.2,4.5-16.4,5.2-23.9c9,10.4,18.7,23.1,28.4,38.8C515,186.6,547.8,262,547.8,373.2z"/>
		<path fill="#FFEB8A" d="M512,373.2c0,84.3-21.6,142.6-40.3,176.9c-10.4,19.4-20.9,32.8-28.4,41.8c-6.7-12-14.2-23.1-22.4-34.3
			c6.7-7.5,16.4-20.2,25.4-37.3c9.7-18.7,17.9-38.8,23.1-60.5c6.7-26.9,10.4-56.7,10.4-87.3c0-31.4-3.7-61.2-10.4-88.1
			c-6-21.6-13.4-41.8-23.1-59.7c-9-17.2-18.7-28.4-25.4-35.8c9-11.2,16.4-22.4,22.4-33.6c7.5,9,17.9,22.4,28.4,41.1
			C489.6,229.9,512,288.1,512,373.2z"/>
		<path fill="#FFEB8A" d="M434.3,233.6c14.2,26.9,31.4,72.4,31.4,139.6c0,66.4-17.2,112.7-31.4,139.6c-8.2,14.9-16.4,26.1-22.4,33.6
			c-5.2-4.5-9-9-12.7-12.7c-6.7-6.7-13.4-12.7-20.9-18.7c6-6,12.7-14.9,20.2-26.1c8.9-14.2,15.7-29.9,20.9-47
			c6-20.9,9.7-44,9.7-68.7c0-24.6-3-47.8-9.7-68.7c-5.2-17.2-12-32.8-20.9-47c-6.7-11.2-14.2-19.4-19.4-25.4
			c6.7-6,14.2-11.9,20.9-18.7c3.7-3.7,8.2-8.2,11.9-11.9C417.9,208.2,426.1,218.7,434.3,233.6z"/>
		<path fill="#FFEB8A" d="M434.9,94.9c0,4.1-0.4,8.6-1.3,13.4c-25.4,8.2-54.5,26.1-81.4,53c-27.6,27.6-46.3,58.2-53.7,84.4
			c-17.2,4.5-31.3,3-38.8-4.5l-0.8-0.8c-5.2-5.6-7.5-12.3-7.5-20.2c0-7.9,2.2-17.1,6-27.5c8.2-23.9,25.4-50,48.5-73.2
			c23.9-23.9,50-41,74.6-49.3c20.9-6.7,38.1-6,47,2.2C432.4,77.2,434.9,84.9,434.9,94.9z"/>
		<path fill="#FFEB8A" d="M385.1,265.7c12.7,20.1,26.9,55.2,26.9,106.7c0,50.8-14.9,85.8-27.6,106.7c-7.5,11.9-14.2,20.1-19.4,25.4
			c-9.7-7.5-20.2-13.4-29.9-17.9c4.5-4.5,9.7-11.2,14.9-19.4c11.9-18.7,26.1-50,26.1-94.8c0-45.5-14.2-76.9-26.1-94.8
			c-5.2-8.2-10.4-14.2-14.9-18.7c11.2-4.5,20.9-10.4,30.6-17.9C370.9,246.3,377.6,254.5,385.1,265.7z"/>
		<path fill="#FFEB8A" d="M360.4,374c0,41-12.7,68.7-23.1,85.8c-6.7,10.5-13.4,17.9-17.9,21.6c-2.2-0.8-4.5-1.5-6-2.2
			c-7.5-2.2-14.9-4.5-22.4-5.2c0,0,0-0.7,0.7-0.7c23.9-31.4,35.8-64.9,35.8-98.5s-12.7-67.9-36.6-98.5c-0.8-0.8-0.8-1.5-1.5-1.5
			c7.5-0.8,15.7-3,23.9-5.2c2.2-0.8,4.5-1.5,6.7-2.2C332.1,278.4,360.4,311.2,360.4,374z"/>
	</g>
	<g>
	</g>
</g>
</svg>
