<?xml version="1.0" encoding="utf-8"?>
<!-- Generator: Adobe Illustrator 18.1.1, SVG Export Plug-In . SVG Version: 6.00 Build 0)  -->
<svg version="1.1" id="Layer_1" xmlns="http://www.w3.org/2000/svg" xmlns:xlink="http://www.w3.org/1999/xlink" x="0px" y="0px"
	 viewBox="0 0 800 933" enable-background="new 0 0 800 933" xml:space="preserve">
<g>
	<g id="XMLID_1_">
		<g>
			<path fill="#6FB27F" d="M703.2,533.4c17.1,0,31.1,14,31.1,31.1c0,17.1-14,31.1-31.1,31.1c-17.1,0-31.1-14-31.1-31.1
				C672.1,547.4,686.1,533.4,703.2,533.4z"/>
			<path fill="#6FB27F" d="M507.3,646.9c17.1,0,31.1,14,31.1,31.1c0,17.1-14,31.1-31.1,31.1c-17.1,0-31.1-14-31.1-31.1
				C476.2,660.9,490.2,646.9,507.3,646.9z"/>
			<path fill="#6FB27F" d="M347.1,511.6c4.7,15.6-6.2,32.6-21.8,37.3c-15.5,3.1-32.7-6.2-37.3-21.8c-4.7-15.6,6.2-32.7,21.8-37.3
				c1.6-1.6,4.7-1.6,7.8-1.6C331.6,488.3,342.5,497.6,347.1,511.6z"/>
			<path fill="#6FB27F" d="M471.5,405.9c4.7,15.6-6.2,32.7-21.8,37.3c-15.6,4.7-32.7-6.2-37.3-21.8c-4.7-15.6,6.2-32.7,21.8-37.3
				c1.6-1.6,4.7-1.6,7.8-1.6C454.4,382.5,466.9,391.9,471.5,405.9z"/>
			<path fill="#6FB27F" d="M567.9,273.7c4.7,15.6-6.2,32.7-21.8,37.3c-15.5,3.1-32.6-6.2-37.3-21.8c-4.7-15.6,6.2-32.7,21.8-37.3
				c1.5-1.6,4.7-1.6,7.8-1.6C552.4,250.4,564.8,259.7,567.9,273.7z"/>
			<path fill="#028C29" d="M651.9,141.5c7.8,29.5,4.7,59.1,0,80.9c-34.2,180.4-161.7,290.8-264.3,353c-42,26.4-76.2,42-110.4,49.8
				c-11.7,3.1-24.1,5.4-37.1,7c-13,1.5-26.6,2.3-40.6,2.3c-37.3,0-77.7-4.7-124.4-15.5c-6.2-1.5-9.3-3.1-9.3-3.1s0-3.1,3.1-7.8
				c17.1-23.3,40.4-42,62.2-59.1l152.4-119.7c29.6-23.3,59.1-46.6,85.5-74.6c14-15.6,26.4-31.1,38.9-46.6
				c10.9-12.4,21.8-26.4,32.7-38.9c14-14,28-28,42-42c10.9-9.3,21.8-20.2,32.7-31.1c38.9-38.9,71.5-84,104.2-127.5l15.5-21.8
				c3.1-4.7,6.2-7.8,6.2-7.8v1.5c-14,23.3-4.7,52.9,4.7,79.3C647.2,126,650.3,133.7,651.9,141.5z M555.5,340.5
				c32.7-9.3,51.3-43.5,42-76.2c-7.8-26.4-31.1-45.1-59.1-45.1c-6.2,0-12.4,0-17.1,1.6c-32.6,9.3-51.3,43.5-42,76.2
				c7.8,26.4,31.1,45.1,59.1,45.1C544.6,342.1,550.8,342.1,555.5,340.5z M459.1,472.7c34.2-9.3,52.9-43.5,43.5-76.2
				c-7.8-26.4-31.1-45.1-59.1-45.1c-6.2,0-12.4,0-17.1,1.6c-34.2,9.3-52.9,43.5-43.5,76.2c7.8,26.4,31.1,45.1,59.1,45.1
				C446.6,474.3,452.9,474.3,459.1,472.7z M333.1,578.5c34.2-9.3,52.9-43.5,43.5-76.2c-7.8-26.4-31.1-45.1-59.1-45.1
				c-6.2,0-12.4,0-17.1,1.5c-32.7,9.3-51.3,43.5-42,76.2c7.8,26.4,31.1,45.1,59.1,45.1C322.2,580,328.5,580,333.1,578.5z"/>
			<path fill="#064717" d="M703.2,502.3c34.2,0,62.2,28,62.2,62.2c0,34.2-28,62.2-62.2,62.2c-34.2,0-62.2-28-62.2-62.2
				C641,530.2,669,502.3,703.2,502.3z M734.3,564.5c0-17.1-14-31.1-31.1-31.1c-17.1,0-31.1,14-31.1,31.1c0,17.1,14,31.1,31.1,31.1
				C720.3,595.6,734.3,581.6,734.3,564.5z"/>
			<path fill="#064717" d="M681.5,135.3c9.3,35.8,4.7,68.4,0,94.9C645.7,421.4,510.4,538,403.1,603.3c-45.1,28-82.4,43.5-118.2,52.9
				c-28,6.2-56,9.3-87.1,9.3c-38.9,0-82.4-4.7-130.6-15.5c-6.2-1.5-20.2-4.7-28-17.1c-7.8-12.4-6.2-28,4.7-42
				c18.7-26.4,43.5-46.7,68.4-65.3l152.4-119.7c28-21.8,57.5-45.1,82.4-71.5c14-14,26.4-29.5,37.3-45.1c10.9-14,21.8-28,34.2-40.4
				c14-15.6,29.5-29.6,43.5-43.5c10.9-10.9,21.8-20.2,31.1-31.1c37.3-37.3,70-82.4,101.1-124.4L609.9,28c4.7-6.2,12.4-17.1,28-20.2
				c15.6-3.1,35.8,10.9,35.8,29.5c0,7.8-3.1,14-6.2,17.1l-1.6,1.6c-6.2,12.4,0,32.6,7.8,54.4C676.8,118.2,679.9,127.5,681.5,135.3z
				 M651.9,222.4c4.7-21.8,7.8-51.3,0-80.9c-1.6-7.8-4.7-15.5-6.2-21.8c-9.3-26.4-18.7-56-4.7-79.3v-1.5c0,0-3.1,3.1-6.2,7.8
				l-15.5,21.8c-32.7,43.5-65.3,88.6-104.2,127.5c-10.9,10.9-21.8,21.8-32.7,31.1c-14,14-28,28-42,42
				c-10.9,12.4-21.8,26.4-32.7,38.9c-12.4,15.5-24.9,31.1-38.9,46.6c-26.4,28-56,51.3-85.5,74.6L131,548.9
				C109.2,566,85.9,584.7,68.8,608c-3.1,4.7-3.1,7.8-3.1,7.8s3.1,1.6,9.3,3.1c46.7,10.9,87.1,15.5,124.4,15.5
				c14,0,27.6-0.8,40.6-2.3c13-1.6,25.5-3.9,37.1-7c34.2-7.8,68.4-23.3,110.4-49.8C490.2,513.2,617.7,402.8,651.9,222.4z"/>
			<path fill="#064717" d="M597.5,264.4c9.3,32.7-9.3,66.9-42,76.2c-4.7,1.6-10.9,1.6-17.1,1.6c-28,0-51.3-18.7-59.1-45.1
				c-9.3-32.7,9.3-66.9,42-76.2c4.7-1.6,10.9-1.6,17.1-1.6C566.4,219.3,589.7,237.9,597.5,264.4z M546.2,311
				c15.5-4.7,26.4-21.8,21.8-37.3c-3.1-14-15.5-23.3-29.5-23.3c-3.1,0-6.2,0-7.8,1.6c-15.5,4.7-26.4,21.8-21.8,37.3
				C513.5,304.8,530.6,314.1,546.2,311z"/>
			<path fill="#064717" d="M507.3,614.2c34.2,0,62.2,28,62.2,62.2c0,34.2-28,62.2-62.2,62.2s-62.2-28-62.2-62.2
				C445.1,642.2,473.1,614.2,507.3,614.2z M538.4,678c0-17.1-14-31.1-31.1-31.1c-17.1,0-31.1,14-31.1,31.1c0,17.1,14,31.1,31.1,31.1
				C524.4,709.1,538.4,695.1,538.4,678z"/>
			<path fill="#064717" d="M502.6,396.5c9.3,32.6-9.3,66.9-43.5,76.2c-6.2,1.6-12.4,1.6-17.1,1.6c-28,0-51.3-18.7-59.1-45.1
				c-9.3-32.6,9.3-66.9,43.5-76.2c4.7-1.6,10.9-1.6,17.1-1.6C471.5,351.4,494.9,370.1,502.6,396.5z M449.8,443.2
				c15.5-4.7,26.4-21.8,21.8-37.3c-4.7-14-17.1-23.3-29.5-23.3c-3.1,0-6.2,0-7.8,1.6c-15.5,4.7-26.4,21.8-21.8,37.3
				C417.1,437,434.2,447.8,449.8,443.2z"/>
			<path fill="#064717" d="M376.7,502.3c9.3,32.7-9.3,66.9-43.5,76.2c-4.7,1.5-10.9,1.5-15.6,1.5c-28,0-51.3-18.7-59.1-45.1
				c-9.3-32.7,9.3-66.9,42-76.2c4.7-1.5,10.9-1.5,17.1-1.5C345.6,457.2,368.9,475.8,376.7,502.3z M325.4,548.9
				c15.6-4.7,26.4-21.8,21.8-37.3c-4.7-14-15.6-23.3-29.5-23.3c-3.1,0-6.2,0-7.8,1.6c-15.5,4.7-26.4,21.8-21.8,37.3
				C292.7,542.7,309.8,552,325.4,548.9z"/>
		</g>
		<g>
		</g>
	</g>
</g>
</svg>
