<svg xmlns="http://www.w3.org/2000/svg" xmlns:xlink="http://www.w3.org/1999/xlink" version="1.1" x="0px" y="0px" viewBox="0 0 100 125" enable-background="new 0 0 100 100" xml:space="preserve"><g><g><path d="M49.058,19.988v-0.004V19.988z"/><path d="M93.536,35.065c-2.292-1.442-4.877-2.189-7.62-2.983c-1.414-0.411-2.885-0.838-4.291-1.368    c-6.244-2.343-11.841-5.797-16.591-8.848c-6.576-4.225-11.799-6.193-16.446-6.193c-3.794,0-7.07,1.328-10.006,4.059    c-3.889,3.62-6.375,8.465-8.777,13.152c-1.956,3.821-3.979,7.77-6.782,11.137c-3.015,3.628-6.544,6.864-9.959,9.994    c-0.684,0.629-1.367,1.253-2.047,1.886c-0.783,0.723-1.608,1.454-2.45,2.193c-2.604,2.3-5.296,4.675-7.133,7.311    c-2.47,3.537-1.47,15.195,0.905,18.776c2.063,3.105,7.813,4.248,11.303,4.493c0.968,0.067,1.964,0.103,2.972,0.103    c8.145,0,16.313-2.205,24.213-4.331l1.04-0.285c3.936-1.059,7.956-2.051,11.848-3.011c7.305-1.799,14.854-3.664,22.086-6.035    c4.773-1.568,13.721-5.157,19.996-11.635C102.072,57.003,101.321,39.954,93.536,35.065L93.536,35.065z M92.382,49.877    L92.382,49.877C84.564,57.951,72.678,60.82,62.188,63.35c-1.414,0.344-2.798,0.676-4.165,1.02    c-3.367,0.85-6.783,1.778-10.087,2.672c-6.003,1.632-12.208,3.312-18.393,4.607c-3.948,0.822-8.604,1.664-13.176,1.664    c-2.035,0-3.964-0.166-5.727-0.502c-2.016-0.384-3.92-1.174-5.129-2.13L5.5,70.692l-0.008-0.008l-0.067,0.039l0,0    c-0.012-0.012-0.023-0.031-0.035-0.055l-0.198-0.305c-1-1.569-1.158-2.158-0.344-3.308l0.051-0.075    c2.023-2.873,4.92-5.371,7.722-7.785c0.909-0.783,1.802-1.55,2.632-2.312c5.418-4.932,11.544-10.832,15.706-18.432    c0.588-1.071,1.197-2.292,1.833-3.581c3.494-7.023,7.833-15.757,16.211-15.792h0.055c5.258,0,9.993,3.146,14.182,5.92    c0.458,0.304,0.909,0.601,1.352,0.893c4.489,2.924,8.679,5.221,12.82,7.011c1.257,0.542,2.948,1.079,4.734,1.644    c5.501,1.735,11.729,3.707,12.907,7.916C95.678,44.688,94.809,47.111,92.382,49.877z"/></g><path d="M86.596,39.594c-3.872-1.715-8.156-2.514-12.085-4.205c-4.481-1.929-8.718-4.3-12.796-6.983   c-3.826-2.525-8.547-6.201-13.388-6.126c-7.746,0.126-11.556,11.587-14.642,17.191c-4.059,7.375-9.734,13.259-15.966,18.843   c-1.644,1.471-3.193,3.039-4.73,4.616c-1.182,1.205-4.817,3.189-2.213,5.047c1.529,1.091,4.035,0.865,5.813,0.806   c3.996-0.13,7.892-1.166,11.789-1.972c9.37-1.94,18.579-4.81,27.868-7.13c10.797-2.699,23.949-4.889,32.034-13.239   C91.314,42.973,90.563,41.361,86.596,39.594z M72.369,47.787c-3.106-0.213-5.604-2.348-8.592-2.94   c-2.798-0.557-5.453,0.269-7.975,1.47c-5.428,2.577-13.965,9.524-20.221,10.038c-0.008-0.471-0.012-0.937-0.016-1.403   c-0.016-1.348,14.733-9.556,16.155-11.093c1.944-2.11,2.689-3.201,0.206-5.055c-1.392-1.04-3.541-1.707-4.565-3.173   c-1.103-1.581-0.778-3.193,0.455-3.822c0.518-0.261,1.189-0.348,1.98-0.186c2.32,0.462,4.322,3.284,6.361,4.422   c2.734,1.537,5.572,2.924,8.457,4.169c2.979,1.281,6.109,2.217,9.074,3.466C77.333,45.218,75.918,48.02,72.369,47.787z"/></g><text x="0" y="115" fill="#000000" font-size="5px" font-weight="bold" font-family="'Helvetica Neue', Helvetica, Arial-Unicode, Arial, Sans-serif">Created by Adrijan Karavdic</text><text x="0" y="120" fill="#000000" font-size="5px" font-weight="bold" font-family="'Helvetica Neue', Helvetica, Arial-Unicode, Arial, Sans-serif">from the Noun Project</text></svg>