<?xml version="1.0" encoding="utf-8"?>
<!-- Generator: Adobe Illustrator 18.1.1, SVG Export Plug-In . SVG Version: 6.00 Build 0)  -->
<svg version="1.1" id="Layer_1" xmlns="http://www.w3.org/2000/svg" xmlns:xlink="http://www.w3.org/1999/xlink" x="0px" y="0px"
	 viewBox="0 0 800 933" enable-background="new 0 0 800 933" xml:space="preserve">
<g>
	<g id="XMLID_1_">
		<g>
			<path fill="#FCFBF0" d="M150.8,628.6c5.3,0,9.5-4.3,9.5-9.5c0-5.3-4.3-9.5-9.5-9.5c-5.3,0-9.5,4.3-9.5,9.5
				C141.3,624.4,145.6,628.6,150.8,628.6z M286.2,480.5v170.1H116.1V480.5H286.2z M217.6,619.1c0-5.3-4.3-9.5-9.5-9.5
				c-2.6,0-5,1.1-6.7,2.8c-1.7,1.7-2.8,4.1-2.8,6.7c0,2.6,1.1,5,2.8,6.8c1.7,1.7,4.1,2.8,6.7,2.8
				C213.3,628.6,217.6,624.4,217.6,619.1z M189,590.5c0-2.6-1.1-5-2.8-6.8c-1.7-1.7-4.1-2.8-6.7-2.8c-2.6,0-5,1.1-6.8,2.8
				c-0.3,0.3-0.6,0.7-0.9,1c-0.2,0.2-0.3,0.5-0.5,0.8c-0.9,1.4-1.4,3.1-1.4,4.9s0.5,3.5,1.4,5c0.2,0.3,0.3,0.5,0.5,0.8
				c0.3,0.4,0.6,0.7,0.9,1c1.7,1.7,4.1,2.8,6.8,2.8c2.6,0,5-1.1,6.7-2.8C187.9,595.5,189,593.1,189,590.5z"/>
			<polygon fill="#FCFBF0" points="408,534.1 408,650.6 303.7,650.6 303.7,480.5 354.4,480.5 			"/>
			<path fill="#FCFBF0" d="M456.8,319l120,120.1L456.5,559.4l-120-120.1L456.8,319z M541,438.2c0-5.3-4.3-9.5-9.5-9.5
				s-9.5,4.3-9.5,9.5c0,5.3,4.3,9.5,9.5,9.5S541,443.5,541,438.2z M504.5,420.8c0-5.3-4.3-9.5-9.5-9.5c-5.3,0-9.5,4.3-9.5,9.5
				c0,5.3,4.3,9.5,9.5,9.5C500.2,430.3,504.5,426,504.5,420.8z M487,457.3c0-5.3-4.3-9.5-9.5-9.5c-5.3,0-9.5,4.3-9.5,9.5
				c0,5.3,4.3,9.5,9.5,9.5C482.7,466.8,487,462.5,487,457.3z"/>
			<path fill="#FCFBF0" d="M620.2,314.2l119.1,120.6c-31.1,0.2-95.5-0.1-144.2-0.4c-0.1-0.2-0.3-0.4-0.4-0.6
				c-0.1-0.1-0.2-0.2-0.3-0.4c0-0.1-0.1-0.1-0.2-0.2l-119-119.1H620.2z"/>
			<path fill="#FCFBF0" d="M588.4,450.8L588.4,450.8c55.6,0.4,93.2,0.5,118.6,0.5c4,0,7.8,0,11.2,0c1.4,0,2.7,0,4,0
				c1.9,0,3.8,0,5.5,0c1.2,0,2.3,0,3.3,0c2.2,0,4.2,0,6,0L616,562.8H476.4L588.4,450.8z"/>
			<polygon fill="#FCFBF0" points="430.1,258.8 360.6,291 335.5,302.6 264.1,148.2 324,120.5 358.8,104.4 			"/>
			<path fill="#FCFBF0" d="M248.2,155.5l71.4,154.4l-154.4,71.4L93.8,226.9L248.2,155.5z M300.4,301.4c0-0.3,0-0.5,0-0.8
				c0-0.1,0-0.1,0-0.1c0-0.1,0-0.1,0-0.2c0-0.1,0-0.2,0-0.2c0-0.2,0-0.4-0.1-0.6c0-0.2-0.1-0.3-0.1-0.5c0-0.1-0.1-0.2-0.1-0.3
				c-0.1-0.2-0.1-0.4-0.2-0.6c-0.1-0.2-0.1-0.3-0.2-0.5c-0.1-0.3-0.3-0.5-0.4-0.8c-0.5-0.9-1.2-1.6-2-2.3c0,0,0,0,0,0
				c-0.2-0.2-0.4-0.3-0.6-0.4c-0.2-0.1-0.4-0.3-0.7-0.4c-0.2-0.1-0.5-0.2-0.7-0.3c0,0,0,0,0,0c-0.2-0.1-0.4-0.1-0.6-0.2
				c-0.1,0-0.1,0-0.1,0c-0.2-0.1-0.4-0.1-0.7-0.2c-0.2,0-0.3-0.1-0.5-0.1c-0.1,0-0.3,0-0.4-0.1c-0.3,0-0.5,0-0.8,0
				c-0.2,0-0.4,0-0.6,0c-0.2,0-0.4,0-0.7,0.1c0,0-0.1,0-0.1,0c-0.3,0-0.5,0.1-0.8,0.2c-0.3,0.1-0.5,0.1-0.8,0.2
				c-0.2,0.1-0.5,0.2-0.7,0.3c0,0,0,0,0,0c-1.2,0.6-2.2,1.4-3,2.4c-0.2,0.2-0.3,0.4-0.4,0.6c-0.1,0.2-0.2,0.3-0.3,0.5c0,0,0,0,0,0.1
				c-0.1,0.1-0.1,0.2-0.2,0.3c-0.2,0.4-0.3,0.7-0.4,1.1c0,0.1-0.1,0.2-0.1,0.4c0,0,0,0.1,0,0.1c-0.1,0.4-0.2,0.7-0.2,1.1
				c0,0.1,0,0.2,0,0.4c0,0,0,0.1,0,0.1c0,0.3,0,0.6,0,1c0,0.1,0,0.1,0,0.2c0,0.1,0,0.1,0,0.2c0,0.2,0,0.5,0.1,0.7
				c0,0.1,0.1,0.3,0.1,0.4c0,0.1,0.1,0.3,0.1,0.4c0,0.1,0.1,0.3,0.1,0.4c0,0.1,0.1,0.2,0.1,0.3c0,0.1,0.1,0.1,0.1,0.2
				c0.1,0.2,0.2,0.4,0.3,0.6c0.2,0.4,0.4,0.7,0.7,1.1c0.1,0.2,0.3,0.4,0.5,0.6c0,0,0,0,0,0c0.2,0.2,0.3,0.3,0.5,0.5
				c0.1,0.1,0.3,0.2,0.4,0.3c0.1,0.1,0.2,0.2,0.3,0.2c0,0,0,0,0,0c0.2,0.1,0.4,0.3,0.5,0.4c0,0,0.1,0.1,0.1,0.1
				c0.2,0.1,0.4,0.2,0.5,0.3c0.2,0.1,0.5,0.2,0.7,0.3c0,0,0,0,0,0c0.2,0.1,0.4,0.2,0.6,0.2c0.1,0,0.1,0,0.1,0
				c0.2,0.1,0.4,0.1,0.7,0.2c0.1,0,0.3,0,0.4,0.1c0.2,0,0.3,0,0.5,0.1c0.3,0,0.5,0,0.8,0c0.2,0,0.4,0,0.6,0c0.2,0,0.5,0,0.7-0.1
				c0.1,0,0.1,0,0.2,0c0.2,0,0.5-0.1,0.7-0.2c0.3-0.1,0.5-0.1,0.8-0.2c0.2-0.1,0.5-0.2,0.7-0.3c0,0,0,0,0,0c0.2-0.1,0.4-0.2,0.6-0.3
				c0.1,0,0.1-0.1,0.2-0.1c0.1-0.1,0.3-0.2,0.4-0.3c0.6-0.4,1.1-0.9,1.6-1.5c0.1-0.1,0.2-0.2,0.2-0.3c0.1-0.1,0.1-0.2,0.2-0.3
				c0.1-0.1,0.2-0.2,0.2-0.3c0.1-0.1,0.1-0.2,0.2-0.4c0.1-0.1,0.1-0.2,0.2-0.4c0.1-0.1,0.1-0.2,0.2-0.4c0.1-0.1,0.1-0.2,0.1-0.4
				c0.1-0.3,0.2-0.5,0.2-0.8c0.1-0.4,0.2-0.8,0.2-1.2C300.4,301.8,300.4,301.6,300.4,301.4C300.4,301.5,300.4,301.5,300.4,301.4z
				 M273.4,279.3c0.1-0.5,0.2-1.1,0.2-1.6c0-1-0.2-2-0.5-2.9c-0.5-1.5-1.5-2.7-2.7-3.7c0,0,0,0,0,0c-0.2-0.2-0.4-0.3-0.6-0.4
				c0,0,0,0,0,0c-0.2-0.1-0.3-0.2-0.5-0.3c-0.1-0.1-0.2-0.1-0.4-0.2c-0.2-0.1-0.3-0.2-0.5-0.2c0,0,0,0,0,0c-0.2-0.1-0.4-0.1-0.6-0.2
				c-0.1,0-0.1,0-0.2-0.1c-0.2-0.1-0.4-0.1-0.6-0.2c-0.1,0-0.2,0-0.3,0c-0.2,0-0.4-0.1-0.5-0.1c-0.3,0-0.5,0-0.8,0c0,0,0,0,0,0
				c-0.2,0-0.4,0-0.6,0c-0.2,0-0.4,0-0.7,0.1c-0.1,0-0.1,0-0.2,0c-0.2,0-0.5,0.1-0.7,0.2c-0.2,0.1-0.5,0.1-0.7,0.2
				c-0.1,0-0.2,0.1-0.3,0.1c-0.1,0-0.1,0.1-0.2,0.1c-0.2,0.1-0.3,0.1-0.5,0.2c-0.2,0.1-0.3,0.2-0.5,0.3c-0.2,0.1-0.4,0.3-0.6,0.4
				c0,0,0,0,0,0c-0.6,0.5-1.2,1-1.6,1.6c-0.2,0.2-0.3,0.4-0.4,0.6c-0.1,0.2-0.3,0.4-0.4,0.7c-0.1,0.2-0.2,0.5-0.3,0.7c0,0,0,0,0,0
				c-0.1,0.2-0.1,0.4-0.2,0.6c0,0.1,0,0.1,0,0.1c-0.1,0.2-0.1,0.4-0.2,0.7c0,0.1-0.1,0.3-0.1,0.4c0,0.2-0.1,0.3-0.1,0.5
				c0,0.3,0,0.5,0,0.8c0,0.2,0,0.4,0,0.6c0,0.2,0,0.5,0.1,0.7c0,0.1,0,0.1,0,0.2c0,0.2,0.1,0.5,0.2,0.7c0.1,0.3,0.1,0.5,0.2,0.8
				c0.1,0.2,0.2,0.5,0.3,0.7c0,0,0,0,0,0c0.6,1.2,1.4,2.2,2.4,3c0.2,0.2,0.4,0.3,0.6,0.4c0.2,0.1,0.4,0.3,0.7,0.4
				c0.2,0.1,0.5,0.2,0.7,0.3c0.2,0.1,0.4,0.2,0.6,0.2c0.1,0,0.1,0,0.2,0.1c0.2,0.1,0.4,0.1,0.6,0.2c0.1,0,0.3,0,0.4,0.1
				c0.1,0,0.3,0.1,0.5,0.1c0.3,0,0.5,0,0.8,0c0.2,0,0.4,0,0.6,0c0.2,0,0.5,0,0.7-0.1c0.1,0,0.1,0,0.2,0c0.3,0,0.5-0.1,0.8-0.2
				c0.3-0.1,0.5-0.1,0.8-0.2c0.2-0.1,0.5-0.2,0.7-0.3c0,0,0,0,0,0c1.2-0.6,2.2-1.4,3-2.4c0.6-0.8,1.1-1.7,1.4-2.7
				C273.3,279.8,273.4,279.6,273.4,279.3z M250.2,304.6c0-0.2,0-0.4,0-0.6c0-0.2,0-0.5-0.1-0.7c0-0.1,0-0.1,0-0.2
				c0-0.2-0.1-0.5-0.2-0.7c-0.1-0.2-0.1-0.4-0.2-0.6c0,0,0-0.1,0-0.1c0-0.1-0.1-0.2-0.1-0.3c-0.1-0.2-0.2-0.4-0.3-0.6
				c-0.1-0.2-0.2-0.4-0.3-0.6l0,0c-0.1-0.2-0.3-0.4-0.4-0.6c0,0,0,0,0,0c-0.2-0.2-0.3-0.4-0.5-0.6c0,0,0,0,0,0
				c-0.2-0.2-0.3-0.4-0.5-0.5c-0.2-0.2-0.4-0.4-0.7-0.6c-0.2-0.1-0.4-0.3-0.5-0.4c-0.1,0-0.1-0.1-0.1-0.1c-0.2-0.1-0.4-0.2-0.5-0.3
				c-0.2-0.1-0.5-0.2-0.7-0.3c0,0,0,0,0,0c-0.2-0.1-0.4-0.2-0.6-0.2c-0.1,0-0.1,0-0.1,0c-0.2-0.1-0.4-0.1-0.7-0.2
				c-0.2,0-0.3-0.1-0.4-0.1c-0.1,0-0.3,0-0.4-0.1c-0.3,0-0.5,0-0.8,0c-0.2,0-0.4,0-0.6,0c-0.2,0-0.4,0-0.7,0.1c0,0-0.1,0-0.1,0
				c-0.3,0-0.5,0.1-0.8,0.2c-0.3,0.1-0.5,0.1-0.8,0.2c-0.2,0.1-0.5,0.2-0.7,0.3c0,0,0,0,0,0c-0.2,0.1-0.5,0.2-0.7,0.4
				c-0.2,0.1-0.4,0.3-0.6,0.4c-0.2,0.2-0.4,0.3-0.6,0.5c-0.2,0.2-0.3,0.3-0.5,0.5c-0.1,0.1-0.2,0.2-0.3,0.4
				c-0.1,0.1-0.1,0.1-0.2,0.2c-0.2,0.2-0.3,0.4-0.4,0.6c0,0,0,0,0,0c-0.1,0.2-0.3,0.4-0.4,0.7c-0.1,0.2-0.2,0.4-0.3,0.6
				c-0.1,0.3-0.2,0.6-0.3,1c-0.1,0.2-0.1,0.3-0.1,0.5c0,0,0,0,0,0.1c0,0.1,0,0.2-0.1,0.3c0,0.2-0.1,0.3-0.1,0.5c0,0.3,0,0.5,0,0.8
				c0,0,0,0,0,0c0,0.2,0,0.4,0,0.6c0,0.2,0,0.4,0.1,0.7c0,0.1,0,0.1,0,0.2c0,0.2,0.1,0.5,0.2,0.7c0.1,0.2,0.1,0.4,0.2,0.6
				c0,0,0,0.1,0,0.1c0,0.1,0.1,0.2,0.1,0.3c0.4,0.9,0.9,1.8,1.5,2.5c0.2,0.2,0.3,0.3,0.5,0.5c0.1,0.1,0.2,0.2,0.4,0.3
				c0.1,0.1,0.1,0.1,0.2,0.2c0.2,0.2,0.4,0.3,0.6,0.4c0,0,0,0,0,0c0.2,0.1,0.4,0.3,0.7,0.4c0.2,0.1,0.4,0.2,0.6,0.3
				c0.3,0.1,0.6,0.2,1,0.3c0.2,0.1,0.4,0.1,0.5,0.1c0,0,0.1,0,0.1,0c0.1,0,0.2,0,0.3,0.1c0.2,0,0.4,0.1,0.5,0.1c0.3,0,0.5,0,0.8,0
				c0,0,0,0,0,0c0.2,0,0.4,0,0.6,0c0.2,0,0.4,0,0.7-0.1c0.1,0,0.1,0,0.2,0c0.2,0,0.5-0.1,0.7-0.2c0.2,0,0.4-0.1,0.6-0.2
				c0,0,0.1,0,0.1,0c0.1,0,0.2-0.1,0.3-0.1c0.9-0.4,1.8-0.9,2.5-1.6c0.2-0.2,0.3-0.3,0.5-0.5c0.1-0.1,0.2-0.2,0.3-0.4
				c0.1-0.1,0.1-0.2,0.2-0.2c0.2-0.2,0.3-0.4,0.4-0.6c0,0,0,0,0,0c0.1-0.2,0.3-0.4,0.4-0.7c0.1-0.2,0.2-0.4,0.3-0.6
				c0.1-0.3,0.2-0.6,0.3-1c0.1-0.2,0.1-0.3,0.1-0.5c0,0,0,0,0-0.1c0-0.1,0-0.2,0.1-0.3c0-0.2,0-0.4,0.1-0.5
				C250.2,305.1,250.2,304.9,250.2,304.6C250.2,304.6,250.2,304.6,250.2,304.6z"/>
			<path d="M764.5,436.9c1.6,1.6,2.4,3.7,2.4,6c-0.1,2.2-1,4.4-2.7,5.9L624.8,577.1c-1.5,1.4-3.5,2.2-5.6,2.2H456.5
				c-0.5,0-1.1,0-1.6-0.2c-0.3-0.1-0.6-0.2-0.9-0.3c-0.2-0.1-0.4-0.1-0.6-0.2c-0.4-0.2-0.7-0.3-1-0.6c-0.1-0.1-0.3-0.1-0.4-0.2
				c-0.4-0.3-0.9-0.6-1.2-1l-26.2-26.3V667H302.6h-15.4H99.6V464h187.7h15.4h35.3l-18.9-18.9c-3.2-3.2-3.2-8.4,0-11.6L451,301.6
				c0.4-0.4,0.9-0.8,1.4-1.1c1.5-1.7,3.7-2.7,6.1-2.7h165.2c2.2,0,4.3,0.9,5.8,2.5L764.5,436.9z M739.3,434.8L620.2,314.2H475.2
				l119,119.1c0.1,0.1,0.1,0.1,0.2,0.2c0.1,0.1,0.2,0.2,0.3,0.4c0.2,0.2,0.3,0.4,0.4,0.6C643.8,434.8,708.2,435,739.3,434.8z
				 M616,562.8l121.1-111.6c-1.9,0-3.9,0-6,0c-1.1,0-2.2,0-3.3,0c-1.7,0-3.6,0-5.5,0c-1.3,0-2.6,0-4,0c-3.5,0-7.2,0-11.2,0
				c-25.4,0-63-0.1-118.6-0.5v0l-112,112H616z M576.8,439.1L456.8,319L336.5,439.3l120,120.1L576.8,439.1z M408,650.6V534.1
				l-53.6-53.7h-50.6v170.1H408z M286.2,650.6V480.5H116.1v170.1H286.2z"/>
			<path d="M595.2,434.5c-0.1-0.2-0.3-0.4-0.4-0.6C594.9,434.1,595,434.3,595.2,434.5z"/>
			<circle cx="531.4" cy="438.2" r="9.5"/>
			<path d="M494.9,411.2c5.3,0,9.5,4.3,9.5,9.5c0,5.3-4.3,9.5-9.5,9.5c-5.3,0-9.5-4.3-9.5-9.5C485.4,415.5,489.7,411.2,494.9,411.2z
				"/>
			<circle cx="477.5" cy="457.3" r="9.5"/>
			<path d="M366.8,82.6L452,266.8L341.5,318l-184.3,85.2L72,218.9l170.3-78.8v0L366.8,82.6z M430.2,258.8l-71.4-154.4l0,0L324,120.5
				l-59.9,27.7l71.4,154.4l0,0l25.1-11.6L430.2,258.8L430.2,258.8L430.2,258.8z M319.6,309.9l-71.4-154.4L93.8,226.9l71.4,154.4
				L319.6,309.9z"/>
			<polygon points="430.1,258.8 430.1,258.8 360.6,291 			"/>
			<path d="M299.9,298c-0.1-0.2-0.1-0.3-0.2-0.5C299.7,297.7,299.8,297.8,299.9,298z"/>
			<path d="M297.2,294.4c0.8,0.6,1.5,1.4,2,2.3C298.7,295.8,298,295,297.2,294.4z"/>
			<path d="M297.1,294.4c-0.2-0.2-0.4-0.3-0.6-0.4C296.7,294.1,297,294.2,297.1,294.4z"/>
			<path d="M296.5,308.1c0.1-0.1,0.3-0.2,0.4-0.3C296.8,307.9,296.7,308,296.5,308.1z"/>
			<path d="M296.5,294c-0.2-0.1-0.4-0.3-0.7-0.4C296.1,293.7,296.3,293.8,296.5,294z"/>
			<path d="M295.7,308.6c0.2-0.1,0.4-0.2,0.6-0.3C296.1,308.4,295.9,308.5,295.7,308.6z"/>
			<path d="M295.9,293.6c-0.2-0.1-0.5-0.2-0.7-0.3C295.4,293.3,295.6,293.5,295.9,293.6z"/>
			<path d="M295,308.9c0.2-0.1,0.5-0.2,0.7-0.3C295.5,308.7,295.2,308.8,295,308.9z"/>
			<path d="M295.1,293.2c-0.2-0.1-0.4-0.1-0.6-0.2C294.7,293.1,294.9,293.2,295.1,293.2z"/>
			<path d="M294.2,309.1c0.3-0.1,0.5-0.1,0.8-0.2C294.7,309,294.5,309.1,294.2,309.1z"/>
			<path d="M294.4,293c-0.2-0.1-0.4-0.1-0.7-0.2C294,292.9,294.2,292.9,294.4,293z"/>
			<path d="M293.5,309.3c0.2,0,0.5-0.1,0.7-0.2C294,309.2,293.8,309.2,293.5,309.3z"/>
			<path d="M292.6,309.4c0.2,0,0.5,0,0.7-0.1C293.1,309.4,292.9,309.4,292.6,309.4z"/>
			<path d="M293.3,292.8c-0.1,0-0.3,0-0.4-0.1C293,292.7,293.1,292.7,293.3,292.8z"/>
			<path d="M292.9,292.7c-0.3,0-0.5,0-0.8,0C292.3,292.6,292.6,292.7,292.9,292.7z"/>
			<path d="M290.6,292.8c0,0,0.1,0,0.1,0c0.2,0,0.4-0.1,0.7-0.1c0.2,0,0.4,0,0.6,0c0.3,0,0.5,0,0.8,0c0.1,0,0.3,0,0.4,0.1
				c0.1,0,0.3,0,0.5,0.1c0.2,0,0.4,0.1,0.7,0.2c0,0,0.1,0,0.1,0c0.2,0.1,0.4,0.1,0.6,0.2c0,0,0,0,0,0c0.2,0.1,0.5,0.2,0.7,0.3
				c0.2,0.1,0.5,0.2,0.7,0.4c0.2,0.1,0.4,0.3,0.6,0.4c0,0,0,0,0,0c0.8,0.6,1.5,1.4,2,2.3c0.2,0.3,0.3,0.5,0.4,0.8
				c0.1,0.2,0.1,0.3,0.2,0.5c0.1,0.2,0.1,0.4,0.2,0.6c0,0.1,0.1,0.2,0.1,0.3c0,0.1,0.1,0.3,0.1,0.5c0,0.2,0.1,0.4,0.1,0.6
				c0,0.1,0,0.2,0,0.2c0,0.1,0,0.2,0,0.4c0,0.1,0,0.3,0,0.4c0,0.1,0,0.3,0,0.4c0,0,0,0.1,0,0.1c0,0.1,0,0.3,0,0.4
				c-0.1,0.4-0.1,0.8-0.2,1.2c-0.1,0.3-0.1,0.5-0.2,0.8c-0.1,0.1-0.1,0.3-0.1,0.4c-0.1,0.1-0.1,0.2-0.2,0.4
				c-0.1,0.1-0.1,0.2-0.2,0.4c-0.1,0.1-0.1,0.2-0.2,0.4c-0.1,0.1-0.1,0.2-0.2,0.3c-0.1,0.1-0.1,0.2-0.2,0.3
				c-0.1,0.1-0.2,0.2-0.2,0.3c-0.5,0.6-1,1.1-1.6,1.5c-0.1,0.1-0.3,0.2-0.4,0.3c-0.1,0.1-0.1,0.1-0.2,0.1c-0.2,0.1-0.4,0.2-0.6,0.3
				c0,0,0,0,0,0c-0.2,0.1-0.4,0.2-0.7,0.3c-0.2,0.1-0.5,0.2-0.8,0.2c-0.2,0.1-0.5,0.1-0.7,0.2c-0.1,0-0.1,0-0.2,0
				c-0.2,0-0.4,0.1-0.7,0.1c-0.2,0-0.4,0-0.6,0c-0.3,0-0.5,0-0.8,0c-0.2,0-0.3,0-0.5-0.1c-0.1,0-0.3,0-0.4-0.1
				c-0.2,0-0.4-0.1-0.7-0.2c0,0-0.1,0-0.1,0c-0.2-0.1-0.4-0.1-0.6-0.2c0,0,0,0,0,0c-0.2-0.1-0.5-0.2-0.7-0.3
				c-0.2-0.1-0.4-0.2-0.5-0.3c0,0-0.1-0.1-0.1-0.1c-0.2-0.1-0.4-0.2-0.5-0.4c0,0,0,0,0,0c-0.1-0.1-0.2-0.1-0.3-0.2
				c-0.1-0.1-0.3-0.2-0.4-0.3c-0.2-0.2-0.4-0.3-0.5-0.5c0,0,0,0,0,0c-0.2-0.2-0.3-0.4-0.5-0.6c-0.2-0.3-0.5-0.7-0.7-1.1
				c-0.1-0.2-0.2-0.4-0.3-0.6c0-0.1-0.1-0.1-0.1-0.2c0-0.1-0.1-0.2-0.1-0.3c-0.1-0.1-0.1-0.3-0.1-0.4c0-0.1-0.1-0.3-0.1-0.4
				c0-0.1-0.1-0.3-0.1-0.4c0-0.2-0.1-0.5-0.1-0.7c0-0.1,0-0.1,0-0.2c0-0.3,0-0.5,0-0.8c0-0.1,0-0.2,0-0.4c0,0,0-0.1,0-0.1
				c0-0.1,0-0.2,0-0.4c0-0.4,0.1-0.8,0.2-1.1c0-0.1,0-0.1,0-0.1c0-0.1,0.1-0.2,0.1-0.4c0.1-0.4,0.3-0.8,0.4-1.1
				c0-0.1,0.1-0.2,0.2-0.3c0,0,0,0,0-0.1c0.1-0.2,0.2-0.3,0.3-0.5c0.1-0.2,0.3-0.4,0.4-0.6c0.8-1,1.8-1.9,3-2.4c0,0,0,0,0,0
				c0.2-0.1,0.5-0.2,0.7-0.3c0.2-0.1,0.5-0.2,0.8-0.2C290.1,292.9,290.4,292.8,290.6,292.8z"/>
			<path d="M291.2,309.4c0.3,0,0.5,0,0.8,0C291.8,309.4,291.5,309.4,291.2,309.4z"/>
			<path d="M291.4,292.7c-0.2,0-0.4,0-0.7,0.1C291,292.7,291.2,292.7,291.4,292.7z"/>
			<path d="M290.8,309.3c0.1,0,0.3,0,0.5,0.1C291.1,309.4,290.9,309.4,290.8,309.3z"/>
			<path d="M290.6,292.8c-0.3,0.1-0.5,0.1-0.8,0.2C290.1,292.9,290.4,292.8,290.6,292.8z"/>
			<path d="M289.7,309.1c0.2,0.1,0.4,0.1,0.7,0.2C290.1,309.2,289.9,309.1,289.7,309.1z"/>
			<path d="M289.9,292.9c-0.3,0.1-0.5,0.1-0.8,0.2C289.3,293.1,289.6,293,289.9,292.9z"/>
			<path d="M289,308.8c0.2,0.1,0.4,0.2,0.6,0.2C289.3,309,289.1,308.9,289,308.8z"/>
			<path d="M289.1,293.2c-0.2,0.1-0.5,0.2-0.7,0.3C288.6,293.4,288.9,293.3,289.1,293.2z"/>
			<path d="M288.2,308.5c0.2,0.1,0.5,0.2,0.7,0.3C288.7,308.7,288.5,308.6,288.2,308.5z"/>
			<path d="M287.7,308.2c0.2,0.1,0.4,0.2,0.5,0.3C288,308.4,287.9,308.3,287.7,308.2z"/>
			<path d="M287,307.8c0.2,0.1,0.4,0.2,0.5,0.4C287.4,308,287.2,307.9,287,307.8z"/>
			<path d="M285.4,295.9c0.8-1,1.8-1.9,3-2.4C287.2,294.1,286.2,294.9,285.4,295.9z"/>
			<path d="M285.8,306.7c0.2,0.2,0.3,0.3,0.5,0.5C286.2,307,286,306.9,285.8,306.7z"/>
			<path d="M285.3,306c0.1,0.2,0.3,0.4,0.5,0.6C285.6,306.4,285.5,306.2,285.3,306z"/>
			<path d="M285.4,295.9c-0.2,0.2-0.3,0.4-0.4,0.6C285.1,296.3,285.2,296.1,285.4,295.9z"/>
			<path d="M285,296.5c-0.1,0.2-0.2,0.3-0.3,0.5C284.8,296.9,284.9,296.7,285,296.5z"/>
			<path d="M273.4,279.3c0.1-0.7,0.2-1.4,0.1-2.2c-0.1-0.8-0.2-1.6-0.5-2.4c0.4,0.9,0.5,1.9,0.5,2.9
				C273.6,278.2,273.5,278.8,273.4,279.3z"/>
			<path d="M273.2,280.1c0.1-0.2,0.1-0.5,0.2-0.8C273.4,279.6,273.3,279.8,273.2,280.1z"/>
			<path d="M271.8,282.8c0.6-0.8,1.1-1.7,1.4-2.7C272.9,281.1,272.5,282,271.8,282.8z"/>
			<path d="M270.3,271.1c1.2,0.9,2.2,2.2,2.7,3.7C272.5,273.3,271.5,272,270.3,271.1z"/>
			<path d="M271.8,282.8c-0.8,1-1.8,1.9-3,2.4C270,284.7,271,283.8,271.8,282.8z"/>
			<path d="M270.3,271.1c-0.2-0.1-0.4-0.3-0.6-0.4C269.9,270.8,270.1,270.9,270.3,271.1z"/>
			<path d="M269.7,270.6c-0.2-0.1-0.3-0.2-0.5-0.3C269.4,270.4,269.5,270.5,269.7,270.6z"/>
			<path d="M268.8,270.1c-0.2-0.1-0.3-0.2-0.5-0.2C268.5,270,268.7,270.1,268.8,270.1z"/>
			<path d="M268.1,285.5c0.2-0.1,0.5-0.2,0.7-0.3C268.6,285.4,268.4,285.5,268.1,285.5z"/>
			<path d="M268.3,269.9c-0.2-0.1-0.4-0.1-0.6-0.2C267.9,269.8,268.1,269.8,268.3,269.9z"/>
			<path d="M267.4,285.8c0.3-0.1,0.5-0.1,0.8-0.2C267.9,285.6,267.6,285.7,267.4,285.8z"/>
			<path d="M267.5,269.6c-0.2-0.1-0.4-0.1-0.6-0.2C267.1,269.5,267.3,269.6,267.5,269.6z"/>
			<path d="M266.6,286c0.3,0,0.5-0.1,0.8-0.2C267.1,285.9,266.9,285.9,266.6,286z"/>
			<path d="M263.7,269.5c0.1,0,0.1,0,0.2,0c0.2,0,0.4-0.1,0.7-0.1c0.2,0,0.4,0,0.6,0c0,0,0,0,0,0c0.3,0,0.5,0,0.8,0
				c0.2,0,0.4,0,0.5,0.1c0.1,0,0.2,0,0.3,0c0.2,0,0.4,0.1,0.6,0.2c0.1,0,0.1,0,0.2,0.1c0.2,0.1,0.4,0.1,0.6,0.2c0,0,0,0,0,0
				c0.2,0.1,0.3,0.1,0.5,0.2c0.1,0.1,0.2,0.1,0.4,0.2c0.2,0.1,0.3,0.2,0.5,0.3c0,0,0,0,0,0c0.2,0.1,0.4,0.3,0.6,0.4c0,0,0,0,0,0
				c1.2,0.9,2.2,2.2,2.7,3.7c0.3,0.7,0.4,1.5,0.5,2.4c0.1,0.8,0,1.5-0.1,2.2c-0.1,0.3-0.1,0.5-0.2,0.8c-0.3,1-0.8,1.9-1.4,2.7
				c-0.8,1-1.8,1.9-3,2.4c0,0,0,0,0,0c-0.2,0.1-0.5,0.2-0.7,0.3c-0.2,0.1-0.5,0.2-0.8,0.2c-0.2,0.1-0.5,0.1-0.8,0.2c0,0-0.1,0-0.2,0
				c-0.2,0-0.4,0.1-0.7,0.1c-0.2,0-0.4,0-0.6,0c-0.3,0-0.5,0-0.8,0c-0.2,0-0.3,0-0.5-0.1c-0.2,0-0.3,0-0.4-0.1
				c-0.2,0-0.4-0.1-0.6-0.2c-0.1,0-0.1,0-0.2-0.1c-0.2-0.1-0.4-0.1-0.6-0.2c-0.2-0.1-0.5-0.2-0.7-0.3c-0.2-0.1-0.5-0.2-0.7-0.4
				c-0.2-0.1-0.4-0.3-0.6-0.4c-1-0.8-1.8-1.8-2.4-3c0,0,0,0,0,0c-0.1-0.2-0.2-0.4-0.3-0.7c-0.1-0.2-0.2-0.5-0.2-0.8
				c-0.1-0.2-0.1-0.5-0.2-0.7c0-0.1,0-0.1,0-0.2c0-0.2-0.1-0.4-0.1-0.7c0-0.2,0-0.4,0-0.6c0-0.3,0-0.5,0-0.8c0-0.2,0-0.3,0.1-0.5
				c0-0.1,0-0.3,0.1-0.4c0-0.2,0.1-0.4,0.2-0.7c0,0,0-0.1,0-0.1c0.1-0.2,0.1-0.4,0.2-0.6c0,0,0,0,0,0c0.1-0.2,0.2-0.5,0.3-0.7
				c0.1-0.2,0.2-0.5,0.4-0.7c0.1-0.2,0.3-0.4,0.4-0.6c0.5-0.6,1-1.1,1.6-1.6c0,0,0,0,0,0c0.2-0.1,0.4-0.3,0.6-0.4
				c0.2-0.1,0.3-0.2,0.5-0.3c0.2-0.1,0.3-0.2,0.5-0.2c0.1,0,0.1-0.1,0.2-0.1c0.1,0,0.2-0.1,0.3-0.1c0.2-0.1,0.5-0.2,0.7-0.2
				C263.2,269.5,263.5,269.5,263.7,269.5z"/>
			<path d="M265.8,286.1c0.2,0,0.4,0,0.7-0.1C266.2,286,266,286,265.8,286.1z"/>
			<path d="M266,269.4c-0.3,0-0.5,0-0.8,0C265.5,269.3,265.7,269.3,266,269.4z"/>
			<path d="M264.4,286c0.3,0,0.5,0,0.8,0C264.9,286.1,264.6,286.1,264.4,286z"/>
			<path d="M264.6,269.3c-0.2,0-0.4,0-0.7,0.1C264.1,269.4,264.4,269.4,264.6,269.3z"/>
			<path d="M263.9,286c0.1,0,0.3,0.1,0.5,0.1C264.2,286,264.1,286,263.9,286z"/>
			<polygon points="264.1,148.2 335.5,302.6 335.5,302.6 264.1,148.2 324,120.5 			"/>
			<path d="M263.7,269.5c-0.2,0-0.5,0.1-0.7,0.2C263.2,269.5,263.5,269.5,263.7,269.5z"/>
			<path d="M262.9,285.8c0.2,0.1,0.4,0.1,0.6,0.2C263.3,285.9,263.1,285.8,262.9,285.8z"/>
			<path d="M262.1,285.5c0.2,0.1,0.4,0.2,0.6,0.2C262.5,285.6,262.3,285.6,262.1,285.5z"/>
			<path d="M261.4,285.2c0.2,0.1,0.5,0.2,0.7,0.3C261.9,285.4,261.6,285.3,261.4,285.2z"/>
			<path d="M260.7,284.8c0.2,0.1,0.4,0.3,0.7,0.4C261.1,285.1,260.9,284.9,260.7,284.8z"/>
			<path d="M260.8,270.5c-0.2,0.1-0.4,0.3-0.6,0.4C260.4,270.8,260.6,270.7,260.8,270.5z"/>
			<path d="M260.1,284.4c0.2,0.1,0.4,0.3,0.6,0.4C260.5,284.7,260.3,284.5,260.1,284.4z"/>
			<path d="M258.5,272.6c0.5-0.6,1-1.1,1.6-1.6C259.6,271.4,259,272,258.5,272.6z"/>
			<path d="M260.1,284.4c-1-0.8-1.9-1.8-2.4-3C258.2,282.5,259.1,283.6,260.1,284.4z"/>
			<path d="M258.5,272.6c-0.2,0.2-0.3,0.4-0.4,0.6C258.2,273,258.4,272.8,258.5,272.6z"/>
			<path d="M258.1,273.2c-0.1,0.2-0.3,0.4-0.4,0.7C257.8,273.7,258,273.4,258.1,273.2z"/>
			<path d="M257.7,273.9c-0.1,0.2-0.2,0.5-0.3,0.7C257.5,274.4,257.6,274.1,257.7,273.9z"/>
			<path d="M257.4,280.6c0.1,0.2,0.2,0.5,0.3,0.7C257.5,281.1,257.4,280.9,257.4,280.6z"/>
			<path d="M257.4,274.6c-0.1,0.2-0.1,0.4-0.2,0.6C257.2,275,257.3,274.8,257.4,274.6z"/>
			<path d="M257.1,279.9c0.1,0.3,0.1,0.5,0.2,0.8C257.2,280.4,257.2,280.1,257.1,279.9z"/>
			<path d="M257.1,275.4c-0.1,0.2-0.1,0.4-0.2,0.7C257,275.8,257.1,275.6,257.1,275.4z"/>
			<path d="M256.9,279.2c0,0.2,0.1,0.5,0.2,0.7C257,279.6,257,279.4,256.9,279.2z"/>
			<path d="M256.9,276.4c0,0.1-0.1,0.3-0.1,0.5C256.9,276.7,256.9,276.6,256.9,276.4z"/>
			<path d="M256.8,278.3c0,0.2,0,0.5,0.1,0.7C256.9,278.8,256.9,278.5,256.8,278.3z"/>
			<path d="M256.9,276.9c0,0.3,0,0.5,0,0.8C256.8,277.4,256.8,277.2,256.9,276.9z"/>
			<path d="M250.2,305.4c0-0.3,0-0.5,0-0.8C250.2,304.9,250.2,305.1,250.2,305.4z"/>
			<path d="M250.2,304c0-0.2,0-0.5-0.1-0.7C250.2,303.5,250.2,303.7,250.2,304z"/>
			<path d="M250.1,303.1c0-0.2-0.1-0.5-0.2-0.7C250,302.6,250.1,302.9,250.1,303.1z"/>
			<path d="M249.9,306.9c0.1-0.2,0.1-0.3,0.1-0.5C250,306.5,250,306.7,249.9,306.9z"/>
			<path d="M249.9,302.4c-0.1-0.2-0.1-0.4-0.2-0.6C249.8,302,249.9,302.2,249.9,302.4z"/>
			<path d="M249.3,308.4c0.1-0.2,0.2-0.4,0.3-0.6C249.5,308,249.4,308.2,249.3,308.4z"/>
			<path d="M249.4,300.8c-0.1-0.2-0.2-0.4-0.3-0.6C249.1,300.4,249.2,300.6,249.4,300.8z"/>
			<path d="M248.9,309c0.1-0.2,0.3-0.4,0.4-0.7C249.2,308.6,249.1,308.8,248.9,309z"/>
			<path d="M249,300.2c-0.1-0.2-0.3-0.4-0.4-0.6C248.7,299.8,248.9,300,249,300.2z"/>
			<path d="M248.5,309.7c0.2-0.2,0.3-0.4,0.4-0.6C248.8,309.3,248.7,309.5,248.5,309.7z"/>
			<path d="M248.6,299.5c-0.2-0.2-0.3-0.4-0.5-0.6C248.3,299.1,248.4,299.3,248.6,299.5z"/>
			<path d="M248,310.3c0.1-0.1,0.2-0.2,0.3-0.4C248.2,310,248.1,310.1,248,310.3z"/>
			<path d="M247.6,298.4c0.2,0.2,0.3,0.3,0.5,0.5C247.9,298.7,247.7,298.6,247.6,298.4z"/>
			<path d="M248,310.3c-0.2,0.2-0.3,0.3-0.5,0.5C247.7,310.6,247.8,310.4,248,310.3z"/>
			<path d="M246.9,297.8c-0.2-0.1-0.4-0.2-0.5-0.4C246.5,297.6,246.7,297.7,246.9,297.8z"/>
			<path d="M246.2,297.4c-0.2-0.1-0.4-0.2-0.5-0.3C245.9,297.2,246,297.3,246.2,297.4z"/>
			<path d="M245.7,297.1c-0.2-0.1-0.5-0.2-0.7-0.3C245.2,296.9,245.4,297,245.7,297.1z"/>
			<path d="M244.9,296.8c-0.2-0.1-0.4-0.2-0.6-0.2C244.6,296.6,244.8,296.7,244.9,296.8z"/>
			<path d="M244.1,312.6c0.2,0,0.4-0.1,0.6-0.2C244.5,312.5,244.3,312.6,244.1,312.6z"/>
			<path d="M244.2,296.5c-0.2-0.1-0.4-0.1-0.7-0.2C243.8,296.4,244,296.4,244.2,296.5z"/>
			<path d="M243.3,312.8c0.2,0,0.5-0.1,0.7-0.2C243.8,312.7,243.6,312.8,243.3,312.8z"/>
			<path d="M242.5,312.9c0.2,0,0.4,0,0.7-0.1C242.9,312.9,242.7,312.9,242.5,312.9z"/>
			<path d="M243.1,296.3c-0.1,0-0.3,0-0.4-0.1C242.8,296.2,243,296.2,243.1,296.3z"/>
			<path d="M241.9,296.2c0.3,0,0.5,0,0.8,0C242.4,296.2,242.1,296.2,241.9,296.2z"/>
			<path d="M240.4,296.3c0.1,0,0.1,0,0.1,0c0.2,0,0.4-0.1,0.7-0.1c0.2,0,0.4,0,0.6,0c0.3,0,0.5,0,0.8,0c0.2,0,0.3,0,0.4,0.1
				c0.1,0,0.3,0,0.4,0.1c0.2,0.1,0.4,0.1,0.7,0.2c0,0,0.1,0,0.1,0c0.2,0.1,0.4,0.1,0.6,0.2c0,0,0,0,0,0c0.2,0.1,0.5,0.2,0.7,0.3
				c0.2,0.1,0.4,0.2,0.5,0.3c0,0,0.1,0,0.1,0.1c0.2,0.1,0.4,0.2,0.5,0.4c0.2,0.2,0.5,0.4,0.7,0.6c0.2,0.2,0.3,0.3,0.5,0.5
				c0,0,0,0,0,0c0.2,0.2,0.3,0.4,0.5,0.6c0,0,0,0,0,0c0.2,0.2,0.3,0.4,0.4,0.6l0,0c0.1,0.2,0.2,0.4,0.3,0.6c0.1,0.2,0.2,0.4,0.3,0.6
				c0,0.1,0.1,0.2,0.1,0.3c0,0,0,0.1,0,0.1c0.1,0.2,0.1,0.4,0.2,0.6c0.1,0.2,0.1,0.5,0.2,0.7c0,0.1,0,0.1,0,0.2
				c0,0.2,0.1,0.4,0.1,0.7c0,0.2,0,0.4,0,0.6c0,0,0,0,0,0c0,0.3,0,0.5,0,0.8c0,0.2,0,0.3-0.1,0.5c0,0.1,0,0.2-0.1,0.3c0,0,0,0,0,0.1
				c0,0.2-0.1,0.4-0.1,0.5c-0.1,0.3-0.2,0.7-0.3,1c-0.1,0.2-0.2,0.4-0.3,0.6c-0.1,0.2-0.2,0.4-0.4,0.7c0,0,0,0,0,0
				c-0.1,0.2-0.3,0.4-0.4,0.6c-0.1,0.1-0.1,0.1-0.2,0.2c-0.1,0.1-0.2,0.3-0.3,0.4c-0.2,0.2-0.3,0.3-0.5,0.5
				c-0.7,0.7-1.6,1.2-2.5,1.6c-0.1,0-0.2,0.1-0.3,0.1c0,0-0.1,0-0.1,0c-0.2,0.1-0.4,0.1-0.6,0.2c-0.2,0.1-0.5,0.1-0.7,0.2
				c-0.1,0-0.1,0-0.2,0c-0.2,0-0.4,0.1-0.7,0.1c-0.2,0-0.4,0-0.6,0c0,0,0,0,0,0c-0.3,0-0.5,0-0.8,0c-0.2,0-0.4,0-0.5-0.1
				c-0.1,0-0.2,0-0.3-0.1c0,0-0.1,0-0.1,0c-0.2,0-0.4-0.1-0.5-0.1c-0.3-0.1-0.6-0.2-1-0.3c-0.2-0.1-0.4-0.2-0.6-0.3
				c-0.2-0.1-0.4-0.2-0.7-0.4c0,0,0,0,0,0c-0.2-0.1-0.4-0.3-0.6-0.4c-0.1-0.1-0.1-0.1-0.2-0.2c-0.1-0.1-0.3-0.2-0.4-0.3
				c-0.2-0.2-0.3-0.3-0.5-0.5c-0.6-0.7-1.2-1.6-1.5-2.5c0-0.1-0.1-0.2-0.1-0.3c0,0,0,0,0-0.1c-0.1-0.2-0.1-0.4-0.2-0.6
				c-0.1-0.2-0.1-0.5-0.2-0.7c0-0.1,0-0.1,0-0.2c0-0.2-0.1-0.4-0.1-0.7c0-0.2,0-0.4,0-0.6c0,0,0,0,0,0c0-0.3,0-0.5,0-0.8
				c0-0.2,0-0.4,0.1-0.5c0-0.1,0-0.2,0.1-0.3c0,0,0,0,0-0.1c0-0.2,0.1-0.4,0.1-0.5c0.1-0.3,0.2-0.7,0.3-1c0.1-0.2,0.2-0.4,0.3-0.6
				c0.1-0.2,0.2-0.4,0.4-0.7c0,0,0,0,0,0c0.1-0.2,0.3-0.4,0.4-0.6c0.1-0.1,0.1-0.2,0.2-0.2c0.1-0.1,0.2-0.3,0.3-0.4
				c0.2-0.2,0.3-0.3,0.5-0.5c0.2-0.2,0.4-0.4,0.6-0.5c0.2-0.1,0.4-0.3,0.6-0.4c0.2-0.1,0.5-0.3,0.7-0.4c0,0,0,0,0,0
				c0.2-0.1,0.5-0.2,0.7-0.3c0.2-0.1,0.5-0.2,0.8-0.2C239.9,296.4,240.2,296.3,240.4,296.3z"/>
			<path d="M241,312.9c0.3,0,0.5,0,0.8,0C241.6,312.9,241.3,312.9,241,312.9z"/>
			<path d="M241.2,296.2c-0.2,0-0.4,0-0.7,0.1C240.8,296.2,241,296.2,241.2,296.2z"/>
			<path d="M240.4,296.3c-0.3,0-0.5,0.1-0.8,0.2C239.9,296.4,240.2,296.3,240.4,296.3z"/>
			<path d="M239.6,312.6c0.2,0.1,0.4,0.1,0.5,0.1C239.9,312.7,239.7,312.7,239.6,312.6z"/>
			<path d="M239.7,296.5c-0.3,0.1-0.5,0.1-0.8,0.2C239.2,296.6,239.4,296.5,239.7,296.5z"/>
			<path d="M238.9,296.7c-0.2,0.1-0.5,0.2-0.7,0.3C238.4,296.9,238.7,296.8,238.9,296.7z"/>
			<path d="M238,312c0.2,0.1,0.4,0.2,0.6,0.3C238.4,312.2,238.2,312.1,238,312z"/>
			<path d="M238.2,297c-0.2,0.1-0.5,0.2-0.7,0.4C237.7,297.2,238,297.1,238.2,297z"/>
			<path d="M237.4,311.6c0.2,0.1,0.4,0.3,0.7,0.4C237.8,311.9,237.6,311.8,237.4,311.6z"/>
			<path d="M237.5,297.4c-0.2,0.1-0.4,0.3-0.6,0.4C237.1,297.7,237.3,297.5,237.5,297.4z"/>
			<path d="M236.8,311.2c0.2,0.2,0.4,0.3,0.6,0.4C237.1,311.5,236.9,311.4,236.8,311.2z"/>
			<path d="M236.1,310.7c0.1,0.1,0.2,0.2,0.4,0.3C236.4,310.9,236.3,310.8,236.1,310.7z"/>
			<path d="M236.2,298.4c-0.2,0.2-0.3,0.3-0.5,0.5C235.9,298.7,236.1,298.5,236.2,298.4z"/>
			<path d="M235.6,310.2c0.2,0.2,0.3,0.3,0.5,0.5C236,310.5,235.8,310.4,235.6,310.2z"/>
			<path d="M235.7,298.9c-0.1,0.1-0.2,0.2-0.3,0.4C235.5,299.1,235.6,299,235.7,298.9z"/>
			<path d="M235.2,299.5c-0.1,0.2-0.3,0.4-0.4,0.6C234.9,299.9,235.1,299.6,235.2,299.5z"/>
			<path d="M234.8,300.1c-0.1,0.2-0.3,0.4-0.4,0.7C234.5,300.5,234.6,300.3,234.8,300.1z"/>
			<path d="M234.4,300.7c-0.1,0.2-0.2,0.4-0.3,0.6C234.2,301.1,234.3,300.9,234.4,300.7z"/>
			<path d="M233.8,306.8c0.1,0.2,0.1,0.4,0.2,0.6C233.9,307.2,233.8,307,233.8,306.8z"/>
			<path d="M233.8,302.3c-0.1,0.2-0.1,0.3-0.1,0.5C233.7,302.6,233.8,302.4,233.8,302.3z"/>
			<path d="M233.6,306c0,0.2,0.1,0.5,0.2,0.7C233.7,306.5,233.6,306.3,233.6,306z"/>
			<path d="M233.5,305.2c0,0.2,0,0.4,0.1,0.7C233.5,305.6,233.5,305.4,233.5,305.2z"/>
			<path d="M233.5,303.7c0,0.3,0,0.5,0,0.8C233.5,304.2,233.5,304,233.5,303.7z"/>
			<path d="M208.1,609.6c5.3,0,9.5,4.3,9.5,9.5c0,5.3-4.3,9.5-9.5,9.5c-2.6,0-5-1.1-6.7-2.8c-1.7-1.7-2.8-4.1-2.8-6.8
				c0-2.6,1.1-5,2.8-6.7C203,610.6,205.4,609.6,208.1,609.6z"/>
			<path d="M186.2,583.7c1.7,1.7,2.8,4.1,2.8,6.8c0,2.6-1.1,5-2.8,6.8c1.7-1.7,2.8-4.1,2.8-6.8C189,587.8,187.9,585.5,186.2,583.7z"
				/>
			<path d="M172.7,583.7c1.7-1.7,4.1-2.8,6.8-2.8c2.6,0,5,1.1,6.7,2.8c1.7,1.7,2.8,4.1,2.8,6.8c0,2.6-1.1,5-2.8,6.8
				c-1.7,1.7-4.1,2.8-6.7,2.8c-2.6,0-5-1.1-6.8-2.8c-0.3-0.3-0.6-0.7-0.9-1c-0.2-0.2-0.3-0.5-0.5-0.8c-0.9-1.4-1.4-3.1-1.4-5
				s0.5-3.5,1.4-4.9c0.2-0.3,0.3-0.5,0.5-0.8C172.1,584.4,172.4,584,172.7,583.7z"/>
			<path d="M160.4,619.1c0,5.3-4.3,9.5-9.5,9.5c-5.3,0-9.5-4.3-9.5-9.5c0-5.3,4.3-9.5,9.5-9.5C156.1,609.6,160.4,613.8,160.4,619.1z
				"/>
		</g>
		<g>
		</g>
	</g>
</g>
</svg>
