<svg xmlns="http://www.w3.org/2000/svg" xmlns:xlink="http://www.w3.org/1999/xlink" version="1.1" x="0px" y="0px" viewBox="0 0 242.988 267.3275" enable-background="new 0 0 242.988 213.862" xml:space="preserve"><g><rect x="79.608" y="37.943" transform="matrix(0.4197 0.9077 -0.9077 0.4197 109.9963 -64.4998)" fill="none" width="51.669" height="31.667"/><path fill="none" d="M35.248,189.576h51.668v-51.667H35.248V189.576z M63.193,177.115c1.6,0,2.896,1.297,2.896,2.897   c0,1.6-1.297,2.896-2.896,2.896c-1.602,0-2.898-1.297-2.898-2.896C60.295,178.412,61.592,177.115,63.193,177.115z M54.502,168.424   c1.6,0,2.896,1.297,2.896,2.897c0,1.6-1.297,2.896-2.896,2.896c-1.602,0-2.896-1.297-2.896-2.896   C51.605,169.721,52.9,168.424,54.502,168.424z M45.811,177.115c1.6,0,2.896,1.297,2.896,2.897c0,1.6-1.297,2.896-2.896,2.896   s-2.896-1.297-2.896-2.896C42.914,178.412,44.211,177.115,45.811,177.115z"/><polygon fill="none" points="92.248,137.909 92.248,189.576 123.916,189.576 123.916,154.208 107.633,137.909  "/><path fill="none" d="M97.078,86.111l-21.69-46.897L28.5,60.903l21.689,46.897L97.078,86.111z M88.525,80.866   c1.402-0.099,2.619,0.959,2.719,2.362c0.098,1.403-0.96,2.619-2.363,2.718c-1.402,0.099-2.619-0.958-2.719-2.361   C86.064,82.182,87.123,80.965,88.525,80.866z M80.369,73.779c1.402-0.099,2.619,0.96,2.717,2.363c0.1,1.402-0.959,2.62-2.359,2.718   c-1.404,0.099-2.62-0.959-2.719-2.361C77.91,75.096,78.965,73.878,80.369,73.779z M73.283,81.936   c1.403-0.098,2.619,0.959,2.717,2.362c0.1,1.403-0.957,2.62-2.359,2.718c-1.403,0.099-2.621-0.958-2.719-2.36   C70.822,83.251,71.881,82.034,73.283,81.936z"/><path fill="none" d="M178.707,128.917v-0.012l-34.019,34.019h42.416l36.776-33.886c-2.256,0.017-5.227,0.027-9.153,0.027   C207.008,129.065,195.604,129.025,178.707,128.917z"/><path fill="none" d="M144.35,87.409l36.143,36.179c0.106,0.106,0.195,0.223,0.279,0.342c14.77,0.091,34.33,0.171,43.786,0.115   l-36.188-36.636H144.35z"/><path d="M103.715,88.551L103.715,88.551l33.578-15.533l-25.884-55.974L73.592,34.535v0.001L21.863,58.464l25.887,55.974   L103.715,88.551z M108.97,23.681l21.687,46.897l-28.738,13.294L80.229,36.975L108.97,23.681z M75.388,39.214l21.69,46.897   l-46.889,21.689L28.5,60.903L75.388,39.214z"/><circle cx="45.811" cy="180.012" r="2.897"/><circle cx="54.502" cy="171.321" r="2.897"/><circle cx="63.193" cy="180.012" r="2.897"/><circle cx="73.462" cy="84.476" r="2.546"/><circle cx="80.548" cy="76.32" r="2.547"/><circle cx="88.703" cy="83.406" r="2.546"/><path d="M191.192,83.152c-0.47-0.476-1.11-0.743-1.778-0.743h-50.166c-0.736,0-1.393,0.324-1.85,0.83   c-0.148,0.096-0.291,0.205-0.418,0.332l-40.07,40.069c-0.977,0.976-0.977,2.558-0.001,3.534l5.729,5.734H91.916h-4.668h-57v61.667   h57h4.668h37v-35.363l7.967,7.976c0.115,0.116,0.243,0.221,0.379,0.312c0.037,0.024,0.078,0.04,0.117,0.062   c0.101,0.061,0.203,0.121,0.312,0.167c0.059,0.024,0.123,0.038,0.184,0.058c0.094,0.031,0.186,0.066,0.283,0.086   c0.161,0.033,0.326,0.05,0.494,0.05l0,0h49.43c0.627,0,1.23-0.236,1.693-0.661l42.333-39.007c0.497-0.46,0.788-1.103,0.806-1.78   c0.016-0.678-0.245-1.333-0.722-1.815L191.192,83.152z M86.916,189.576H35.248v-51.667h51.668V189.576z M123.916,189.576H92.248   v-51.667h15.385l16.283,16.299V189.576z M102.213,125.409l36.535-36.534l36.441,36.479l-36.535,36.534L102.213,125.409z    M187.104,162.924h-42.416l34.019-34.019v0.012c16.897,0.108,28.301,0.148,36.021,0.148c3.927,0,6.897-0.011,9.153-0.027   L187.104,162.924z M180.771,123.93c-0.084-0.119-0.173-0.235-0.279-0.342L144.35,87.409h44.02l36.188,36.636   C215.102,124.101,195.541,124.021,180.771,123.93z"/><circle cx="145.021" cy="130.86" r="2.897"/><circle cx="150.327" cy="119.772" r="2.897"/><circle cx="161.414" cy="125.077" r="2.897"/></g><text x="0" y="228.862" fill="#000000" font-size="5px" font-weight="bold" font-family="'Helvetica Neue', Helvetica, Arial-Unicode, Arial, Sans-serif">Created by Josue Oquendo</text><text x="0" y="233.862" fill="#000000" font-size="5px" font-weight="bold" font-family="'Helvetica Neue', Helvetica, Arial-Unicode, Arial, Sans-serif">from the Noun Project</text></svg>