<?xml version="1.0" encoding="utf-8"?>
<!-- Generator: Adobe Illustrator 18.1.1, SVG Export Plug-In . SVG Version: 6.00 Build 0)  -->
<svg version="1.1" id="Layer_1" xmlns="http://www.w3.org/2000/svg" xmlns:xlink="http://www.w3.org/1999/xlink" x="0px" y="0px"
	 viewBox="0 0 800 933" enable-background="new 0 0 800 933" xml:space="preserve">
<g id="XMLID_1_">
	<g>
		<path fill="#E88E8E" d="M393.4,179.9c1.5,11.1-0.3,23-2.8,31.6c-1.1-5.5-1.9-11.4-2.5-15c-1.6-11.1-2.3-15.2-4.5-18.4
			c-3.8-5.7-12.3-9.5-21.1-9.5c-8.6,0-16.4,3.6-22.1,10.1c-3.9,4.4-7.9,4.9-19.4,5.4c-3.3,0.2-6.7,0.3-10.4,0.6
			c-6.2,0.6-25.3,2.3-30.9,16.2c-3.5,8.7-0.4,18.6,9.1,29.5c12.9,14.8,33.4,27.9,48.4,37.4c6.7,4.3,13.6,8.7,15.6,10.7
			c3.1,3.1,6.1,8.4,7,11.5c-1.9,0.2-5.6,0-9.8-0.7c-34.8-6.3-92.7-41.1-100.4-47.3c-9.7-7.8-35.2-32.8-39.8-39.9
			c0.8-9.3,39.4-40.6,91.3-54.7c18-4.9,32.8-11,46-16.5c13.8-5.7,25.7-10.7,34.1-10.7c3.6,0,6.4,0.8,9.1,2.7c4,2.8,3.2,20,2.8,30.2
			C392.7,162.4,392.2,171.8,393.4,179.9z"/>
		<path fill="#E88E8E" d="M313.7,397c0,1.3-0.4,4.6-2.9,12.1c-5.2,15.7-15,44.9-23.7,59.6c-2.5,4.1-4.6,10.8-8.4,23.1
			c-7.8,25.5-24.1,78.6-47.3,78.6c-2.2,0-4.7-0.5-7.2-1.4c-27.2-10.3-94.5-70.9-99.4-159.4c-1.9-34.2,4.3-91.8,24-112.6
			c4.7-5,9.8-7.4,15.6-7.4c4.4,0,9.3,1.3,14.7,4c56.6,27.5,60.5,28.7,79.4,34.5l6.2,1.9c1.3,0.4,2.6,0.8,3.9,1.1
			c4.9,1.3,9.2,2.5,16.5,9c1.9,1.7,2.1,3.7,1.9,4.1c-0.1,0.1-1,0.7-3.2,0.7c-2.1,0-4.6-0.5-7.5-1.4c-13-4.2-23.4-6-31.7-7.4
			c-8.3-1.4-14.2-2.4-19.6-5.1c-2.6-1.3-5.6-2-8.7-2c-7,0-13.7,3.5-18.5,9.5c-10.4,13.2-11.5,37.4-3.2,71.9
			c0.2,0.7,18.8,74.3,51.4,74.3c19.8,0,29.3-25.3,32.5-33.7l0.3-1c3.2-12,10.1-33.8,14.9-40.8c5.3-7.8,14-13.4,17.4-13.9l0.5,0.3
			C312.3,396.1,313.1,396.6,313.7,397z"/>
		<path fill="#E88E8E" d="M541,538.3c5.8,7.9,7.9,14.4,6,19.1c-3.5,9.1-20.1,16.7-49.4,22.6c-6.4,1.3-13.2,2.4-20.2,3.6
			c-18.6,3.1-39.7,6.6-60.2,14.1c-12.8,4.7-37.4,12.6-58.7,12.6c-9.7,0-17.2-1.6-22.3-4.9c-3.9-21.8,41.3-147.7,55.1-177.1
			c6.5-13.8,18.6-22,26.4-22c1.4,0,2.5,0.3,3.3,0.8c2.2,1.4,3.2,2.2,3.6,2.6c-0.2,2.2-2.4,7.7-4.4,12.6l-0.6,1.5
			c-1.7,4.4-4.2,9.7-6.9,15.7c-8.2,18.3-19.5,43.4-23.6,65.7c-2.5,13.6-1.4,22.3,3.4,28c3.2,3.8,7.9,5.9,13.2,5.9
			c3.3,0,6.2-0.8,8.4-1.3c0.6-0.2,1.2-0.3,1.7-0.4c12.7-1.8,19.2-7.6,23.9-11.8c3.3-3,5.2-4.7,9.1-5.5c1-0.2,1.4-0.2,4.6,2.9
			c4.4,4.4,11.8,12.1,26.6,10.1c12-1.6,20-6.1,23.9-13.4c3.7-7,3.1-15.5-1.7-25.1c-5.1-10.1-11.6-21.8-13.6-25.3
			c-1.6-5.3-2.6-9.4-3.3-12.6c6,5.1,13.1,12.2,16.5,15.7l3,3c6.2,6.2,10.4,15.3,15.2,25.8C525.4,512.4,531.2,525,541,538.3z"/>
		<path fill="#E88E8E" d="M679.4,298.2c3.4,3.7,4.2,14.1,2.5,30.9l-0.2,1.9c-0.3,3.5-0.7,7.6-1.1,12.2c-2,24.4-5.1,61.2-15.8,109.3
			c-4.5,20.2-14.4,29.6-31.3,29.6c-9.7,0-18.4-3.2-21.1-4.3c-28.3-20.4-39-27.8-47.7-33.9c-5.6-3.9-10.4-7.3-18.7-13.3
			c-7.2-5.2-9.2-9.2-8.7-10.6c0.7-2.1,5.5-5.2,10.7-5.2c1.9,0,2.9,0.5,3.1,0.6l3,2.5c5.8,4.9,14.5,12.3,30.3,23.2
			c4.9,3.4,10,5.1,15.3,5.1c10.6,0,19.8-7.4,23-18.3c3.6-12.4-1.5-25.1-13-32.3c-3.6-2.3-4.5-4.3-4.8-5.7c-0.9-3.9,1.4-8.9,2.5-10.6
			c6.8-9.1,13.9-20.7,8.8-30.8c-1.7-3.5-6.4-9.3-17.9-9.3c-10.1,0-22.3,4.4-23.8,5l-68.9,26.6c-3.6,0.5-6.7,0.8-9.4,0.8
			c-3.5,0-5.3-0.4-6.2-0.8c0.1-0.8,0.5-1.9,1-3c12-23.3,71.9-39.3,119.9-52.1c21.4-5.7,41.7-11.1,57.5-17c3.7-1.4,6.2-1.7,7.5-1.7
			C678.4,297.1,679.1,297.8,679.4,298.2z"/>
		<path fill="#E88E8E" d="M631,208.1c0,0.4-1.3,3-7.3,6.4c-28.2,16.1-120.1,60.9-120.8,61.3c-7.6,3.5-30.5,12.5-45.7,12.5
			c-2.5,0-4.4-0.2-5.8-0.6c2.9-1.3,7.1-3.1,13-5.4c29.5-11.5,55.8-23.1,59.4-24.7c5.7-2.1,22-9.1,23.3-22.8
			c0.8-8.7-4.4-16.3-15.5-22.6c-3.4-1.9-6.5-3.9-9.5-5.6c-10.7-6.6-20-12.3-31.7-12.3c-12,0-23.8,6.2-38.2,20.2
			c-3.5,3.4-6.5,6.3-9.1,8.8c0.9-5.7,2.2-12,4.2-18.4c0.4-1.4,0.9-3,1.4-4.9c5.7-19.7,18.9-65.8,55.9-65.8
			c16.8,0,37.3,8.9,61.3,26.5l57,39.4l0.7,0.5C627.5,202.6,631,206.6,631,208.1z"/>
		<path fill="#E20C0C" d="M699.7,196.3c84.2,94.1,51.2,277.1,1.3,340.4c-53.3,67.8-174.2,140.7-313.7,140.7
			c-22.1,0-44.3-1.8-66.1-5.4C167.7,646.6,101.9,562.8,73.8,497C30.4,395.8,50.2,279,81.2,233.5C140.9,145.9,290.6,69,401.5,69
			C515.3,69,604.9,90.3,699.7,196.3z M703.6,331.4c1.2-12.2,3.6-34.9-8-47.7c-7.8-8.6-19.8-10.6-34.4-5.3
			c-14.9,5.5-34.7,10.8-55.6,16.4c-57.6,15.4-117.2,31.4-133.6,63.2c-1.7,3.2-6.6,14.5-0.6,24.5c6,9.8,18.6,13.1,39,9.8l72-27.6
			c2.6-1,7.1-2.3,11.1-3c-1,1.5-2.2,3.4-3.9,5.6c-0.9,1.4-8.7,13.6-5.7,27.3c1.7,8,6.7,14.8,14.5,19.6c4.5,2.8,4,6.4,3.6,7.8
			c-0.4,1.4-1.3,2.6-2.1,2.6c-0.3,0-1.2-0.1-2.9-1.2c-14.9-10.3-22.8-17-28.6-21.9l-3.1-2.6c-4.5-3.7-10.3-5.7-17-5.7
			c-12.4,0-27.1,7-31.4,20.3c-2.2,7-3,20.8,16.7,34.9c8.4,6,13.3,9.5,19,13.4c8.8,6.1,19.5,13.6,48.4,34.5l1.8,1
			c0.6,0.3,14.5,6.6,31,6.6c15.7,0,43.5-6.1,52.5-46.7c11-49.5,14.3-88.8,16.2-112.2c0.4-4.5,0.7-8.5,1-12L703.6,331.4z
			 M634.5,233.4c12.1-6.9,18.3-15.4,18.3-25.3c0-14.7-14.6-24.3-17.8-26.2l-56.4-39c-27.5-20.3-52.3-30.6-73.9-30.6
			c-53.4,0-70.4,59.3-76.8,81.6c-0.5,1.7-0.9,3.3-1.3,4.5c-7.5,24.4-7,47.2-6.9,47.9c0,0.8,0,2.2,0.5,3.9c1.4,5,5.8,8.4,11,8.4
			c5.7,0,7.9-1,36.4-28.6c9.8-9.4,17.3-14,23.1-14c5.5,0,11.7,3.8,20.3,9.1c3.1,1.9,6.5,4,10.1,6c1.4,0.8,2.5,1.5,3.2,2.1
			c-2,1.4-5.1,3.1-7.8,4.1l-0.9,0.3c-0.3,0.1-27.7,12.4-58.9,24.5c-20,7.8-28.8,12.4-31.1,20.7c-1.9,6.9,2,11.8,3.8,14.2
			c0.3,0.4,0.6,0.8,1,1.3c3.6,5.4,11.2,11.9,26.9,11.9c23,0,53.5-13.9,55-14.6C516,293.5,605.7,249.8,634.5,233.4z M567.3,565.3
			c4.7-12.1,1.8-25.5-8.8-39.8c-8.5-11.5-13.6-22.6-18.5-33.3c-5.5-11.9-10.7-23.1-19.6-32l-2.9-2.9c-15.4-15.6-28.1-27.6-39.3-27.6
			c-4.8,0-9.2,2.2-12,6c-5.4,7.2-4.7,18.8,2.2,41.3l1,2.2c0.1,0.2,8,14,13.6,25.3c1.7,3.3,1.8,4.9,2,5.1c-0.5,0.4-2.3,1.5-7.6,2.2
			c-3.3,0.4-4.4,0-8.4-4c-3.7-3.7-9.4-9.3-19-9.3c-1.7,0-3.4,0.2-5.2,0.5c-9.8,1.9-15.1,6.8-19.4,10.6c-3.8,3.5-6.2,5.6-12.3,6.4
			c-1,0.1-2.1,0.4-3.3,0.7c0.1-1.7,0.3-4.2,0.9-7.5c3.6-19.8,14.2-43.4,22-60.7c2.9-6.3,5.4-12,7.2-16.5l0.6-1.5
			c6.6-16.5,11.8-29.5-7.9-41.7c-4.3-2.7-9.3-4-14.7-4c-17.5,0-36.5,14.2-46.1,34.5c-5.2,11.1-22.6,55-37.2,99.6
			c-27.2,83.2-21.4,96.4-13.1,102.9c9,7,21.5,10.5,37.1,10.5c24.7,0,52.1-8.8,66.2-14c18.5-6.9,37.7-10,56.2-13.1
			c7.2-1.2,14.3-2.3,20.9-3.7C527.9,596.1,558.7,587.3,567.3,565.3z M401.6,238.1c8.9-10.2,16.5-37.8,13.3-61.1
			c-0.9-6.2-0.5-14.6-0.1-22.7c0.9-19.4,1.8-39.5-12.1-49.1c-6.3-4.3-13.5-6.6-21.4-6.6c-12.8,0-26.6,5.7-42.5,12.3
			c-12.5,5.2-26.6,11.1-43.3,15.6c-41.8,11.3-113.2,47.8-107,80.5c2.6,13.6,47.1,51.8,47.5,52.1c9.8,7.8,70.9,44.6,110.1,51.7
			c4.3,0.8,8.3,1.2,11.7,1.2c15.1,0,20.6-7.7,22.5-12.3c5.8-14-6.8-31-12.1-36.3c-3.7-3.7-10.2-7.8-19.3-13.6
			c-13.9-8.9-32.8-21-43.7-33.4c-3.1-3.6-4.4-5.9-4.8-7c1.4-0.8,4.8-2.1,12.2-2.8c3.3-0.3,6.4-0.4,9.3-0.6
			c12.1-0.5,24.6-1,34.9-12.8c1.6-1.8,3.4-2.7,5.8-2.7c1,0,1.9,0.2,2.7,0.4c0.4,2.4,1,6,1.4,8.9c3,20.7,5.6,34.8,13.4,41.3
			c2.6,2.2,5.8,3.4,9.1,3.4C392,244.3,397,243.3,401.6,238.1z M331.5,416c7.1-21.3,5-30.8-8.6-39l-1.3-0.8c-2.9-1.8-6.3-2.7-10-2.7
			c-12.9,0-28.1,12.1-35.9,23.5c-8.1,11.9-16.4,41.5-17.8,46.9c-6,15.7-11,19.1-11.9,19.1c-7.3,0-24-31.8-30.2-57.7
			c-8.9-36.9-3.3-49.6-1.4-52.6c0.7-1.1,1.3-1.6,1.7-1.9c8,3.9,15.9,5.2,24.9,6.7c8,1.4,17.1,2.9,28.6,6.6
			c18,5.8,32.8,0.6,37.7-12.2c3.6-9.4,0.5-20.7-7.7-28c-11.2-10-19.4-12.2-25.4-13.8c-1-0.3-2-0.5-3-0.8l-6.3-1.9
			c-17.5-5.4-21.2-6.5-76.3-33.3c-21.4-10.4-41-7.5-55.6,8c-27.7,29.2-31.7,97-29.9,128.7c5.3,96.6,77.6,165,113.4,178.5
			c5,1.9,10,2.9,14.9,2.9c39.3,0,57.4-58.8,68.1-94c2.2-7.3,5-16.3,6.2-18.4C315,464.5,323.9,438.8,331.5,416z"/>
		<path fill="#AF0808" d="M715.9,181.8c94.9,106,54.8,301.5,2.2,368.4c-58.4,74.2-183.3,149-330.8,149c0,0,0,0,0,0
			c-23.3,0-46.7-1.9-69.6-5.7c-163.3-27-233.7-117.1-264-187.9C5.3,392.3,30.8,269,63.2,221.3c64.2-94.3,219.1-174,338.2-174
			c0,0,0,0,0,0C518,47.3,616,70.2,715.9,181.8z M701,536.7c49.8-63.4,82.8-246.4-1.3-340.4C604.9,90.3,515.3,69,401.5,69
			c-110.9,0-260.6,76.9-320.3,164.5C50.2,279,30.4,395.8,73.8,497c28.2,65.8,94,149.6,247.5,175c21.7,3.6,44,5.4,66.1,5.4
			C526.8,677.4,647.7,604.5,701,536.7z"/>
		<path fill="#AF0808" d="M695.6,283.6c11.6,12.8,9.2,35.5,8,47.7l-0.2,1.8c-0.3,3.5-0.7,7.4-1,12c-2,23.4-5.2,62.6-16.2,112.2
			c-9,40.6-36.8,46.7-52.5,46.7c-16.5,0-30.4-6.4-31-6.6l-1.8-1c-28.9-20.8-39.7-28.3-48.4-34.5c-5.7-4-10.5-7.4-19-13.4
			c-19.7-14.2-18.9-28-16.7-34.9c4.3-13.3,19-20.3,31.4-20.3c6.6,0,12.5,2,17,5.7l3.1,2.6c5.8,4.9,13.7,11.6,28.6,21.9
			c1.7,1.2,2.6,1.2,2.9,1.2c0.7,0,1.6-1.1,2.1-2.6c0.4-1.4,0.9-5-3.6-7.8c-7.8-4.8-12.8-11.6-14.5-19.6c-3-13.8,4.8-26,5.7-27.3
			c1.7-2.2,3-4.1,3.9-5.6c-4,0.8-8.5,2.1-11.1,3l-72,27.6c-20.4,3.3-33,0-39-9.8c-6.1-9.9-1.1-21.2,0.6-24.5
			c16.4-31.8,76-47.8,133.6-63.2c20.9-5.6,40.7-10.9,55.6-16.4C675.8,273,687.8,275,695.6,283.6z M681.9,329.1
			c1.7-16.8,0.9-27.2-2.5-30.9c-0.4-0.4-1-1.1-3.2-1.1c-1.4,0-3.8,0.3-7.5,1.7c-15.9,5.8-36.1,11.2-57.5,17
			c-48.1,12.9-107.9,28.9-119.9,52.1c-0.6,1.1-0.9,2.2-1,3c0.9,0.3,2.8,0.8,6.2,0.8c2.7,0,5.8-0.3,9.4-0.8l68.9-26.6
			c1.5-0.6,13.8-5,23.8-5c11.5,0,16.1,5.9,17.9,9.3c5,10.1-2,21.7-8.8,30.8c-1.1,1.8-3.3,6.7-2.5,10.6c0.3,1.4,1.1,3.4,4.8,5.7
			c11.4,7.2,16.5,19.8,13,32.3c-3.1,11-12.4,18.3-23,18.3c-5.2,0-10.4-1.7-15.3-5.1c-15.8-10.9-24.5-18.3-30.3-23.2l-3-2.5
			c-0.2-0.2-1.2-0.6-3.1-0.6c-5.2,0-10,3.1-10.7,5.2c-0.5,1.4,1.5,5.4,8.7,10.6c8.3,6,13.1,9.3,18.7,13.3
			c8.7,6.1,19.3,13.5,47.7,33.9c2.6,1.1,11.4,4.3,21.1,4.3c16.9,0,26.8-9.4,31.3-29.6c10.7-48.1,13.7-84.9,15.8-109.3
			c0.4-4.6,0.7-8.7,1.1-12.2L681.9,329.1z"/>
		<path fill="#AF0808" d="M652.8,208.1c0,9.8-6.2,18.4-18.3,25.3c-28.8,16.5-118.5,60.2-122.3,62c-1.5,0.7-32,14.6-55,14.6
			c-15.7,0-23.3-6.5-26.9-11.9c-0.3-0.5-0.6-0.9-1-1.3c-1.9-2.4-5.7-7.4-3.8-14.2c2.3-8.3,11-12.9,31.1-20.7
			c31.1-12.1,58.6-24.4,58.9-24.5l0.9-0.3c2.7-1,5.9-2.6,7.8-4.1c-0.7-0.6-1.8-1.3-3.2-2.1c-3.6-2.1-7-4.1-10.1-6
			c-8.6-5.3-14.8-9.1-20.3-9.1c-5.8,0-13.3,4.6-23.1,14c-28.5,27.6-30.7,28.6-36.4,28.6c-5.1,0-9.6-3.4-11-8.4
			c-0.5-1.7-0.5-3.2-0.5-3.9c0-0.7-0.5-23.5,6.9-47.9c0.4-1.3,0.8-2.8,1.3-4.5c6.4-22.3,23.4-81.6,76.8-81.6
			c21.6,0,46.5,10.3,73.9,30.6l56.4,39C638.2,183.8,652.8,193.4,652.8,208.1z M623.7,214.5c6-3.4,7.3-6,7.3-6.4
			c0-1.5-3.6-5.4-7.4-7.7l-0.7-0.5l-57-39.4C542,142.9,521.5,134,504.6,134c-37,0-50.2,46.1-55.9,65.8c-0.5,1.9-1,3.5-1.4,4.9
			c-2,6.4-3.3,12.7-4.2,18.4c2.6-2.5,5.6-5.4,9.1-8.8c14.4-13.9,26.2-20.2,38.2-20.2c11.7,0,20.9,5.7,31.7,12.3
			c2.9,1.8,6.1,3.7,9.5,5.6c11,6.3,16.2,13.9,15.5,22.6c-1.3,13.8-17.5,20.8-23.3,22.8c-3.6,1.6-29.9,13.2-59.4,24.7
			c-6,2.3-10.1,4.1-13,5.4c1.4,0.4,3.3,0.6,5.8,0.6c15.2,0,38.2-9.1,45.7-12.5C503.6,275.4,595.5,230.6,623.7,214.5z"/>
		<path fill="#AF0808" d="M558.5,525.4c10.5,14.3,13.5,27.7,8.8,39.8c-8.5,22.1-39.4,30.8-65.4,36c-6.6,1.3-13.6,2.5-20.9,3.7
			c-18.5,3.1-37.7,6.2-56.2,13.1c-14.1,5.2-41.5,14-66.2,14c-15.6,0-28.1-3.5-37.1-10.5c-8.3-6.4-14.1-19.7,13.1-102.9
			c14.6-44.6,32-88.6,37.2-99.6c9.6-20.3,28.6-34.5,46.1-34.5c5.5,0,10.4,1.4,14.7,4c19.8,12.2,14.5,25.2,7.9,41.7l-0.6,1.5
			c-1.8,4.6-4.4,10.2-7.2,16.5c-7.8,17.3-18.4,40.9-22,60.7c-0.6,3.3-0.9,5.8-0.9,7.5c1.2-0.3,2.3-0.5,3.3-0.7
			c6.1-0.8,8.4-2.9,12.3-6.4c4.3-3.9,9.6-8.7,19.4-10.6c1.8-0.4,3.5-0.5,5.2-0.5c9.6,0,15.3,5.6,19,9.3c4.1,4,5.1,4.4,8.4,4
			c5.3-0.7,7.1-1.9,7.6-2.2c-0.2-0.2-0.3-1.8-2-5.1c-5.7-11.3-13.6-25.2-13.6-25.3l-1-2.2c-6.9-22.5-7.5-34.1-2.2-41.3
			c2.8-3.8,7.2-6,12-6c11.1,0,23.8,12,39.3,27.6l2.9,2.9c8.9,8.9,14.1,20.2,19.6,32C544.9,502.8,550,513.9,558.5,525.4z M547,557.4
			c1.8-4.8-0.2-11.2-6-19.1c-9.8-13.3-15.6-25.9-20.7-37c-4.8-10.5-9-19.6-15.2-25.8l-3-3c-3.4-3.5-10.5-10.7-16.5-15.7
			c0.7,3.2,1.7,7.3,3.3,12.6c2,3.5,8.5,15.2,13.6,25.3c4.8,9.7,5.4,18.1,1.7,25.1c-3.9,7.3-11.9,11.8-23.9,13.4
			c-14.8,2-22.2-5.8-26.6-10.1c-3.1-3.1-3.6-3.1-4.6-2.9c-3.9,0.8-5.8,2.4-9.1,5.5c-4.7,4.2-11.1,10.1-23.9,11.8
			c-0.5,0.1-1.1,0.2-1.7,0.4c-2.2,0.5-5.2,1.3-8.4,1.3c-5.3,0-10-2.1-13.2-5.9c-4.8-5.8-5.8-14.4-3.4-28
			c4.1-22.4,15.4-47.4,23.6-65.7c2.7-6,5.1-11.4,6.9-15.7l0.6-1.5c2-4.9,4.2-10.4,4.4-12.6c-0.4-0.4-1.4-1.3-3.6-2.6
			c-0.8-0.5-1.9-0.8-3.3-0.8c-7.9,0-19.9,8.2-26.4,22c-13.9,29.4-59.1,155.2-55.1,177.1c5.1,3.2,12.6,4.9,22.3,4.9
			c21.3,0,45.9-7.9,58.7-12.6c20.5-7.6,41.6-11.1,60.2-14.1c7-1.1,13.8-2.3,20.2-3.6C526.9,574.1,543.5,566.5,547,557.4z"/>
		<path fill="#AF0808" d="M414.9,177c3.2,23.3-4.5,50.9-13.3,61.1c-4.6,5.2-9.5,6.2-12.5,6.3c-3.3,0-6.5-1.2-9.1-3.4
			c-7.7-6.5-10.3-20.5-13.4-41.3c-0.4-2.9-0.9-6.5-1.4-8.9c-0.7-0.2-1.7-0.4-2.7-0.4c-2.3,0-4.2,0.8-5.8,2.7
			c-10.3,11.8-22.8,12.3-34.9,12.8c-2.9,0.1-6,0.2-9.3,0.6c-7.4,0.7-10.8,2-12.2,2.8c0.5,1.2,1.7,3.5,4.8,7
			c10.9,12.4,29.9,24.6,43.7,33.4c9.1,5.8,15.6,10,19.3,13.6c5.4,5.3,17.9,22.3,12.1,36.3c-1.9,4.6-7.4,12.3-22.5,12.3
			c-3.5,0-7.4-0.4-11.7-1.2c-39.2-7.1-100.3-43.8-110.1-51.7c-0.4-0.4-44.9-38.6-47.5-52.1c-6.2-32.6,65.3-69.2,107-80.5
			c16.6-4.5,30.8-10.4,43.3-15.6c15.9-6.6,29.7-12.3,42.5-12.3c7.9,0,15.1,2.2,21.4,6.6c13.9,9.6,13,29.7,12.1,49.1
			C414.4,162.4,414,170.8,414.9,177z M390.6,211.6c2.5-8.7,4.3-20.5,2.8-31.6c-1.1-8.2-0.7-17.6-0.3-26.7
			c0.5-10.3,1.3-27.4-2.8-30.2c-2.7-1.9-5.5-2.7-9.1-2.7c-8.5,0-20.4,5-34.1,10.7c-13.1,5.5-28,11.6-46,16.5
			c-52,14.1-90.5,45.4-91.3,54.7c4.5,7.2,30.1,32.2,39.8,39.9c7.6,6.1,65.5,40.9,100.4,47.3c4.2,0.8,7.9,0.9,9.8,0.7
			c-0.9-3.1-3.9-8.4-7-11.5c-2-2-8.9-6.4-15.6-10.7c-15-9.6-35.4-22.7-48.4-37.4c-9.5-10.9-12.6-20.8-9.1-29.5
			c5.6-13.9,24.6-15.7,30.9-16.2c3.7-0.3,7.1-0.5,10.4-0.6c11.5-0.5,15.6-1,19.4-5.4c5.7-6.5,13.6-10.1,22.1-10.1
			c8.8,0,17.3,3.8,21.1,9.5c2.2,3.3,2.8,7.3,4.5,18.4C388.6,200.2,389.5,206.1,390.6,211.6z"/>
		<path fill="#AF0808" d="M322.8,377c13.6,8.2,15.7,17.7,8.6,39c-7.6,22.8-16.5,48.4-25.7,63.8c-1.2,2.1-4,11.1-6.2,18.4
			c-10.8,35.1-28.8,94-68.1,94c-4.9,0-9.9-1-14.9-2.9c-35.7-13.5-108.1-81.9-113.4-178.5c-1.8-31.8,2.3-99.5,29.9-128.7
			c14.6-15.5,34.2-18.4,55.6-8c55.1,26.8,58.8,27.9,76.3,33.3l6.3,1.9c1,0.3,2,0.6,3,0.8c6,1.6,14.2,3.8,25.4,13.8
			c8.2,7.3,11.3,18.6,7.7,28c-4.9,12.8-19.7,18-37.7,12.2c-11.5-3.7-20.6-5.3-28.6-6.6c-9.1-1.5-16.9-2.8-24.9-6.7
			c-0.3,0.2-1,0.8-1.7,1.9c-1.9,3-7.5,15.7,1.4,52.6c6.2,25.9,22.9,57.7,30.2,57.7c0.9,0,6-3.4,11.9-19.1c1.5-5.4,9.7-35,17.8-46.9
			c7.8-11.4,23-23.5,35.9-23.5c3.7,0,7,0.9,10,2.7L322.8,377z M310.8,409.1c2.5-7.5,2.9-10.8,2.9-12.1c-0.6-0.4-1.4-0.9-2.1-1.3
			l-0.5-0.3c-3.4,0.6-12.1,6.2-17.4,13.9c-4.8,7-11.7,28.7-14.9,40.8l-0.3,1c-3.1,8.3-12.6,33.7-32.5,33.7
			c-32.6,0-51.2-73.6-51.4-74.3c-8.3-34.5-7.2-58.7,3.2-71.9c4.8-6.1,11.5-9.5,18.5-9.5c3.1,0,6.1,0.7,8.7,2
			c5.4,2.7,11.4,3.7,19.6,5.1c8.3,1.4,18.7,3.1,31.7,7.4c2.8,0.9,5.4,1.4,7.5,1.4c2.1,0,3-0.5,3.2-0.7c0.2-0.4,0.1-2.3-1.9-4.1
			c-7.3-6.5-11.5-7.6-16.5-9c-1.3-0.4-2.6-0.7-3.9-1.1l-6.2-1.9c-18.8-5.8-22.7-7-79.4-34.5c-5.4-2.6-10.4-4-14.7-4
			c-5.8,0-10.9,2.4-15.6,7.4c-19.7,20.8-25.9,78.4-24,112.6c4.9,88.6,72.1,149.1,99.4,159.4c2.5,0.9,4.9,1.4,7.2,1.4
			c23.2,0,39.5-53.1,47.3-78.6c3.8-12.4,5.9-19,8.4-23.1C295.9,454.1,305.6,424.8,310.8,409.1z"/>
	</g>
	<g>
	</g>
</g>
</svg>
