<?xml version="1.0" encoding="utf-8"?>
<!-- Generator: Adobe Illustrator 18.1.1, SVG Export Plug-In . SVG Version: 6.00 Build 0)  -->
<svg version="1.1" id="Layer_1" xmlns="http://www.w3.org/2000/svg" xmlns:xlink="http://www.w3.org/1999/xlink" x="0px" y="0px"
	 viewBox="0 0 800 933" enable-background="new 0 0 800 933" xml:space="preserve">
<g id="XMLID_1_">
	<g>
		<path fill="#FCFCFC" d="M621.3,561.1l-2.7,89.5C617,654,595,687.8,401,687.8c-195.8,0-221.4-38.2-223.5-41.9l-1.4-74.2
			c28.6,4.7,121.8,18.6,224.9,18.6C503,590.2,592.3,568.8,621.3,561.1z"/>
		<path fill="#E8FCFB" d="M553,361l-103.5,13l2.9-2.8c0.9-0.9,1.5-2,1.8-3.1c0.5-0.4,1.1-0.9,1.5-1.5l9.4-13.5l65.5-7.2L553,361z"/>
		<path fill="#E8FCFB" d="M404.1,417.7l4.4,37.5c-8.4,0.4-16.7,0.7-24.6,0.8l-2.1-16.7L404.1,417.7z"/>
		<path fill="#E8FCFB" d="M566.8,374.3l3.3,61.3c-53.6,10.5-103,16.2-146.8,18.8l-5.8-49.7l13.9-13.4L566.8,374.3z"/>
		<polygon fill="#E8FCFB" points="316.5,230.1 314.8,241.5 207,344.1 208.6,327.2 		"/>
		<polygon fill="#E8FCFB" points="454.7,342.1 446,354.4 329.7,242.4 332.2,226 		"/>
		<path fill="#E8FCFB" d="M436.4,365.9l-93.8,90.2c-15.2-0.3-29.1-1-41.9-1.8l-90.3-92.9l111.3-105.9L436.4,365.9z"/>
		<path d="M650,101.2l-16.4,550.9c-0.9,9-16.4,50.6-232.5,50.6c-92.3,0-159.9-8.3-200.9-24.6c-32.2-12.8-36.8-26.7-37.4-29.3
			c-0.1-0.5-0.2-1-0.2-1.5l-10.5-546.3c0-0.3,0.1-0.5,0.1-0.8c0-0.3,0-0.7,0-1c0.1-0.3,0.2-0.5,0.3-0.8c0.1-0.2,0.1-0.4,0.2-0.5
			c8.2-19.5,96.8-30.3,250.6-30.3c111.8,0,245.3,5.7,246.6,32.9c0,0.1,0,0.2,0,0.3C649.9,101.1,650,101.1,650,101.2z M625.4,423.3
			l9.3-312.3c-23.6,5.9-90.6,18.6-233.7,18.6c-143.4,0-210.3-12.7-233.8-18.6l6.3,324.2c12.9,3.5,49.7,12.2,104.8,17.3l-81.8-84.1
			c-3.8-0.7-6.5-4.1-6.1-8l3.6-37.6c0.2-1.9,1.1-3.6,2.4-4.8l125.5-113c2.3-2.1,5.8-2.5,8.5-1c1.5,0.8,2.6,2.1,3.2,3.5
			c0.7,0.3,1.5,0.7,2.1,1.3l133.8,126.7c0.6,0.6,1.1,1.2,1.4,1.9l60.7-6.7c1.7-0.2,3.5,0.2,5,1.2l41.2,27.6c0.1,0.1,0.2,0.2,0.3,0.3
			c0.1,0.1,0.2,0.1,0.3,0.2c0.3,0.2,0.4,0.5,0.6,0.8c0.4,0.4,0.8,0.8,1,1.3c0.2,0.4,0.3,0.8,0.5,1.1c0.2,0.6,0.4,1.1,0.4,1.6
			c0,0.1,0.1,0.3,0.1,0.5l3.7,67.1C598.2,429.8,611.7,426.7,625.4,423.3z M621.8,545.5l3.2-106.7c-13.3,3.2-26.4,6.2-39.2,8.9
			l4.9,88.9c0.2,3.8-2.6,7.2-6.4,7.8l-155,22.9c-0.4,0-0.7,0.1-1.1,0.1c-0.8,0-1.5-0.1-2.3-0.4c-0.3-0.1-0.5-0.2-0.8-0.4
			c-0.4-0.2-0.8-0.3-1.2-0.6l-42.3-29.5c-1.7-1.2-2.9-3.1-3.1-5.2l-7.8-60.3c-2.3,0-4.7,0.1-7,0.1c-5,0-10-0.1-14.8-0.1L326.9,492
			c-1.4,1.4-3.3,2.1-5.2,2.1c-1.9,0-3.9-0.8-5.3-2.3l-22.6-23.2c-60.4-4.4-102.1-13.4-120-17.9l2,105.8
			c24.2,4.1,119.4,18.8,225.2,18.8C507.4,575.3,599.5,551.7,621.8,545.5z M618.7,650.6l2.7-89.5c-29,7.8-118.3,29.2-220.3,29.2
			c-103.2,0-196.4-13.9-224.9-18.6l1.4,74.2c2.1,3.7,27.6,41.9,223.5,41.9C595,687.8,617,654,618.7,650.6z M575.3,530.6l-4.4-80
			c-52.6,10.2-101.5,15.9-145.9,18.5l9.6,82.2L575.3,530.6z M570.1,435.6l-3.3-61.3l-135.3,17l-13.9,13.4l5.8,49.7
			C467.1,451.8,516.5,446.1,570.1,435.6z M622.6,98.4c-21.7-6.4-77.7-15.8-219.2-15.8c-142.4,0-200,9.4-223,16
			c29,6.1,95.4,16,220.6,16C527.6,114.6,594.2,104.5,622.6,98.4z M449.5,374L553,361l-22.4-15l-65.5,7.2l-9.4,13.5
			c-0.4,0.6-1,1-1.5,1.5c-0.4,1.2-0.9,2.3-1.8,3.1L449.5,374z M446,354.4l8.7-12.4L332.2,226l-2.5,16.4L446,354.4z M342.7,456.1
			l93.8-90.2L321.7,255.4L210.4,361.4l90.3,92.9C313.5,455.1,327.5,455.8,342.7,456.1z M418.8,544.3l-8.6-74.3
			c-8.3,0.4-16.5,0.6-24.5,0.8l7.1,55.4L418.8,544.3z M408.4,455.2l-4.4-37.5l-22.4,21.6l2.1,16.7
			C391.8,455.8,400,455.6,408.4,455.2z M368.8,456.2l-0.5-4l-4.2,4.1C365.6,456.2,367.2,456.2,368.8,456.2z M321.9,476.1l5.9-5.7
			c-4-0.1-8-0.3-11.9-0.5L321.9,476.1z M314.8,241.5l1.7-11.3l-107.9,97.1l-1.6,16.9L314.8,241.5z"/>
		<path fill="#DD8005" d="M625,438.8l-3.2,106.7c-22.2,6.2-114.4,29.8-220.8,29.8c-105.8,0-201-14.8-225.2-18.8l-2-105.8
			c17.9,4.5,59.6,13.5,120,17.9l22.6,23.2c1.5,1.5,3.4,2.3,5.3,2.3c1.9,0,3.7-0.7,5.2-2.1l21.9-21.1c4.9,0.1,9.8,0.1,14.8,0.1
			c2.3,0,4.7,0,7-0.1l7.8,60.3c0.3,2.1,1.4,4,3.1,5.2l42.3,29.5c0.4,0.3,0.8,0.4,1.2,0.6c0.3,0.1,0.5,0.3,0.8,0.4
			c0.8,0.2,1.5,0.4,2.3,0.4c0.4,0,0.7,0,1.1-0.1l155-22.9c3.8-0.6,6.6-3.9,6.4-7.8l-4.9-88.9C598.6,445,611.7,442,625,438.8z"/>
		<path fill="#FF9700" d="M570.9,450.6l4.4,80l-140.7,20.8l-9.6-82.2C469.4,466.5,518.3,460.9,570.9,450.6z"/>
		<path fill="#FF9700" d="M410.1,470l8.6,74.3l-26-18.1l-7.1-55.4C393.7,470.6,401.8,470.3,410.1,470z"/>
		<path fill="#FF9700" d="M327.8,470.4l-5.9,5.7l-6-6.2C319.8,470.1,323.8,470.2,327.8,470.4z"/>
	</g>
	<g>
	</g>
</g>
</svg>
