<svg xmlns="http://www.w3.org/2000/svg" xmlns:xlink="http://www.w3.org/1999/xlink" version="1.1" x="0px" y="0px" viewBox="0 0 100 125" enable-background="new 0 0 100 100" xml:space="preserve"><path d="M83.482,13.527c0-0.015,0.006-0.027,0.005-0.042C83.319,9.839,65.429,9.074,50.45,9.074c-20.612,0-32.487,1.44-33.578,4.059  c-0.01,0.023-0.017,0.047-0.026,0.071c-0.012,0.036-0.03,0.07-0.038,0.106c-0.01,0.045-0.001,0.089-0.005,0.134  c-0.003,0.037-0.021,0.069-0.02,0.107l1.414,73.187c0.001,0.065,0.009,0.131,0.023,0.195c0.078,0.355,0.686,2.214,5.004,3.932  c5.485,2.183,14.539,3.289,26.91,3.289c28.956,0,31.028-5.584,31.155-6.782l2.198-73.81C83.488,13.549,83.482,13.539,83.482,13.527z   M19.688,60.38c2.399,0.602,7.99,1.808,16.081,2.394l3.029,3.116c0.196,0.201,0.457,0.303,0.717,0.303c0.25,0,0.5-0.093,0.693-0.279  l2.932-2.822c0.653,0.01,1.314,0.017,1.989,0.017c0.309,0,0.627-0.004,0.94-0.007l1.038,8.082c0.036,0.28,0.188,0.531,0.419,0.693  l5.666,3.956c0.05,0.035,0.105,0.054,0.16,0.078c0.035,0.017,0.067,0.039,0.104,0.051c0.101,0.033,0.204,0.051,0.307,0.051l0,0  c0.001,0,0.001,0,0.001,0c0.049,0,0.098-0.004,0.146-0.011l20.772-3.068c0.511-0.075,0.88-0.528,0.852-1.044l-0.652-11.912  c1.725-0.358,3.478-0.754,5.258-1.188l-0.425,14.295c-2.98,0.828-15.328,3.996-29.582,3.996c-14.173,0-26.925-1.976-30.172-2.521  L19.688,60.38z M57.329,45.83l-1.159,1.655L40.582,32.478l0.334-2.197L57.329,45.83z M73.489,71.087l-18.85,2.785L53.36,62.859  c5.937-0.352,12.489-1.115,19.542-2.484L73.489,71.087z M45.747,60.582l0.07,0.541c-0.212,0.002-0.427,0.004-0.636,0.005  L45.747,60.582z M47.542,58.855l3.004-2.892l0.583,5.019c-1.13,0.052-2.231,0.09-3.3,0.112L47.542,58.855z M51.359,62.964  l1.156,9.955l-3.479-2.43l-0.953-7.417C49.152,63.049,50.243,63.015,51.359,62.964z M53.13,60.878l-0.773-6.657l1.866-1.796  l18.12-2.281l0.449,8.211C65.605,59.763,58.997,60.527,53.13,60.878z M56.632,50.106l0.382-0.368  c0.121-0.117,0.195-0.264,0.246-0.421c0.073-0.059,0.149-0.115,0.206-0.196l1.263-1.802l8.777-0.966l2.997,2.007L56.632,50.106z   M38.578,32.351l-14.44,13.745l0.218-2.259l14.454-13.004L38.578,32.351z M39.512,34.223l15.366,14.794l-12.56,12.089  c-2.034-0.041-3.9-0.129-5.613-0.241L24.604,48.413L39.512,34.223z M40.33,63.02l-0.791,0.762l-0.806-0.829  C39.257,62.978,39.789,63,40.33,63.02z M80.203,56.713c-1.842,0.455-3.652,0.868-5.431,1.24l-0.492-8.99  c-0.001-0.022-0.014-0.041-0.017-0.062c-0.009-0.077-0.031-0.146-0.058-0.219c-0.02-0.053-0.035-0.105-0.063-0.155  c-0.036-0.064-0.086-0.117-0.136-0.172c-0.031-0.034-0.049-0.076-0.084-0.105c-0.014-0.011-0.031-0.014-0.045-0.024  c-0.016-0.011-0.023-0.028-0.039-0.039l-5.523-3.699c-0.195-0.131-0.433-0.188-0.666-0.163l-8.127,0.895  c-0.05-0.09-0.113-0.174-0.191-0.249L41.408,27.993c-0.084-0.08-0.183-0.132-0.283-0.177c-0.088-0.198-0.234-0.369-0.434-0.476  c-0.373-0.2-0.83-0.146-1.144,0.137L22.729,42.61c-0.186,0.167-0.302,0.398-0.327,0.647l-0.486,5.032  c-0.05,0.519,0.312,0.971,0.814,1.066l10.955,11.273c-7.384-0.68-12.31-1.857-14.037-2.32l-0.839-43.44  c3.147,0.794,12.115,2.488,31.325,2.488c19.18,0,28.151-1.689,31.312-2.484L80.203,56.713z M50.45,11.074  c18.963,0,26.46,1.251,29.373,2.111c-3.812,0.812-12.726,2.171-29.688,2.171c-16.771,0-25.674-1.329-29.556-2.143  C23.649,12.332,31.375,11.074,50.45,11.074z M50.135,92.153c-26.237,0-29.666-5.118-29.941-5.612l-0.192-9.948  c3.825,0.629,16.312,2.487,30.133,2.487c13.671,0,25.636-2.868,29.52-3.906L79.298,87.17C79.072,87.618,76.13,92.153,50.135,92.153z  "/><text x="0" y="115" fill="#000000" font-size="5px" font-weight="bold" font-family="'Helvetica Neue', Helvetica, Arial-Unicode, Arial, Sans-serif">Created by Theresa Berens</text><text x="0" y="120" fill="#000000" font-size="5px" font-weight="bold" font-family="'Helvetica Neue', Helvetica, Arial-Unicode, Arial, Sans-serif">from the Noun Project</text></svg>